{
	"asset":{
		"generator":"Khronos glTF Blender I/O v5.0.21",
		"version":"2.0"
	},
	"extensionsUsed":[
		"KHR_materials_clearcoat",
		"KHR_materials_sheen"
	],
	"scene":0,
	"scenes":[
		{
			"name":"Scene",
			"nodes":[
				63
			]
		}
	],
	"nodes":[
		{
			"name":"head",
			"rotation":[
				-0.07690262049436569,
				0,
				0,
				0.9970386028289795
			],
			"translation":[
				0,
				0.17628128826618195,
				1.30385160446167e-08
			]
		},
		{
			"children":[
				0
			],
			"name":"neck_01",
			"rotation":[
				0.04475019499659538,
				0,
				0,
				0.99899822473526
			],
			"translation":[
				0,
				0.09599995613098145,
				0
			]
		},
		{
			"name":"hand_end_l",
			"rotation":[
				0.8535532355308533,
				0.35355350375175476,
				0.3535537123680115,
				0.14644671976566315
			],
			"scale":[
				0.9999997019767761,
				0.9999998807907104,
				0.9999997615814209
			],
			"translation":[
				-2.9380705868220502e-08,
				0.08994394540786743,
				-4.216160753856002e-10
			]
		},
		{
			"name":"index_03_l",
			"rotation":[
				-0.2185080647468567,
				3.3686208666949824e-07,
				-0.21850697696208954,
				0.9510567784309387
			],
			"scale":[
				1,
				0.9999999403953552,
				0.9999998211860657
			],
			"translation":[
				1.2293457984924316e-07,
				0.033599987626075745,
				-1.341104507446289e-07
			]
		},
		{
			"children":[
				3
			],
			"name":"index_02_l",
			"rotation":[
				-0.5756651163101196,
				-2.847349605872296e-06,
				-0.5756679177284241,
				0.5807032585144043
			],
			"scale":[
				1,
				1.0000001192092896,
				1
			],
			"translation":[
				-9.499490261077881e-08,
				0.055199962109327316,
				9.406358003616333e-08
			]
		},
		{
			"children":[
				4
			],
			"name":"index_01_l",
			"rotation":[
				-0.415625661611557,
				1.7866284451883985e-06,
				-0.41562843322753906,
				0.8090168833732605
			],
			"scale":[
				1,
				0.9999999403953552,
				1
			],
			"translation":[
				0.023758718743920326,
				0.11760002374649048,
				0.02884988859295845
			]
		},
		{
			"name":"middle_03_l",
			"rotation":[
				-0.21850837767124176,
				-2.800656488943787e-07,
				-0.21850818395614624,
				0.9510564208030701
			],
			"scale":[
				1,
				1,
				0.9999999403953552
			],
			"translation":[
				1.043081283569336e-07,
				0.03720000386238098,
				4.0978193283081055e-08
			]
		},
		{
			"children":[
				6
			],
			"name":"middle_02_l",
			"rotation":[
				-0.5756679773330688,
				9.57744646257197e-07,
				-0.5756651163101196,
				0.5807030200958252
			],
			"scale":[
				1,
				0.9999999403953552,
				0.9999998807907104
			],
			"translation":[
				-8.102506399154663e-08,
				0.0599999837577343,
				2.514570951461792e-08
			]
		},
		{
			"children":[
				7
			],
			"name":"middle_01_l",
			"rotation":[
				-0.4156281352043152,
				-2.164214492950123e-06,
				-0.4156256318092346,
				0.8090170621871948
			],
			"scale":[
				0.9999999403953552,
				1,
				0.9999999403953552
			],
			"translation":[
				0.005939673166722059,
				0.1276800036430359,
				0.011030839756131172
			]
		},
		{
			"name":"ring_03_l",
			"rotation":[
				-0.2185083031654358,
				-5.483803988681757e-08,
				-0.21850840747356415,
				0.9510563611984253
			],
			"scale":[
				0.9999998807907104,
				0.9999998807907104,
				0.9999998807907104
			],
			"translation":[
				4.470348358154297e-08,
				0.03480011597275734,
				-8.195638656616211e-08
			]
		},
		{
			"children":[
				9
			],
			"name":"ring_02_l",
			"rotation":[
				-0.5756679177284241,
				1.6566397107453668e-06,
				-0.5756657123565674,
				0.5807026624679565
			],
			"scale":[
				0.9999999403953552,
				1,
				1
			],
			"translation":[
				-1.555308699607849e-07,
				0.0552000068128109,
				3.166496753692627e-08
			]
		},
		{
			"children":[
				10
			],
			"name":"ring_01_l",
			"rotation":[
				-0.4156278371810913,
				-1.8971404642798007e-06,
				-0.4156253933906555,
				0.8090173602104187
			],
			"scale":[
				1.0000001192092896,
				0.9999999403953552,
				0.9999999403953552
			],
			"translation":[
				-0.011879433877766132,
				0.12143999338150024,
				-0.006788236554712057
			]
		},
		{
			"name":"pinky_03_l",
			"rotation":[
				-0.2185068130493164,
				-7.324790658458369e-07,
				-0.2185078114271164,
				0.9510568380355835
			],
			"scale":[
				1,
				0.9999999403953552,
				1
			],
			"translation":[
				-2.9802322387695312e-08,
				0.028799988329410553,
				-9.12696123123169e-08
			]
		},
		{
			"children":[
				12
			],
			"name":"pinky_02_l",
			"rotation":[
				-0.5756683945655823,
				2.3814175165171036e-06,
				-0.5756649971008301,
				0.5807029008865356
			],
			"translation":[
				-1.5832483768463135e-07,
				0.043199993669986725,
				3.91155481338501e-08
			]
		},
		{
			"children":[
				13
			],
			"name":"pinky_01_l",
			"rotation":[
				-0.41562849283218384,
				-2.716779363254318e-06,
				-0.41562503576278687,
				0.8090171813964844
			],
			"scale":[
				1.0000001192092896,
				0.9999999403953552,
				0.9999999403953552
			],
			"translation":[
				-0.028850039467215538,
				0.11183995008468628,
				-0.023758869618177414
			]
		},
		{
			"name":"thumb_03_l",
			"rotation":[
				-0.08214319497346878,
				-0.047839295119047165,
				0.04902958124876022,
				0.9942635297775269
			],
			"scale":[
				1,
				0.9999999403953552,
				1
			],
			"translation":[
				-7.82310962677002e-08,
				0.03959985077381134,
				-1.1175870895385742e-08
			]
		},
		{
			"children":[
				15
			],
			"name":"thumb_02_l",
			"rotation":[
				-0.17244379222393036,
				-0.09941112995147705,
				0.09663879871368408,
				0.9752135872840881
			],
			"scale":[
				0.9999998807907104,
				0.9999999403953552,
				0.9999998807907104
			],
			"translation":[
				-3.725290298461914e-09,
				0.05280005931854248,
				-1.564621925354004e-07
			]
		},
		{
			"children":[
				16
			],
			"name":"thumb_01_l",
			"rotation":[
				0.4651027321815491,
				0.28896090388298035,
				0.05645051226019859,
				0.8348619341850281
			],
			"scale":[
				1.0000001192092896,
				0.9999998211860657,
				1
			],
			"translation":[
				0.018667664378881454,
				0.031199932098388672,
				0.03224417567253113
			]
		},
		{
			"children":[
				2,
				5,
				8,
				11,
				14,
				17
			],
			"name":"hand_l",
			"rotation":[
				0.02105730026960373,
				0.38258427381515503,
				0.008721861056983471,
				0.9236394762992859
			],
			"scale":[
				0.9999999403953552,
				0.9999999403953552,
				0.9999999403953552
			],
			"translation":[
				5.960464477539063e-08,
				0.3159807324409485,
				5.588903118081134e-09
			]
		},
		{
			"children":[
				18
			],
			"name":"lowerarm_l",
			"rotation":[
				-0.049600109457969666,
				-1.1249094455934028e-07,
				1.5529765562405373e-07,
				0.9987691640853882
			],
			"scale":[
				1,
				1,
				1.0000001192092896
			],
			"translation":[
				-9.284019597544102e-08,
				0.40278202295303345,
				2.7939677238464355e-09
			]
		},
		{
			"children":[
				19
			],
			"name":"upperarm_l",
			"rotation":[
				-0.24794618785381317,
				-0.6343317627906799,
				0.2689603567123413,
				0.681033194065094
			],
			"scale":[
				1,
				0.9999998807907104,
				1
			],
			"translation":[
				4.190951585769653e-09,
				0.20123745501041412,
				-4.755565896630287e-08
			]
		},
		{
			"children":[
				20
			],
			"name":"clavicle_l",
			"rotation":[
				-0.526443362236023,
				-0.4906591773033142,
				-0.4906591773033142,
				0.4912887513637543
			],
			"scale":[
				1.0000001192092896,
				1.0000001192092896,
				1
			],
			"translation":[
				0.07621586322784424,
				0.009599924087524414,
				0.014399999752640724
			]
		},
		{
			"name":"hand_end_r",
			"rotation":[
				0.8535532355308533,
				-0.35355350375175476,
				-0.3535537123680115,
				0.14644671976566315
			],
			"scale":[
				0.9999997019767761,
				0.9999998807907104,
				0.9999997615814209
			],
			"translation":[
				2.9380705868220502e-08,
				0.08994394540786743,
				-4.216160753856002e-10
			]
		},
		{
			"name":"index_03_r",
			"rotation":[
				-0.2185080647468567,
				-3.3686208666949824e-07,
				0.21850697696208954,
				0.9510567784309387
			],
			"scale":[
				1,
				0.9999999403953552,
				0.9999998211860657
			],
			"translation":[
				-1.2293457984924316e-07,
				0.033599987626075745,
				-1.341104507446289e-07
			]
		},
		{
			"children":[
				23
			],
			"name":"index_02_r",
			"rotation":[
				-0.5756651163101196,
				2.847349605872296e-06,
				0.5756679177284241,
				0.5807032585144043
			],
			"scale":[
				1,
				1.0000001192092896,
				1
			],
			"translation":[
				9.499490261077881e-08,
				0.055199962109327316,
				9.406358003616333e-08
			]
		},
		{
			"children":[
				24
			],
			"name":"index_01_r",
			"rotation":[
				-0.415625661611557,
				-1.7866284451883985e-06,
				0.41562843322753906,
				0.8090168833732605
			],
			"scale":[
				1,
				0.9999999403953552,
				1
			],
			"translation":[
				-0.023758718743920326,
				0.11760002374649048,
				0.02884988859295845
			]
		},
		{
			"name":"middle_03_r",
			"rotation":[
				-0.21850837767124176,
				2.800656488943787e-07,
				0.21850818395614624,
				0.9510564208030701
			],
			"scale":[
				1,
				1,
				0.9999999403953552
			],
			"translation":[
				-1.043081283569336e-07,
				0.03720000386238098,
				4.0978193283081055e-08
			]
		},
		{
			"children":[
				26
			],
			"name":"middle_02_r",
			"rotation":[
				-0.5756679773330688,
				-9.57744646257197e-07,
				0.5756651163101196,
				0.5807030200958252
			],
			"scale":[
				1,
				0.9999999403953552,
				0.9999998807907104
			],
			"translation":[
				8.102506399154663e-08,
				0.0599999837577343,
				2.514570951461792e-08
			]
		},
		{
			"children":[
				27
			],
			"name":"middle_01_r",
			"rotation":[
				-0.4156281352043152,
				2.164214492950123e-06,
				0.4156256318092346,
				0.8090170621871948
			],
			"scale":[
				0.9999999403953552,
				1,
				0.9999999403953552
			],
			"translation":[
				-0.005939673166722059,
				0.1276800036430359,
				0.011030839756131172
			]
		},
		{
			"name":"ring_03_r",
			"rotation":[
				-0.2185083031654358,
				5.483803988681757e-08,
				0.21850840747356415,
				0.9510563611984253
			],
			"scale":[
				0.9999998807907104,
				0.9999998807907104,
				0.9999998807907104
			],
			"translation":[
				-4.470348358154297e-08,
				0.03480011597275734,
				-8.195638656616211e-08
			]
		},
		{
			"children":[
				29
			],
			"name":"ring_02_r",
			"rotation":[
				-0.5756679177284241,
				-1.6566397107453668e-06,
				0.5756657123565674,
				0.5807026624679565
			],
			"scale":[
				0.9999999403953552,
				1,
				1
			],
			"translation":[
				1.555308699607849e-07,
				0.0552000068128109,
				3.166496753692627e-08
			]
		},
		{
			"children":[
				30
			],
			"name":"ring_01_r",
			"rotation":[
				-0.4156278371810913,
				1.8971404642798007e-06,
				0.4156253933906555,
				0.8090173602104187
			],
			"scale":[
				1.0000001192092896,
				0.9999999403953552,
				0.9999999403953552
			],
			"translation":[
				0.011879433877766132,
				0.12143999338150024,
				-0.006788236554712057
			]
		},
		{
			"name":"pinky_03_r",
			"rotation":[
				-0.2185068130493164,
				7.324790658458369e-07,
				0.2185078114271164,
				0.9510568380355835
			],
			"scale":[
				1,
				0.9999999403953552,
				1
			],
			"translation":[
				2.9802322387695312e-08,
				0.028799988329410553,
				-9.12696123123169e-08
			]
		},
		{
			"children":[
				32
			],
			"name":"pinky_02_r",
			"rotation":[
				-0.5756683945655823,
				-2.3814175165171036e-06,
				0.5756649971008301,
				0.5807029008865356
			],
			"translation":[
				1.5832483768463135e-07,
				0.043199993669986725,
				3.91155481338501e-08
			]
		},
		{
			"children":[
				33
			],
			"name":"pinky_01_r",
			"rotation":[
				-0.41562849283218384,
				2.716779363254318e-06,
				0.41562503576278687,
				0.8090171813964844
			],
			"scale":[
				1.0000001192092896,
				0.9999999403953552,
				0.9999999403953552
			],
			"translation":[
				0.028850039467215538,
				0.11183995008468628,
				-0.023758869618177414
			]
		},
		{
			"name":"thumb_03_r",
			"rotation":[
				-0.08214319497346878,
				0.047839295119047165,
				-0.04902958124876022,
				0.9942635297775269
			],
			"scale":[
				1,
				0.9999999403953552,
				1
			],
			"translation":[
				7.82310962677002e-08,
				0.03959985077381134,
				-1.1175870895385742e-08
			]
		},
		{
			"children":[
				35
			],
			"name":"thumb_02_r",
			"rotation":[
				-0.17244379222393036,
				0.09941112995147705,
				-0.09663879871368408,
				0.9752135872840881
			],
			"scale":[
				0.9999998807907104,
				0.9999999403953552,
				0.9999998807907104
			],
			"translation":[
				3.725290298461914e-09,
				0.05280005931854248,
				-1.564621925354004e-07
			]
		},
		{
			"children":[
				36
			],
			"name":"thumb_01_r",
			"rotation":[
				0.4651027321815491,
				-0.28896090388298035,
				-0.05645051226019859,
				0.8348619341850281
			],
			"scale":[
				1.0000001192092896,
				0.9999998211860657,
				1
			],
			"translation":[
				-0.018667664378881454,
				0.031199932098388672,
				0.03224417567253113
			]
		},
		{
			"children":[
				22,
				25,
				28,
				31,
				34,
				37
			],
			"name":"hand_r",
			"rotation":[
				0.02105730026960373,
				-0.38258427381515503,
				-0.008721861056983471,
				0.9236394762992859
			],
			"scale":[
				0.9999999403953552,
				0.9999999403953552,
				0.9999999403953552
			],
			"translation":[
				-5.960464477539063e-08,
				0.3159807324409485,
				5.588903118081134e-09
			]
		},
		{
			"children":[
				38
			],
			"name":"lowerarm_r",
			"rotation":[
				-0.049600109457969666,
				1.1249094455934028e-07,
				-1.5529765562405373e-07,
				0.9987691640853882
			],
			"scale":[
				1,
				1,
				1.0000001192092896
			],
			"translation":[
				9.284019597544102e-08,
				0.40278202295303345,
				2.7939677238464355e-09
			]
		},
		{
			"children":[
				39
			],
			"name":"upperarm_r",
			"rotation":[
				-0.24794618785381317,
				0.6343317627906799,
				-0.2689603567123413,
				0.681033194065094
			],
			"scale":[
				1,
				0.9999998807907104,
				1
			],
			"translation":[
				-4.190951585769653e-09,
				0.20123745501041412,
				-4.755565896630287e-08
			]
		},
		{
			"children":[
				40
			],
			"name":"clavicle_r",
			"rotation":[
				-0.526443362236023,
				0.4906591773033142,
				0.4906591773033142,
				0.4912887513637543
			],
			"scale":[
				1.0000001192092896,
				1.0000001192092896,
				1
			],
			"translation":[
				-0.07621586322784424,
				0.009599924087524414,
				0.014399999752640724
			]
		},
		{
			"children":[
				1,
				21,
				41
			],
			"name":"spine_03",
			"translation":[
				0,
				0.21119999885559082,
				0
			]
		},
		{
			"children":[
				42
			],
			"name":"spine_02",
			"translation":[
				0,
				0.18719995021820068,
				0
			]
		},
		{
			"children":[
				43
			],
			"name":"spine_01",
			"translation":[
				0,
				0.18720006942749023,
				0
			]
		},
		{
			"name":"ball_l",
			"rotation":[
				-0.8003542423248291,
				-4.2505329811426407e-10,
				-1.0043339493392978e-09,
				0.5995274186134338
			],
			"scale":[
				1,
				1,
				1.0000001192092896
			],
			"translation":[
				-7.19008186322867e-09,
				0.19506733119487762,
				-5.676128012055415e-09
			]
		},
		{
			"children":[
				45
			],
			"name":"foot_l",
			"rotation":[
				0.00547405518591404,
				-0.7921457290649414,
				-0.61029452085495,
				0.003986030351370573
			],
			"scale":[
				0.9999999403953552,
				0.9999997019767761,
				1
			],
			"translation":[
				-7.3341648310076835e-09,
				0.5318438410758972,
				1.4614425225545347e-09
			]
		},
		{
			"children":[
				46
			],
			"name":"calf_l",
			"rotation":[
				-0.02719949372112751,
				-3.807344057804585e-07,
				-0.002215899061411619,
				0.9996275901794434
			],
			"scale":[
				0.9999999403953552,
				1,
				0.9999999403953552
			],
			"translation":[
				-9.888596608220723e-09,
				0.527018666267395,
				2.1827872842550278e-11
			]
		},
		{
			"children":[
				47
			],
			"name":"thigh_l",
			"rotation":[
				6.217407644726336e-05,
				0.013662892393767834,
				0.9998962879180908,
				0.00455524493008852
			],
			"scale":[
				1,
				0.9999999403953552,
				1.000000238418579
			],
			"translation":[
				0.1275099664926529,
				0,
				0
			]
		},
		{
			"name":"ball_r",
			"rotation":[
				-0.8003542423248291,
				4.2505329811426407e-10,
				1.0043339493392978e-09,
				0.5995274186134338
			],
			"scale":[
				1,
				1,
				1.0000001192092896
			],
			"translation":[
				7.19008186322867e-09,
				0.19506733119487762,
				-5.676128012055415e-09
			]
		},
		{
			"children":[
				49
			],
			"name":"foot_r",
			"rotation":[
				0.00547405518591404,
				0.7921457290649414,
				0.61029452085495,
				0.003986030351370573
			],
			"scale":[
				0.9999999403953552,
				0.9999997019767761,
				1
			],
			"translation":[
				7.3341648310076835e-09,
				0.5318438410758972,
				1.4614425225545347e-09
			]
		},
		{
			"children":[
				50
			],
			"name":"calf_r",
			"rotation":[
				-0.02719949372112751,
				3.807344057804585e-07,
				0.002215899061411619,
				0.9996275901794434
			],
			"scale":[
				0.9999999403953552,
				1,
				0.9999999403953552
			],
			"translation":[
				9.888596608220723e-09,
				0.527018666267395,
				2.1827872842550278e-11
			]
		},
		{
			"children":[
				51
			],
			"name":"thigh_r",
			"rotation":[
				6.217407644726336e-05,
				-0.013662892393767834,
				-0.9998962879180908,
				0.00455524493008852
			],
			"scale":[
				1,
				0.9999999403953552,
				1.000000238418579
			],
			"translation":[
				-0.1275099664926529,
				0,
				0
			]
		},
		{
			"children":[
				44,
				48,
				52
			],
			"name":"pelvis",
			"translation":[
				0,
				1.1424000263214111,
				0
			]
		},
		{
			"name":"ik_foot_l",
			"rotation":[
				0.8003541827201843,
				0,
				0,
				0.5995274782180786
			],
			"translation":[
				0.11550996452569962,
				0.08399999886751175,
				0
			]
		},
		{
			"name":"ik_foot_r",
			"rotation":[
				0.8003541827201843,
				0,
				0,
				0.5995274782180786
			],
			"translation":[
				-0.11550996452569962,
				0.08399999886751175,
				0
			]
		},
		{
			"children":[
				54,
				55
			],
			"name":"ik_foot_root"
		},
		{
			"name":"ik_hand_l",
			"rotation":[
				-4.2146815815158334e-08,
				0.4999998211860657,
				-0.7071073055267334,
				0.499999463558197
			],
			"scale":[
				0.9999999403953552,
				1,
				1
			],
			"translation":[
				0.7847951650619507,
				-1.109869122505188,
				-0.7847955226898193
			]
		},
		{
			"name":"ik_hand_r",
			"rotation":[
				-2.188621728294038e-08,
				-1.4901161193847656e-08,
				-1.5366666161753528e-08,
				1
			],
			"translation":[
				-8.754432201385498e-08,
				4.440892098500626e-16,
				-2.7939679014821195e-08
			]
		},
		{
			"children":[
				57,
				58
			],
			"name":"ik_hand_gun",
			"rotation":[
				-0.8535532355308533,
				0.35355353355407715,
				0.35355356335639954,
				0.14644676446914673
			],
			"scale":[
				0.9999995827674866,
				0.9999997019767761,
				0.9999999403953552
			],
			"translation":[
				-0.7847955822944641,
				1.2228000164031982,
				0
			]
		},
		{
			"children":[
				59
			],
			"name":"ik_hand_root"
		},
		{
			"children":[
				53,
				56,
				60
			],
			"name":"root"
		},
		{
			"mesh":0,
			"name":"Boss",
			"skin":0
		},
		{
			"children":[
				62,
				61
			],
			"name":"Saud_Rig"
		}
	],
	"materials":[
		{
			"doubleSided":true,
			"name":"Boss_Skin",
			"normalTexture":{
				"index":0
			},
			"pbrMetallicRoughness":{
				"baseColorTexture":{
					"index":1
				},
				"metallicFactor":0,
				"metallicRoughnessTexture":{
					"index":2
				}
			}
		},
		{
			"doubleSided":true,
			"extensions":{
				"KHR_materials_clearcoat":{
					"clearcoatFactor":0.20000000298023224,
					"clearcoatRoughnessFactor":0.05999999865889549
				}
			},
			"name":"Boss_Shoe",
			"normalTexture":{
				"index":3
			},
			"pbrMetallicRoughness":{
				"baseColorTexture":{
					"index":4
				},
				"metallicFactor":0,
				"metallicRoughnessTexture":{
					"index":5
				}
			}
		},
		{
			"doubleSided":true,
			"extensions":{
				"KHR_materials_clearcoat":{
					"clearcoatFactor":1,
					"clearcoatRoughnessFactor":0.05999999865889549
				}
			},
			"name":"Boss_Eye",
			"pbrMetallicRoughness":{
				"baseColorTexture":{
					"index":6
				},
				"metallicFactor":0,
				"metallicRoughnessTexture":{
					"index":7
				}
			}
		},
		{
			"doubleSided":true,
			"extensions":{
				"KHR_materials_sheen":{
					"sheenColorFactor":[
						1.0,
						1.0,
						1.0
					],
					"sheenRoughnessFactor":0.5
				}
			},
			"name":"Boss_Tee",
			"normalTexture":{
				"index":8
			},
			"pbrMetallicRoughness":{
				"baseColorTexture":{
					"index":9
				},
				"metallicFactor":0,
				"metallicRoughnessTexture":{
					"index":10
				}
			}
		},
		{
			"doubleSided":true,
			"extensions":{
				"KHR_materials_sheen":{
					"sheenColorFactor":[
						1.0,
						1.0,
						1.0
					],
					"sheenRoughnessFactor":0.5
				}
			},
			"name":"Boss_Pants",
			"normalTexture":{
				"index":11
			},
			"pbrMetallicRoughness":{
				"baseColorTexture":{
					"index":12
				},
				"metallicFactor":0,
				"metallicRoughnessTexture":{
					"index":13
				}
			}
		}
	],
	"meshes":[
		{
			"name":"Boss",
			"primitives":[
				{
					"attributes":{
						"POSITION":0,
						"NORMAL":1,
						"TEXCOORD_0":2,
						"COLOR_0":3,
						"COLOR_1":4,
						"JOINTS_0":5,
						"WEIGHTS_0":6
					},
					"indices":7,
					"material":0
				},
				{
					"attributes":{
						"POSITION":8,
						"NORMAL":9,
						"TEXCOORD_0":10,
						"COLOR_0":11,
						"COLOR_1":12,
						"JOINTS_0":13,
						"WEIGHTS_0":14
					},
					"indices":15,
					"material":1
				},
				{
					"attributes":{
						"POSITION":16,
						"NORMAL":17,
						"TEXCOORD_0":18,
						"COLOR_0":19,
						"COLOR_1":20,
						"JOINTS_0":21,
						"WEIGHTS_0":22
					},
					"indices":23,
					"material":2
				},
				{
					"attributes":{
						"POSITION":24,
						"NORMAL":25,
						"TEXCOORD_0":26,
						"COLOR_0":27,
						"COLOR_1":28,
						"JOINTS_0":29,
						"WEIGHTS_0":30
					},
					"indices":31,
					"material":3
				},
				{
					"attributes":{
						"POSITION":32,
						"NORMAL":33,
						"TEXCOORD_0":34,
						"COLOR_0":35,
						"COLOR_1":36,
						"JOINTS_0":37,
						"WEIGHTS_0":38
					},
					"indices":39,
					"material":4
				}
			]
		}
	],
	"textures":[
		{
			"sampler":0,
			"source":0
		},
		{
			"sampler":0,
			"source":1
		},
		{
			"sampler":0,
			"source":2
		},
		{
			"sampler":0,
			"source":3
		},
		{
			"sampler":0,
			"source":4
		},
		{
			"sampler":0,
			"source":5
		},
		{
			"sampler":0,
			"source":6
		},
		{
			"sampler":0,
			"source":7
		},
		{
			"sampler":0,
			"source":8
		},
		{
			"sampler":0,
			"source":9
		},
		{
			"sampler":0,
			"source":10
		},
		{
			"sampler":0,
			"source":11
		},
		{
			"sampler":0,
			"source":12
		},
		{
			"sampler":0,
			"source":13
		}
	],
	"images":[
		{
			"mimeType":"image/png",
			"name":"Boss_Skin_normal",
			"uri":"../Textures/Boss/T_Boss_Skin_Normal.png"
		},
		{
			"mimeType":"image/png",
			"name":"Boss_Skin_albedo",
			"uri":"../Textures/Boss/T_Boss_Skin_BaseColor.png"
		},
		{
			"mimeType":"image/png",
			"name":"Boss_Skin_roughness",
			"uri":"../Textures/Boss/T_Boss_Skin_Roughness.png"
		},
		{
			"mimeType":"image/png",
			"name":"Boss_Shoe_normal",
			"uri":"../Textures/Boss/T_Boss_Shoe_Normal.png"
		},
		{
			"mimeType":"image/png",
			"name":"Boss_Shoe_albedo",
			"uri":"../Textures/Boss/T_Boss_Shoe_BaseColor.png"
		},
		{
			"mimeType":"image/png",
			"name":"Boss_Shoe_roughness",
			"uri":"../Textures/Boss/T_Boss_Shoe_Roughness.png"
		},
		{
			"mimeType":"image/png",
			"name":"Boss_Eye_albedo",
			"uri":"../Textures/Boss/T_Boss_Eye_BaseColor.png"
		},
		{
			"mimeType":"image/png",
			"name":"Boss_Eye_roughness",
			"uri":"../Textures/Boss/T_Boss_Eye_Roughness.png"
		},
		{
			"mimeType":"image/png",
			"name":"Boss_Tee_normal",
			"uri":"../Textures/Boss/T_Boss_Tee_Normal.png"
		},
		{
			"mimeType":"image/png",
			"name":"Boss_Tee_albedo",
			"uri":"../Textures/Boss/T_Boss_Tee_BaseColor.png"
		},
		{
			"mimeType":"image/png",
			"name":"Boss_Tee_roughness",
			"uri":"../Textures/Boss/T_Boss_Tee_Roughness.png"
		},
		{
			"mimeType":"image/png",
			"name":"Boss_Pants_normal",
			"uri":"../Textures/Boss/T_Boss_Pants_Normal.png"
		},
		{
			"mimeType":"image/png",
			"name":"Boss_Pants_albedo",
			"uri":"../Textures/Boss/T_Boss_Pants_BaseColor.png"
		},
		{
			"mimeType":"image/png",
			"name":"Boss_Pants_roughness",
			"uri":"../Textures/Boss/T_Boss_Pants_Roughness.png"
		}
	],
	"skins":[
		{
			"inverseBindMatrices":40,
			"joints":[
				61,
				53,
				44,
				43,
				42,
				1,
				0,
				21,
				20,
				19,
				18,
				2,
				5,
				4,
				3,
				8,
				7,
				6,
				11,
				10,
				9,
				14,
				13,
				12,
				17,
				16,
				15,
				41,
				40,
				39,
				38,
				22,
				25,
				24,
				23,
				28,
				27,
				26,
				31,
				30,
				29,
				34,
				33,
				32,
				37,
				36,
				35,
				48,
				47,
				46,
				45,
				52,
				51,
				50,
				49,
				56,
				54,
				55,
				60,
				59,
				57,
				58
			],
			"name":"Saud_Rig"
		}
	],
	"accessors":[
		{
			"bufferView":0,
			"componentType":5126,
			"count":19269,
			"max":[
				0.9417988061904907,
				2.1391685009002686,
				0.14968988299369812
			],
			"min":[
				-0.9417852163314819,
				0.08917799592018127,
				-0.13809780776500702
			],
			"type":"VEC3"
		},
		{
			"bufferView":1,
			"componentType":5126,
			"count":19269,
			"type":"VEC3"
		},
		{
			"bufferView":2,
			"componentType":5126,
			"count":19269,
			"type":"VEC2"
		},
		{
			"bufferView":3,
			"componentType":5121,
			"count":19269,
			"normalized":true,
			"type":"VEC4"
		},
		{
			"bufferView":4,
			"componentType":5123,
			"count":19269,
			"normalized":true,
			"type":"VEC4"
		},
		{
			"bufferView":5,
			"componentType":5121,
			"count":19269,
			"type":"VEC4"
		},
		{
			"bufferView":6,
			"componentType":5126,
			"count":19269,
			"type":"VEC4"
		},
		{
			"bufferView":7,
			"componentType":5123,
			"count":108369,
			"type":"SCALAR"
		},
		{
			"bufferView":8,
			"componentType":5126,
			"count":1257,
			"max":[
				0.17430995404720306,
				0.1809748262166977,
				0.2939622104167938
			],
			"min":[
				-0.17430995404720306,
				0,
				-0.09359999001026154
			],
			"type":"VEC3"
		},
		{
			"bufferView":9,
			"componentType":5126,
			"count":1257,
			"type":"VEC3"
		},
		{
			"bufferView":10,
			"componentType":5126,
			"count":1257,
			"type":"VEC2"
		},
		{
			"bufferView":11,
			"componentType":5121,
			"count":1257,
			"normalized":true,
			"type":"VEC4"
		},
		{
			"bufferView":12,
			"componentType":5123,
			"count":1257,
			"normalized":true,
			"type":"VEC4"
		},
		{
			"bufferView":13,
			"componentType":5121,
			"count":1257,
			"type":"VEC4"
		},
		{
			"bufferView":14,
			"componentType":5126,
			"count":1257,
			"type":"VEC4"
		},
		{
			"bufferView":15,
			"componentType":5123,
			"count":6822,
			"type":"SCALAR"
		},
		{
			"bufferView":16,
			"componentType":5126,
			"count":5130,
			"max":[
				0.04841012880206108,
				2.01871395111084,
				0.1067468449473381
			],
			"min":[
				-0.04841012880206108,
				1.9916945695877075,
				0.07972724735736847
			],
			"type":"VEC3"
		},
		{
			"bufferView":17,
			"componentType":5126,
			"count":5130,
			"type":"VEC3"
		},
		{
			"bufferView":18,
			"componentType":5126,
			"count":5130,
			"type":"VEC2"
		},
		{
			"bufferView":19,
			"componentType":5121,
			"count":5130,
			"normalized":true,
			"type":"VEC4"
		},
		{
			"bufferView":20,
			"componentType":5123,
			"count":5130,
			"normalized":true,
			"type":"VEC4"
		},
		{
			"bufferView":21,
			"componentType":5121,
			"count":5130,
			"type":"VEC4"
		},
		{
			"bufferView":22,
			"componentType":5126,
			"count":5130,
			"type":"VEC4"
		},
		{
			"bufferView":23,
			"componentType":5123,
			"count":29952,
			"type":"SCALAR"
		},
		{
			"bufferView":24,
			"componentType":5126,
			"count":4825,
			"max":[
				0.45488569140434265,
				1.8475122451782227,
				0.1515338122844696
			],
			"min":[
				-0.45431163907051086,
				1.274213194847107,
				-0.15852829813957214
			],
			"type":"VEC3"
		},
		{
			"bufferView":25,
			"componentType":5126,
			"count":4825,
			"type":"VEC3"
		},
		{
			"bufferView":26,
			"componentType":5126,
			"count":4825,
			"type":"VEC2"
		},
		{
			"bufferView":27,
			"componentType":5121,
			"count":4825,
			"normalized":true,
			"type":"VEC4"
		},
		{
			"bufferView":28,
			"componentType":5123,
			"count":4825,
			"normalized":true,
			"type":"VEC4"
		},
		{
			"bufferView":29,
			"componentType":5121,
			"count":4825,
			"type":"VEC4"
		},
		{
			"bufferView":30,
			"componentType":5126,
			"count":4825,
			"type":"VEC4"
		},
		{
			"bufferView":31,
			"componentType":5123,
			"count":24861,
			"type":"SCALAR"
		},
		{
			"bufferView":32,
			"componentType":5126,
			"count":4369,
			"max":[
				0.2559690475463867,
				1.2947951555252075,
				0.15592677891254425
			],
			"min":[
				-0.25552603602409363,
				0.13795742392539978,
				-0.16514836251735687
			],
			"type":"VEC3"
		},
		{
			"bufferView":33,
			"componentType":5126,
			"count":4369,
			"type":"VEC3"
		},
		{
			"bufferView":34,
			"componentType":5126,
			"count":4369,
			"type":"VEC2"
		},
		{
			"bufferView":35,
			"componentType":5121,
			"count":4369,
			"normalized":true,
			"type":"VEC4"
		},
		{
			"bufferView":36,
			"componentType":5123,
			"count":4369,
			"normalized":true,
			"type":"VEC4"
		},
		{
			"bufferView":37,
			"componentType":5121,
			"count":4369,
			"type":"VEC4"
		},
		{
			"bufferView":38,
			"componentType":5126,
			"count":4369,
			"type":"VEC4"
		},
		{
			"bufferView":39,
			"componentType":5123,
			"count":22518,
			"type":"SCALAR"
		},
		{
			"bufferView":40,
			"componentType":5126,
			"count":62,
			"type":"MAT4"
		}
	],
	"bufferViews":[
		{
			"buffer":0,
			"byteLength":231228,
			"byteOffset":0,
			"target":34962
		},
		{
			"buffer":0,
			"byteLength":231228,
			"byteOffset":231228,
			"target":34962
		},
		{
			"buffer":0,
			"byteLength":154152,
			"byteOffset":462456,
			"target":34962
		},
		{
			"buffer":0,
			"byteLength":77076,
			"byteOffset":616608,
			"target":34962
		},
		{
			"buffer":0,
			"byteLength":154152,
			"byteOffset":693684,
			"target":34962
		},
		{
			"buffer":0,
			"byteLength":77076,
			"byteOffset":847836,
			"target":34962
		},
		{
			"buffer":0,
			"byteLength":308304,
			"byteOffset":924912,
			"target":34962
		},
		{
			"buffer":0,
			"byteLength":216738,
			"byteOffset":1233216,
			"target":34963
		},
		{
			"buffer":0,
			"byteLength":15084,
			"byteOffset":1449956,
			"target":34962
		},
		{
			"buffer":0,
			"byteLength":15084,
			"byteOffset":1465040,
			"target":34962
		},
		{
			"buffer":0,
			"byteLength":10056,
			"byteOffset":1480124,
			"target":34962
		},
		{
			"buffer":0,
			"byteLength":5028,
			"byteOffset":1490180,
			"target":34962
		},
		{
			"buffer":0,
			"byteLength":10056,
			"byteOffset":1495208,
			"target":34962
		},
		{
			"buffer":0,
			"byteLength":5028,
			"byteOffset":1505264,
			"target":34962
		},
		{
			"buffer":0,
			"byteLength":20112,
			"byteOffset":1510292,
			"target":34962
		},
		{
			"buffer":0,
			"byteLength":13644,
			"byteOffset":1530404,
			"target":34963
		},
		{
			"buffer":0,
			"byteLength":61560,
			"byteOffset":1544048,
			"target":34962
		},
		{
			"buffer":0,
			"byteLength":61560,
			"byteOffset":1605608,
			"target":34962
		},
		{
			"buffer":0,
			"byteLength":41040,
			"byteOffset":1667168,
			"target":34962
		},
		{
			"buffer":0,
			"byteLength":20520,
			"byteOffset":1708208,
			"target":34962
		},
		{
			"buffer":0,
			"byteLength":41040,
			"byteOffset":1728728,
			"target":34962
		},
		{
			"buffer":0,
			"byteLength":20520,
			"byteOffset":1769768,
			"target":34962
		},
		{
			"buffer":0,
			"byteLength":82080,
			"byteOffset":1790288,
			"target":34962
		},
		{
			"buffer":0,
			"byteLength":59904,
			"byteOffset":1872368,
			"target":34963
		},
		{
			"buffer":0,
			"byteLength":57900,
			"byteOffset":1932272,
			"target":34962
		},
		{
			"buffer":0,
			"byteLength":57900,
			"byteOffset":1990172,
			"target":34962
		},
		{
			"buffer":0,
			"byteLength":38600,
			"byteOffset":2048072,
			"target":34962
		},
		{
			"buffer":0,
			"byteLength":19300,
			"byteOffset":2086672,
			"target":34962
		},
		{
			"buffer":0,
			"byteLength":38600,
			"byteOffset":2105972,
			"target":34962
		},
		{
			"buffer":0,
			"byteLength":19300,
			"byteOffset":2144572,
			"target":34962
		},
		{
			"buffer":0,
			"byteLength":77200,
			"byteOffset":2163872,
			"target":34962
		},
		{
			"buffer":0,
			"byteLength":49722,
			"byteOffset":2241072,
			"target":34963
		},
		{
			"buffer":0,
			"byteLength":52428,
			"byteOffset":2290796,
			"target":34962
		},
		{
			"buffer":0,
			"byteLength":52428,
			"byteOffset":2343224,
			"target":34962
		},
		{
			"buffer":0,
			"byteLength":34952,
			"byteOffset":2395652,
			"target":34962
		},
		{
			"buffer":0,
			"byteLength":17476,
			"byteOffset":2430604,
			"target":34962
		},
		{
			"buffer":0,
			"byteLength":34952,
			"byteOffset":2448080,
			"target":34962
		},
		{
			"buffer":0,
			"byteLength":17476,
			"byteOffset":2483032,
			"target":34962
		},
		{
			"buffer":0,
			"byteLength":69904,
			"byteOffset":2500508,
			"target":34962
		},
		{
			"buffer":0,
			"byteLength":45036,
			"byteOffset":2570412,
			"target":34963
		},
		{
			"buffer":0,
			"byteLength":3968,
			"byteOffset":2615448
		}
	],
	"samplers":[
		{
			"magFilter":9729,
			"minFilter":9987
		}
	],
	"buffers":[
		{
			"byteLength":2619416,
			"uri":"Boss.bin"
		}
	]
}
