{
	"asset":{
		"generator":"Khronos glTF Blender I/O v5.0.21",
		"version":"2.0"
	},
	"extensionsUsed":[
		"KHR_materials_clearcoat",
		"KHR_materials_sheen"
	],
	"scene":0,
	"scenes":[
		{
			"name":"Scene",
			"nodes":[
				63
			]
		}
	],
	"nodes":[
		{
			"name":"head",
			"rotation":[
				-0.07805701345205307,
				0,
				0,
				0.9969488978385925
			],
			"scale":[
				1,
				0.9999999403953552,
				1
			],
			"translation":[
				0,
				0.16572707891464233,
				5.587935447692871e-09
			]
		},
		{
			"children":[
				0
			],
			"name":"neck_01",
			"rotation":[
				0.045906927436590195,
				0,
				0,
				0.9989457726478577
			],
			"translation":[
				0,
				0.08685708045959473,
				0
			]
		},
		{
			"name":"hand_end_l",
			"rotation":[
				0.8535536527633667,
				0.3535532057285309,
				0.3535531759262085,
				0.14644639194011688
			],
			"translation":[
				-3.7490487159175245e-08,
				0.08137795329093933,
				3.749049781731628e-08
			]
		},
		{
			"name":"index_03_l",
			"rotation":[
				-0.21850858628749847,
				4.2891170437542314e-07,
				-0.21850734949111938,
				0.9510565400123596
			],
			"scale":[
				0.9999999403953552,
				1,
				0.9999999403953552
			],
			"translation":[
				8.009374141693115e-08,
				0.03040003590285778,
				1.4901161193847656e-08
			]
		},
		{
			"children":[
				3
			],
			"name":"index_02_l",
			"rotation":[
				-0.5756652355194092,
				-2.873234734579455e-06,
				-0.5756678581237793,
				0.5807029008865356
			],
			"scale":[
				1,
				1,
				0.9999999403953552
			],
			"translation":[
				-1.3317912817001343e-07,
				0.04994286596775055,
				-4.377216100692749e-08
			]
		},
		{
			"children":[
				4
			],
			"name":"index_01_l",
			"rotation":[
				-0.4156254827976227,
				2.3944498934724834e-06,
				-0.41562819480895996,
				0.8090171217918396
			],
			"scale":[
				1,
				0.9999999403953552,
				1
			],
			"translation":[
				0.02149602770805359,
				0.10639998316764832,
				0.026102276518940926
			]
		},
		{
			"name":"middle_03_l",
			"rotation":[
				-0.21850669384002686,
				-9.851258937487728e-07,
				-0.21850857138633728,
				0.951056718826294
			],
			"scale":[
				1.0000001192092896,
				1,
				1
			],
			"translation":[
				-4.842877388000488e-08,
				0.0336570218205452,
				-2.60770320892334e-08
			]
		},
		{
			"children":[
				6
			],
			"name":"middle_02_l",
			"rotation":[
				-0.5756651759147644,
				-8.283202532766154e-07,
				-0.5756676197052002,
				0.5807033181190491
			],
			"translation":[
				-1.4435499906539917e-07,
				0.05428571626543999,
				-5.587935447692871e-09
			]
		},
		{
			"children":[
				7
			],
			"name":"middle_01_l",
			"rotation":[
				-0.41562601923942566,
				2.053702246485045e-06,
				-0.4156283736228943,
				0.809016764163971
			],
			"scale":[
				0.9999999403953552,
				1,
				1
			],
			"translation":[
				0.005374013911932707,
				0.11552008986473083,
				0.009980324655771255
			]
		},
		{
			"name":"ring_03_l",
			"rotation":[
				-0.21850895881652832,
				1.0575904525467195e-06,
				-0.2185067981481552,
				0.9510565996170044
			],
			"scale":[
				1.0000001192092896,
				0.9999999403953552,
				1.0000001192092896
			],
			"translation":[
				3.725290298461914e-09,
				0.031485799700021744,
				1.4901161193847656e-08
			]
		},
		{
			"children":[
				9
			],
			"name":"ring_02_l",
			"rotation":[
				-0.5756653547286987,
				-2.873234734579455e-06,
				-0.5756678581237793,
				0.5807030200958252
			],
			"scale":[
				1,
				1,
				1.0000001192092896
			],
			"translation":[
				1.4994293451309204e-07,
				0.04994283616542816,
				-2.7008354663848877e-08
			]
		},
		{
			"children":[
				10
			],
			"name":"ring_01_l",
			"rotation":[
				-0.4156254827976227,
				2.339193542866269e-06,
				-0.4156282842159271,
				0.8090170621871948
			],
			"scale":[
				1,
				1.0000001192092896,
				1
			],
			"translation":[
				-0.010748028755187988,
				0.10987439751625061,
				-0.006141659803688526
			]
		},
		{
			"name":"pinky_03_l",
			"rotation":[
				-0.2185102254152298,
				1.7646095784584759e-06,
				-0.21850623190402985,
				0.9510564208030701
			],
			"scale":[
				0.9999999403953552,
				1,
				1.0000001192092896
			],
			"translation":[
				3.91155481338501e-08,
				0.026057260110974312,
				-3.3527612686157227e-08
			]
		},
		{
			"children":[
				12
			],
			"name":"pinky_02_l",
			"rotation":[
				-0.5756704211235046,
				2.407294005024596e-06,
				-0.5756630897521973,
				0.5807026028633118
			],
			"scale":[
				0.9999998807907104,
				0.9999998807907104,
				0.9999998807907104
			],
			"translation":[
				-2.8405338525772095e-08,
				0.039085716009140015,
				-5.8673322200775146e-08
			]
		},
		{
			"children":[
				13
			],
			"name":"pinky_01_l",
			"rotation":[
				-0.4156300127506256,
				-4.3100089897052385e-06,
				-0.41562333703041077,
				0.8090173006057739
			],
			"scale":[
				1,
				1.0000001192092896,
				1
			],
			"translation":[
				-0.026102393865585327,
				0.10118862986564636,
				-0.02149602398276329
			]
		},
		{
			"name":"thumb_03_l",
			"rotation":[
				-0.08214081823825836,
				-0.047838032245635986,
				0.0490286760032177,
				0.9942638278007507
			],
			"scale":[
				1,
				0.9999999403953552,
				1
			],
			"translation":[
				3.725290298461914e-09,
				0.035828448832035065,
				7.35744833946228e-08
			]
		},
		{
			"children":[
				15
			],
			"name":"thumb_02_l",
			"rotation":[
				-0.17244631052017212,
				-0.09941254556179047,
				0.09663933515548706,
				0.9752129316329956
			],
			"scale":[
				1,
				1.0000001192092896,
				1
			],
			"translation":[
				5.587935447692871e-09,
				0.04777148738503456,
				8.242204785346985e-08
			]
		},
		{
			"children":[
				16
			],
			"name":"thumb_01_l",
			"rotation":[
				0.4651038646697998,
				0.28896164894104004,
				0.05645010247826576,
				0.8348610401153564
			],
			"translation":[
				0.01688973978161812,
				0.02822861075401306,
				0.029173213988542557
			]
		},
		{
			"children":[
				2,
				5,
				8,
				11,
				14,
				17
			],
			"name":"hand_l",
			"rotation":[
				0.021057065576314926,
				0.38258373737335205,
				0.008722477592527866,
				0.9236396551132202
			],
			"scale":[
				0.9999999403953552,
				0.9999998807907104,
				0.9999998807907104
			],
			"translation":[
				8.940696716308594e-08,
				0.28588733077049255,
				-5.59954838053045e-09
			]
		},
		{
			"children":[
				18
			],
			"name":"lowerarm_l",
			"rotation":[
				-0.04960014671087265,
				-1.1389632570413255e-09,
				-1.2779757696534944e-07,
				0.9987691640853882
			],
			"scale":[
				0.9999999403953552,
				0.9999998807907104,
				0.9999999403953552
			],
			"translation":[
				-3.0336209988490737e-08,
				0.36442166566848755,
				9.313225746154785e-10
			]
		},
		{
			"children":[
				19
			],
			"name":"upperarm_l",
			"rotation":[
				-0.24734115600585938,
				-0.6327881813049316,
				0.266425222158432,
				0.683680534362793
			],
			"scale":[
				1.0000001192092896,
				1.0000001192092896,
				1.0000001192092896
			],
			"translation":[
				9.313225746154785e-09,
				0.16094961762428284,
				-1.6618287190794945e-08
			]
		},
		{
			"children":[
				20
			],
			"name":"clavicle_l",
			"rotation":[
				-0.5298573970794678,
				-0.48937496542930603,
				-0.4893750250339508,
				0.4901788830757141
			],
			"scale":[
				1,
				1.0000001192092896,
				1
			],
			"translation":[
				0.056457143276929855,
				0.008685588836669922,
				0.013028571382164955
			]
		},
		{
			"name":"hand_end_r",
			"rotation":[
				0.8535536527633667,
				-0.3535532057285309,
				-0.3535531759262085,
				0.14644639194011688
			],
			"translation":[
				3.7490487159175245e-08,
				0.08137795329093933,
				3.749049781731628e-08
			]
		},
		{
			"name":"index_03_r",
			"rotation":[
				-0.21850858628749847,
				-4.2891170437542314e-07,
				0.21850734949111938,
				0.9510565400123596
			],
			"scale":[
				0.9999999403953552,
				1,
				0.9999999403953552
			],
			"translation":[
				-8.009374141693115e-08,
				0.03040003590285778,
				1.4901161193847656e-08
			]
		},
		{
			"children":[
				23
			],
			"name":"index_02_r",
			"rotation":[
				-0.5756652355194092,
				2.873234734579455e-06,
				0.5756678581237793,
				0.5807029008865356
			],
			"scale":[
				1,
				1,
				0.9999999403953552
			],
			"translation":[
				1.3317912817001343e-07,
				0.04994286596775055,
				-4.377216100692749e-08
			]
		},
		{
			"children":[
				24
			],
			"name":"index_01_r",
			"rotation":[
				-0.4156254827976227,
				-2.3944498934724834e-06,
				0.41562819480895996,
				0.8090171217918396
			],
			"scale":[
				1,
				0.9999999403953552,
				1
			],
			"translation":[
				-0.02149602770805359,
				0.10639998316764832,
				0.026102276518940926
			]
		},
		{
			"name":"middle_03_r",
			"rotation":[
				-0.21850669384002686,
				9.851258937487728e-07,
				0.21850857138633728,
				0.951056718826294
			],
			"scale":[
				1.0000001192092896,
				1,
				1
			],
			"translation":[
				4.842877388000488e-08,
				0.0336570218205452,
				-2.60770320892334e-08
			]
		},
		{
			"children":[
				26
			],
			"name":"middle_02_r",
			"rotation":[
				-0.5756651759147644,
				8.283202532766154e-07,
				0.5756676197052002,
				0.5807033181190491
			],
			"translation":[
				1.4435499906539917e-07,
				0.05428571626543999,
				-5.587935447692871e-09
			]
		},
		{
			"children":[
				27
			],
			"name":"middle_01_r",
			"rotation":[
				-0.41562601923942566,
				-2.053702246485045e-06,
				0.4156283736228943,
				0.809016764163971
			],
			"scale":[
				0.9999999403953552,
				1,
				1
			],
			"translation":[
				-0.005374013911932707,
				0.11552008986473083,
				0.009980324655771255
			]
		},
		{
			"name":"ring_03_r",
			"rotation":[
				-0.21850895881652832,
				-1.0575904525467195e-06,
				0.2185067981481552,
				0.9510565996170044
			],
			"scale":[
				1.0000001192092896,
				0.9999999403953552,
				1.0000001192092896
			],
			"translation":[
				-3.725290298461914e-09,
				0.031485799700021744,
				1.4901161193847656e-08
			]
		},
		{
			"children":[
				29
			],
			"name":"ring_02_r",
			"rotation":[
				-0.5756653547286987,
				2.873234734579455e-06,
				0.5756678581237793,
				0.5807030200958252
			],
			"scale":[
				1,
				1,
				1.0000001192092896
			],
			"translation":[
				-1.4994293451309204e-07,
				0.04994283616542816,
				-2.7008354663848877e-08
			]
		},
		{
			"children":[
				30
			],
			"name":"ring_01_r",
			"rotation":[
				-0.4156254827976227,
				-2.339193542866269e-06,
				0.4156282842159271,
				0.8090170621871948
			],
			"scale":[
				1,
				1.0000001192092896,
				1
			],
			"translation":[
				0.010748028755187988,
				0.10987439751625061,
				-0.006141659803688526
			]
		},
		{
			"name":"pinky_03_r",
			"rotation":[
				-0.2185102254152298,
				-1.7646095784584759e-06,
				0.21850623190402985,
				0.9510564208030701
			],
			"scale":[
				0.9999999403953552,
				1,
				1.0000001192092896
			],
			"translation":[
				-3.91155481338501e-08,
				0.026057260110974312,
				-3.3527612686157227e-08
			]
		},
		{
			"children":[
				32
			],
			"name":"pinky_02_r",
			"rotation":[
				-0.5756704211235046,
				-2.407294005024596e-06,
				0.5756630897521973,
				0.5807026028633118
			],
			"scale":[
				0.9999998807907104,
				0.9999998807907104,
				0.9999998807907104
			],
			"translation":[
				2.8405338525772095e-08,
				0.039085716009140015,
				-5.8673322200775146e-08
			]
		},
		{
			"children":[
				33
			],
			"name":"pinky_01_r",
			"rotation":[
				-0.4156300127506256,
				4.3100089897052385e-06,
				0.41562333703041077,
				0.8090173006057739
			],
			"scale":[
				1,
				1.0000001192092896,
				1
			],
			"translation":[
				0.026102393865585327,
				0.10118862986564636,
				-0.02149602398276329
			]
		},
		{
			"name":"thumb_03_r",
			"rotation":[
				-0.08214081823825836,
				0.047838032245635986,
				-0.0490286760032177,
				0.9942638278007507
			],
			"scale":[
				1,
				0.9999999403953552,
				1
			],
			"translation":[
				-3.725290298461914e-09,
				0.035828448832035065,
				7.35744833946228e-08
			]
		},
		{
			"children":[
				35
			],
			"name":"thumb_02_r",
			"rotation":[
				-0.17244631052017212,
				0.09941254556179047,
				-0.09663933515548706,
				0.9752129316329956
			],
			"scale":[
				1,
				1.0000001192092896,
				1
			],
			"translation":[
				-5.587935447692871e-09,
				0.04777148738503456,
				8.242204785346985e-08
			]
		},
		{
			"children":[
				36
			],
			"name":"thumb_01_r",
			"rotation":[
				0.4651038646697998,
				-0.28896164894104004,
				-0.05645010247826576,
				0.8348610401153564
			],
			"translation":[
				-0.01688973978161812,
				0.02822861075401306,
				0.029173213988542557
			]
		},
		{
			"children":[
				22,
				25,
				28,
				31,
				34,
				37
			],
			"name":"hand_r",
			"rotation":[
				0.021057065576314926,
				-0.38258373737335205,
				-0.008722477592527866,
				0.9236396551132202
			],
			"scale":[
				0.9999999403953552,
				0.9999998807907104,
				0.9999998807907104
			],
			"translation":[
				-8.940696716308594e-08,
				0.28588733077049255,
				-5.59954838053045e-09
			]
		},
		{
			"children":[
				38
			],
			"name":"lowerarm_r",
			"rotation":[
				-0.04960014671087265,
				1.1389632570413255e-09,
				1.2779757696534944e-07,
				0.9987691640853882
			],
			"scale":[
				0.9999999403953552,
				0.9999998807907104,
				0.9999999403953552
			],
			"translation":[
				3.0336209988490737e-08,
				0.36442166566848755,
				9.313225746154785e-10
			]
		},
		{
			"children":[
				39
			],
			"name":"upperarm_r",
			"rotation":[
				-0.24734115600585938,
				0.6327881813049316,
				-0.266425222158432,
				0.683680534362793
			],
			"scale":[
				1.0000001192092896,
				1.0000001192092896,
				1.0000001192092896
			],
			"translation":[
				-9.313225746154785e-09,
				0.16094961762428284,
				-1.6618287190794945e-08
			]
		},
		{
			"children":[
				40
			],
			"name":"clavicle_r",
			"rotation":[
				-0.5298573970794678,
				0.48937496542930603,
				0.4893750250339508,
				0.4901788830757141
			],
			"scale":[
				1,
				1.0000001192092896,
				1
			],
			"translation":[
				-0.056457143276929855,
				0.008685588836669922,
				0.013028571382164955
			]
		},
		{
			"children":[
				1,
				21,
				41
			],
			"name":"spine_03",
			"translation":[
				0,
				0.19108569622039795,
				0
			]
		},
		{
			"children":[
				42
			],
			"name":"spine_02",
			"translation":[
				0,
				0.16937148571014404,
				0
			]
		},
		{
			"children":[
				43
			],
			"name":"spine_01",
			"translation":[
				0,
				0.16937148571014404,
				0
			]
		},
		{
			"name":"ball_l",
			"rotation":[
				-0.8003542423248291,
				-3.471955833944662e-09,
				-5.144702441839399e-09,
				0.5995274186134338
			],
			"scale":[
				1,
				0.9999999403953552,
				1
			],
			"translation":[
				9.99074267760136e-10,
				0.17648945748806,
				7.896039377897068e-10
			]
		},
		{
			"children":[
				45
			],
			"name":"foot_l",
			"rotation":[
				0.005474057514220476,
				-0.7921457886695862,
				-0.6102943420410156,
				0.003986030351370573
			],
			"scale":[
				0.9999999403953552,
				1.000000238418579,
				1.0000001192092896
			],
			"translation":[
				1.5133991837501526e-08,
				0.48119214177131653,
				-1.0295480024069548e-09
			]
		},
		{
			"children":[
				46
			],
			"name":"calf_l",
			"rotation":[
				-0.027199488133192062,
				-3.4911585089503205e-07,
				-0.002215898595750332,
				0.9996275901794434
			],
			"scale":[
				0.9999998807907104,
				0.9999998211860657,
				0.9999998807907104
			],
			"translation":[
				-9.94496840434067e-09,
				0.47682636976242065,
				8.185452315956354e-11
			]
		},
		{
			"children":[
				47
			],
			"name":"thigh_l",
			"rotation":[
				6.218897760845721e-05,
				0.013662895187735558,
				0.9998962879180908,
				0.0045552439987659454
			],
			"scale":[
				0.9999999403953552,
				0.9999996423721313,
				1.000000238418579
			],
			"translation":[
				0.0998857170343399,
				1.1920928955078125e-07,
				0
			]
		},
		{
			"name":"ball_r",
			"rotation":[
				-0.8003542423248291,
				3.471955833944662e-09,
				5.144702441839399e-09,
				0.5995274186134338
			],
			"scale":[
				1,
				0.9999999403953552,
				1
			],
			"translation":[
				-9.99074267760136e-10,
				0.17648945748806,
				7.896039377897068e-10
			]
		},
		{
			"children":[
				49
			],
			"name":"foot_r",
			"rotation":[
				0.005474057514220476,
				0.7921457886695862,
				0.6102943420410156,
				0.003986030351370573
			],
			"scale":[
				0.9999999403953552,
				1.000000238418579,
				1.0000001192092896
			],
			"translation":[
				-1.5133991837501526e-08,
				0.48119214177131653,
				-1.0295480024069548e-09
			]
		},
		{
			"children":[
				50
			],
			"name":"calf_r",
			"rotation":[
				-0.027199488133192062,
				3.4911585089503205e-07,
				0.002215898595750332,
				0.9996275901794434
			],
			"scale":[
				0.9999998807907104,
				0.9999998211860657,
				0.9999998807907104
			],
			"translation":[
				9.94496840434067e-09,
				0.47682636976242065,
				8.185452315956354e-11
			]
		},
		{
			"children":[
				51
			],
			"name":"thigh_r",
			"rotation":[
				6.218897760845721e-05,
				-0.013662895187735558,
				-0.9998962879180908,
				0.0045552439987659454
			],
			"scale":[
				0.9999999403953552,
				0.9999996423721313,
				1.000000238418579
			],
			"translation":[
				-0.0998857170343399,
				1.1920928955078125e-07,
				0
			]
		},
		{
			"children":[
				44,
				48,
				52
			],
			"name":"pelvis",
			"translation":[
				0,
				1.0335999727249146,
				0
			]
		},
		{
			"name":"ik_foot_l",
			"rotation":[
				0.8003541827201843,
				0,
				0,
				0.5995274782180786
			],
			"translation":[
				0.08902857452630997,
				0.07599999755620956,
				0
			]
		},
		{
			"name":"ik_foot_r",
			"rotation":[
				0.8003541827201843,
				0,
				0,
				0.5995274782180786
			],
			"translation":[
				-0.08902857452630997,
				0.07599999755620956,
				0
			]
		},
		{
			"children":[
				54,
				55
			],
			"name":"ik_foot_root"
		},
		{
			"name":"ik_hand_l",
			"rotation":[
				1.7881365010907757e-07,
				0.4999999403953552,
				-0.7071062326431274,
				0.5000007748603821
			],
			"scale":[
				1,
				1,
				0.9999998807907104
			],
			"translation":[
				0.6764011979103088,
				-0.9565730690956116,
				-0.6764005422592163
			]
		},
		{
			"name":"ik_hand_r",
			"rotation":[
				1.6978061978534242e-07,
				1.862645149230957e-08,
				1.7294610188400839e-07,
				1
			],
			"scale":[
				1,
				0.9999999403953552,
				0.9999998807907104
			],
			"translation":[
				9.313069204708313e-10,
				2.9802322387695312e-08,
				9.313076976269485e-10
			]
		},
		{
			"children":[
				57,
				58
			],
			"name":"ik_hand_gun",
			"rotation":[
				-0.8535537123680115,
				0.3535529673099518,
				0.35355326533317566,
				0.1464463472366333
			],
			"scale":[
				0.9999998211860657,
				0.9999998211860657,
				0.9999999403953552
			],
			"translation":[
				-0.6764000058174133,
				1.1063429117202759,
				0
			]
		},
		{
			"children":[
				59
			],
			"name":"ik_hand_root"
		},
		{
			"children":[
				53,
				56,
				60
			],
			"name":"root"
		},
		{
			"mesh":0,
			"name":"Saqr",
			"skin":0
		},
		{
			"children":[
				62,
				61
			],
			"name":"Saud_Rig"
		}
	],
	"materials":[
		{
			"doubleSided":true,
			"name":"Saqr_Skin",
			"normalTexture":{
				"index":0
			},
			"pbrMetallicRoughness":{
				"baseColorTexture":{
					"index":1
				},
				"metallicFactor":0,
				"metallicRoughnessTexture":{
					"index":2
				}
			}
		},
		{
			"doubleSided":true,
			"name":"Saqr_Hair",
			"normalTexture":{
				"index":3
			},
			"pbrMetallicRoughness":{
				"baseColorTexture":{
					"index":4
				},
				"metallicFactor":0,
				"metallicRoughnessTexture":{
					"index":5
				}
			}
		},
		{
			"doubleSided":true,
			"extensions":{
				"KHR_materials_clearcoat":{
					"clearcoatFactor":0.20000000298023224,
					"clearcoatRoughnessFactor":0.05999999865889549
				}
			},
			"name":"Saqr_Shoe",
			"normalTexture":{
				"index":6
			},
			"pbrMetallicRoughness":{
				"baseColorTexture":{
					"index":7
				},
				"metallicFactor":0,
				"metallicRoughnessTexture":{
					"index":8
				}
			}
		},
		{
			"doubleSided":true,
			"extensions":{
				"KHR_materials_clearcoat":{
					"clearcoatFactor":1,
					"clearcoatRoughnessFactor":0.05999999865889549
				}
			},
			"name":"Saqr_Eye",
			"pbrMetallicRoughness":{
				"baseColorTexture":{
					"index":9
				},
				"metallicFactor":0,
				"metallicRoughnessTexture":{
					"index":10
				}
			}
		},
		{
			"doubleSided":true,
			"extensions":{
				"KHR_materials_sheen":{
					"sheenColorFactor":[
						1.0,
						1.0,
						1.0
					],
					"sheenRoughnessFactor":0.5
				}
			},
			"name":"Saqr_Tee",
			"normalTexture":{
				"index":11
			},
			"pbrMetallicRoughness":{
				"baseColorTexture":{
					"index":12
				},
				"metallicFactor":0,
				"metallicRoughnessTexture":{
					"index":13
				}
			}
		},
		{
			"doubleSided":true,
			"extensions":{
				"KHR_materials_sheen":{
					"sheenColorFactor":[
						1.0,
						1.0,
						1.0
					],
					"sheenRoughnessFactor":0.5
				}
			},
			"name":"Saqr_Pants",
			"normalTexture":{
				"index":14
			},
			"pbrMetallicRoughness":{
				"baseColorTexture":{
					"index":15
				},
				"metallicFactor":0,
				"metallicRoughnessTexture":{
					"index":16
				}
			}
		}
	],
	"meshes":[
		{
			"name":"Saqr",
			"primitives":[
				{
					"attributes":{
						"POSITION":0,
						"NORMAL":1,
						"TEXCOORD_0":2,
						"COLOR_0":3,
						"COLOR_1":4,
						"JOINTS_0":5,
						"WEIGHTS_0":6
					},
					"indices":7,
					"material":0
				},
				{
					"attributes":{
						"POSITION":8,
						"NORMAL":9,
						"TEXCOORD_0":10,
						"COLOR_0":11,
						"COLOR_1":12,
						"JOINTS_0":13,
						"WEIGHTS_0":14
					},
					"indices":15,
					"material":1
				},
				{
					"attributes":{
						"POSITION":16,
						"NORMAL":17,
						"TEXCOORD_0":18,
						"COLOR_0":19,
						"COLOR_1":20,
						"JOINTS_0":21,
						"WEIGHTS_0":22
					},
					"indices":23,
					"material":2
				},
				{
					"attributes":{
						"POSITION":24,
						"NORMAL":25,
						"TEXCOORD_0":26,
						"COLOR_0":27,
						"COLOR_1":28,
						"JOINTS_0":29,
						"WEIGHTS_0":30
					},
					"indices":31,
					"material":3
				},
				{
					"attributes":{
						"POSITION":32,
						"NORMAL":33,
						"TEXCOORD_0":34,
						"COLOR_0":35,
						"COLOR_1":36,
						"JOINTS_0":37,
						"WEIGHTS_0":38
					},
					"indices":39,
					"material":4
				},
				{
					"attributes":{
						"POSITION":40,
						"NORMAL":41,
						"TEXCOORD_0":42,
						"COLOR_0":43,
						"COLOR_1":44,
						"JOINTS_0":45,
						"WEIGHTS_0":46
					},
					"indices":47,
					"material":5
				}
			]
		}
	],
	"textures":[
		{
			"sampler":0,
			"source":0
		},
		{
			"sampler":0,
			"source":1
		},
		{
			"sampler":0,
			"source":2
		},
		{
			"sampler":0,
			"source":3
		},
		{
			"sampler":0,
			"source":4
		},
		{
			"sampler":0,
			"source":5
		},
		{
			"sampler":0,
			"source":6
		},
		{
			"sampler":0,
			"source":7
		},
		{
			"sampler":0,
			"source":8
		},
		{
			"sampler":0,
			"source":9
		},
		{
			"sampler":0,
			"source":10
		},
		{
			"sampler":0,
			"source":11
		},
		{
			"sampler":0,
			"source":12
		},
		{
			"sampler":0,
			"source":13
		},
		{
			"sampler":0,
			"source":14
		},
		{
			"sampler":0,
			"source":15
		},
		{
			"sampler":0,
			"source":16
		}
	],
	"images":[
		{
			"mimeType":"image/png",
			"name":"Saqr_Skin_normal",
			"uri":"../Textures/Saqr/T_Saqr_Skin_Normal.png"
		},
		{
			"mimeType":"image/png",
			"name":"Saqr_Skin_albedo",
			"uri":"../Textures/Saqr/T_Saqr_Skin_BaseColor.png"
		},
		{
			"mimeType":"image/png",
			"name":"Saqr_Skin_roughness",
			"uri":"../Textures/Saqr/T_Saqr_Skin_Roughness.png"
		},
		{
			"mimeType":"image/png",
			"name":"Saqr_Hair_normal",
			"uri":"../Textures/Saqr/T_Saqr_Hair_Normal.png"
		},
		{
			"mimeType":"image/png",
			"name":"Saqr_Hair_albedo",
			"uri":"../Textures/Saqr/T_Saqr_Hair_BaseColor.png"
		},
		{
			"mimeType":"image/png",
			"name":"Saqr_Hair_roughness",
			"uri":"../Textures/Saqr/T_Saqr_Hair_Roughness.png"
		},
		{
			"mimeType":"image/png",
			"name":"Saqr_Shoe_normal",
			"uri":"../Textures/Saqr/T_Saqr_Shoe_Normal.png"
		},
		{
			"mimeType":"image/png",
			"name":"Saqr_Shoe_albedo",
			"uri":"../Textures/Saqr/T_Saqr_Shoe_BaseColor.png"
		},
		{
			"mimeType":"image/png",
			"name":"Saqr_Shoe_roughness",
			"uri":"../Textures/Saqr/T_Saqr_Shoe_Roughness.png"
		},
		{
			"mimeType":"image/png",
			"name":"Saqr_Eye_albedo",
			"uri":"../Textures/Saqr/T_Saqr_Eye_BaseColor.png"
		},
		{
			"mimeType":"image/png",
			"name":"Saqr_Eye_roughness",
			"uri":"../Textures/Saqr/T_Saqr_Eye_Roughness.png"
		},
		{
			"mimeType":"image/png",
			"name":"Saqr_Tee_normal",
			"uri":"../Textures/Saqr/T_Saqr_Tee_Normal.png"
		},
		{
			"mimeType":"image/png",
			"name":"Saqr_Tee_albedo",
			"uri":"../Textures/Saqr/T_Saqr_Tee_BaseColor.png"
		},
		{
			"mimeType":"image/png",
			"name":"Saqr_Tee_roughness",
			"uri":"../Textures/Saqr/T_Saqr_Tee_Roughness.png"
		},
		{
			"mimeType":"image/png",
			"name":"Saqr_Pants_normal",
			"uri":"../Textures/Saqr/T_Saqr_Pants_Normal.png"
		},
		{
			"mimeType":"image/png",
			"name":"Saqr_Pants_albedo",
			"uri":"../Textures/Saqr/T_Saqr_Pants_BaseColor.png"
		},
		{
			"mimeType":"image/png",
			"name":"Saqr_Pants_roughness",
			"uri":"../Textures/Saqr/T_Saqr_Pants_Roughness.png"
		}
	],
	"skins":[
		{
			"inverseBindMatrices":48,
			"joints":[
				61,
				53,
				44,
				43,
				42,
				1,
				0,
				21,
				20,
				19,
				18,
				2,
				5,
				4,
				3,
				8,
				7,
				6,
				11,
				10,
				9,
				14,
				13,
				12,
				17,
				16,
				15,
				41,
				40,
				39,
				38,
				22,
				25,
				24,
				23,
				28,
				27,
				26,
				31,
				30,
				29,
				34,
				33,
				32,
				37,
				36,
				35,
				48,
				47,
				46,
				45,
				52,
				51,
				50,
				49,
				56,
				54,
				55,
				60,
				59,
				57,
				58
			],
			"name":"Saud_Rig"
		}
	],
	"accessors":[
		{
			"bufferView":0,
			"componentType":5126,
			"count":18421,
			"max":[
				0.8184505105018616,
				1.9180923700332642,
				0.14435775578022003
			],
			"min":[
				-0.8184382319450378,
				0.07896009832620621,
				-0.13120277225971222
			],
			"type":"VEC3"
		},
		{
			"bufferView":1,
			"componentType":5126,
			"count":18421,
			"type":"VEC3"
		},
		{
			"bufferView":2,
			"componentType":5126,
			"count":18421,
			"type":"VEC2"
		},
		{
			"bufferView":3,
			"componentType":5121,
			"count":18421,
			"normalized":true,
			"type":"VEC4"
		},
		{
			"bufferView":4,
			"componentType":5123,
			"count":18421,
			"normalized":true,
			"type":"VEC4"
		},
		{
			"bufferView":5,
			"componentType":5121,
			"count":18421,
			"type":"VEC4"
		},
		{
			"bufferView":6,
			"componentType":5126,
			"count":18421,
			"type":"VEC4"
		},
		{
			"bufferView":7,
			"componentType":5123,
			"count":103470,
			"type":"SCALAR"
		},
		{
			"bufferView":8,
			"componentType":5126,
			"count":948,
			"max":[
				0.08485623449087143,
				1.9541852474212646,
				0.08911685645580292
			],
			"min":[
				-0.08511900901794434,
				1.8595256805419922,
				-0.11810046434402466
			],
			"type":"VEC3"
		},
		{
			"bufferView":9,
			"componentType":5126,
			"count":948,
			"type":"VEC3"
		},
		{
			"bufferView":10,
			"componentType":5126,
			"count":948,
			"type":"VEC2"
		},
		{
			"bufferView":11,
			"componentType":5121,
			"count":948,
			"normalized":true,
			"type":"VEC4"
		},
		{
			"bufferView":12,
			"componentType":5123,
			"count":948,
			"normalized":true,
			"type":"VEC4"
		},
		{
			"bufferView":13,
			"componentType":5121,
			"count":948,
			"type":"VEC4"
		},
		{
			"bufferView":14,
			"componentType":5126,
			"count":948,
			"type":"VEC4"
		},
		{
			"bufferView":15,
			"componentType":5123,
			"count":5136,
			"type":"SCALAR"
		},
		{
			"bufferView":16,
			"componentType":5126,
			"count":1083,
			"max":[
				0.14222857356071472,
				0.16700847446918488,
				0.23885713517665863
			],
			"min":[
				-0.14222857356071472,
				0,
				-0.0868571475148201
			],
			"type":"VEC3"
		},
		{
			"bufferView":17,
			"componentType":5126,
			"count":1083,
			"type":"VEC3"
		},
		{
			"bufferView":18,
			"componentType":5126,
			"count":1083,
			"type":"VEC2"
		},
		{
			"bufferView":19,
			"componentType":5121,
			"count":1083,
			"normalized":true,
			"type":"VEC4"
		},
		{
			"bufferView":20,
			"componentType":5123,
			"count":1083,
			"normalized":true,
			"type":"VEC4"
		},
		{
			"bufferView":21,
			"componentType":5121,
			"count":1083,
			"type":"VEC4"
		},
		{
			"bufferView":22,
			"componentType":5126,
			"count":1083,
			"type":"VEC4"
		},
		{
			"bufferView":23,
			"componentType":5123,
			"count":5850,
			"type":"SCALAR"
		},
		{
			"bufferView":24,
			"componentType":5126,
			"count":5130,
			"max":[
				0.04668571054935455,
				1.8337714672088623,
				0.10294441133737564
			],
			"min":[
				-0.04668571054935455,
				1.8077143430709839,
				0.07688727974891663
			],
			"type":"VEC3"
		},
		{
			"bufferView":25,
			"componentType":5126,
			"count":5130,
			"type":"VEC3"
		},
		{
			"bufferView":26,
			"componentType":5126,
			"count":5130,
			"type":"VEC2"
		},
		{
			"bufferView":27,
			"componentType":5121,
			"count":5130,
			"normalized":true,
			"type":"VEC4"
		},
		{
			"bufferView":28,
			"componentType":5123,
			"count":5130,
			"normalized":true,
			"type":"VEC4"
		},
		{
			"bufferView":29,
			"componentType":5121,
			"count":5130,
			"type":"VEC4"
		},
		{
			"bufferView":30,
			"componentType":5126,
			"count":5130,
			"type":"VEC4"
		},
		{
			"bufferView":31,
			"componentType":5123,
			"count":29952,
			"type":"SCALAR"
		},
		{
			"bufferView":32,
			"componentType":5126,
			"count":4800,
			"max":[
				0.36787137389183044,
				1.6795568466186523,
				0.12632684409618378
			],
			"min":[
				-0.3674267828464508,
				1.1500297784805298,
				-0.13890153169631958
			],
			"type":"VEC3"
		},
		{
			"bufferView":33,
			"componentType":5126,
			"count":4800,
			"type":"VEC3"
		},
		{
			"bufferView":34,
			"componentType":5126,
			"count":4800,
			"type":"VEC2"
		},
		{
			"bufferView":35,
			"componentType":5121,
			"count":4800,
			"normalized":true,
			"type":"VEC4"
		},
		{
			"bufferView":36,
			"componentType":5123,
			"count":4800,
			"normalized":true,
			"type":"VEC4"
		},
		{
			"bufferView":37,
			"componentType":5121,
			"count":4800,
			"type":"VEC4"
		},
		{
			"bufferView":38,
			"componentType":5126,
			"count":4800,
			"type":"VEC4"
		},
		{
			"bufferView":39,
			"componentType":5123,
			"count":24915,
			"type":"SCALAR"
		},
		{
			"bufferView":40,
			"componentType":5126,
			"count":4430,
			"max":[
				0.2039615958929062,
				1.1712716817855835,
				0.12245304882526398
			],
			"min":[
				-0.20363251864910126,
				0.12467832863330841,
				-0.16920973360538483
			],
			"type":"VEC3"
		},
		{
			"bufferView":41,
			"componentType":5126,
			"count":4430,
			"type":"VEC3"
		},
		{
			"bufferView":42,
			"componentType":5126,
			"count":4430,
			"type":"VEC2"
		},
		{
			"bufferView":43,
			"componentType":5121,
			"count":4430,
			"normalized":true,
			"type":"VEC4"
		},
		{
			"bufferView":44,
			"componentType":5123,
			"count":4430,
			"normalized":true,
			"type":"VEC4"
		},
		{
			"bufferView":45,
			"componentType":5121,
			"count":4430,
			"type":"VEC4"
		},
		{
			"bufferView":46,
			"componentType":5126,
			"count":4430,
			"type":"VEC4"
		},
		{
			"bufferView":47,
			"componentType":5123,
			"count":22668,
			"type":"SCALAR"
		},
		{
			"bufferView":48,
			"componentType":5126,
			"count":62,
			"type":"MAT4"
		}
	],
	"bufferViews":[
		{
			"buffer":0,
			"byteLength":221052,
			"byteOffset":0,
			"target":34962
		},
		{
			"buffer":0,
			"byteLength":221052,
			"byteOffset":221052,
			"target":34962
		},
		{
			"buffer":0,
			"byteLength":147368,
			"byteOffset":442104,
			"target":34962
		},
		{
			"buffer":0,
			"byteLength":73684,
			"byteOffset":589472,
			"target":34962
		},
		{
			"buffer":0,
			"byteLength":147368,
			"byteOffset":663156,
			"target":34962
		},
		{
			"buffer":0,
			"byteLength":73684,
			"byteOffset":810524,
			"target":34962
		},
		{
			"buffer":0,
			"byteLength":294736,
			"byteOffset":884208,
			"target":34962
		},
		{
			"buffer":0,
			"byteLength":206940,
			"byteOffset":1178944,
			"target":34963
		},
		{
			"buffer":0,
			"byteLength":11376,
			"byteOffset":1385884,
			"target":34962
		},
		{
			"buffer":0,
			"byteLength":11376,
			"byteOffset":1397260,
			"target":34962
		},
		{
			"buffer":0,
			"byteLength":7584,
			"byteOffset":1408636,
			"target":34962
		},
		{
			"buffer":0,
			"byteLength":3792,
			"byteOffset":1416220,
			"target":34962
		},
		{
			"buffer":0,
			"byteLength":7584,
			"byteOffset":1420012,
			"target":34962
		},
		{
			"buffer":0,
			"byteLength":3792,
			"byteOffset":1427596,
			"target":34962
		},
		{
			"buffer":0,
			"byteLength":15168,
			"byteOffset":1431388,
			"target":34962
		},
		{
			"buffer":0,
			"byteLength":10272,
			"byteOffset":1446556,
			"target":34963
		},
		{
			"buffer":0,
			"byteLength":12996,
			"byteOffset":1456828,
			"target":34962
		},
		{
			"buffer":0,
			"byteLength":12996,
			"byteOffset":1469824,
			"target":34962
		},
		{
			"buffer":0,
			"byteLength":8664,
			"byteOffset":1482820,
			"target":34962
		},
		{
			"buffer":0,
			"byteLength":4332,
			"byteOffset":1491484,
			"target":34962
		},
		{
			"buffer":0,
			"byteLength":8664,
			"byteOffset":1495816,
			"target":34962
		},
		{
			"buffer":0,
			"byteLength":4332,
			"byteOffset":1504480,
			"target":34962
		},
		{
			"buffer":0,
			"byteLength":17328,
			"byteOffset":1508812,
			"target":34962
		},
		{
			"buffer":0,
			"byteLength":11700,
			"byteOffset":1526140,
			"target":34963
		},
		{
			"buffer":0,
			"byteLength":61560,
			"byteOffset":1537840,
			"target":34962
		},
		{
			"buffer":0,
			"byteLength":61560,
			"byteOffset":1599400,
			"target":34962
		},
		{
			"buffer":0,
			"byteLength":41040,
			"byteOffset":1660960,
			"target":34962
		},
		{
			"buffer":0,
			"byteLength":20520,
			"byteOffset":1702000,
			"target":34962
		},
		{
			"buffer":0,
			"byteLength":41040,
			"byteOffset":1722520,
			"target":34962
		},
		{
			"buffer":0,
			"byteLength":20520,
			"byteOffset":1763560,
			"target":34962
		},
		{
			"buffer":0,
			"byteLength":82080,
			"byteOffset":1784080,
			"target":34962
		},
		{
			"buffer":0,
			"byteLength":59904,
			"byteOffset":1866160,
			"target":34963
		},
		{
			"buffer":0,
			"byteLength":57600,
			"byteOffset":1926064,
			"target":34962
		},
		{
			"buffer":0,
			"byteLength":57600,
			"byteOffset":1983664,
			"target":34962
		},
		{
			"buffer":0,
			"byteLength":38400,
			"byteOffset":2041264,
			"target":34962
		},
		{
			"buffer":0,
			"byteLength":19200,
			"byteOffset":2079664,
			"target":34962
		},
		{
			"buffer":0,
			"byteLength":38400,
			"byteOffset":2098864,
			"target":34962
		},
		{
			"buffer":0,
			"byteLength":19200,
			"byteOffset":2137264,
			"target":34962
		},
		{
			"buffer":0,
			"byteLength":76800,
			"byteOffset":2156464,
			"target":34962
		},
		{
			"buffer":0,
			"byteLength":49830,
			"byteOffset":2233264,
			"target":34963
		},
		{
			"buffer":0,
			"byteLength":53160,
			"byteOffset":2283096,
			"target":34962
		},
		{
			"buffer":0,
			"byteLength":53160,
			"byteOffset":2336256,
			"target":34962
		},
		{
			"buffer":0,
			"byteLength":35440,
			"byteOffset":2389416,
			"target":34962
		},
		{
			"buffer":0,
			"byteLength":17720,
			"byteOffset":2424856,
			"target":34962
		},
		{
			"buffer":0,
			"byteLength":35440,
			"byteOffset":2442576,
			"target":34962
		},
		{
			"buffer":0,
			"byteLength":17720,
			"byteOffset":2478016,
			"target":34962
		},
		{
			"buffer":0,
			"byteLength":70880,
			"byteOffset":2495736,
			"target":34962
		},
		{
			"buffer":0,
			"byteLength":45336,
			"byteOffset":2566616,
			"target":34963
		},
		{
			"buffer":0,
			"byteLength":3968,
			"byteOffset":2611952
		}
	],
	"samplers":[
		{
			"magFilter":9729,
			"minFilter":9987
		}
	],
	"buffers":[
		{
			"byteLength":2615920,
			"uri":"Saqr.bin"
		}
	]
}
