{
	"asset":{
		"generator":"Khronos glTF Blender I/O v5.0.21",
		"version":"2.0"
	},
	"extensionsUsed":[
		"KHR_materials_clearcoat",
		"KHR_materials_sheen"
	],
	"scene":0,
	"scenes":[
		{
			"name":"Scene",
			"nodes":[
				63
			]
		}
	],
	"nodes":[
		{
			"name":"head",
			"rotation":[
				-0.07805697619915009,
				0,
				0,
				0.9969488978385925
			],
			"scale":[
				1,
				1,
				0.9999999403953552
			],
			"translation":[
				0,
				0.15264347195625305,
				1.862645149230957e-09
			]
		},
		{
			"children":[
				0
			],
			"name":"neck_01",
			"rotation":[
				0.045906901359558105,
				0,
				0,
				0.9989457726478577
			],
			"translation":[
				0,
				0.08000004291534424,
				0
			]
		},
		{
			"name":"hand_end_l",
			"rotation":[
				0.8535535931587219,
				0.3535531461238861,
				0.35355326533317566,
				0.14644640684127808
			],
			"scale":[
				0.9999997615814209,
				0.9999997615814209,
				0.9999997615814209
			],
			"translation":[
				-6.05268510867063e-08,
				0.0749533474445343,
				9.222088648286331e-10
			]
		},
		{
			"name":"index_03_l",
			"rotation":[
				-0.21850846707820892,
				4.876667389908107e-07,
				-0.21850712597370148,
				0.9510565996170044
			],
			"scale":[
				1,
				0.9999998807907104,
				1
			],
			"translation":[
				5.774199962615967e-08,
				0.027999961748719215,
				2.7939677238464355e-08
			]
		},
		{
			"children":[
				3
			],
			"name":"index_02_l",
			"rotation":[
				-0.5756665468215942,
				-1.216597638631356e-06,
				-0.5756665468215942,
				0.58070307970047
			],
			"translation":[
				-3.073364496231079e-08,
				0.04600002244114876,
				5.21540641784668e-08
			]
		},
		{
			"children":[
				4
			],
			"name":"index_01_l",
			"rotation":[
				-0.41562676429748535,
				6.262408760449034e-07,
				-0.4156270921230316,
				0.80901700258255
			],
			"scale":[
				1,
				0.9999998807907104,
				0.9999998807907104
			],
			"translation":[
				0.019798973575234413,
				0.09799998998641968,
				0.02404164709150791
			]
		},
		{
			"name":"middle_03_l",
			"rotation":[
				-0.21850761771202087,
				-5.875503461538756e-07,
				-0.21850858628749847,
				0.9510564208030701
			],
			"scale":[
				1.0000001192092896,
				1,
				0.9999999403953552
			],
			"translation":[
				6.146728992462158e-08,
				0.03100000135600567,
				-2.9802322387695312e-08
			]
		},
		{
			"children":[
				6
			],
			"name":"middle_02_l",
			"rotation":[
				-0.5756666660308838,
				0,
				-0.575666606426239,
				0.5807029604911804
			],
			"scale":[
				1,
				1,
				1.0000001192092896
			],
			"translation":[
				-1.5832483768463135e-08,
				0.05000000819563866,
				-4.377216100692749e-08
			]
		},
		{
			"children":[
				7
			],
			"name":"middle_01_l",
			"rotation":[
				-0.4156268835067749,
				4.236334802953934e-07,
				-0.4156269431114197,
				0.8090170621871948
			],
			"scale":[
				0.9999999403953552,
				0.9999998211860657,
				0.9999999403953552
			],
			"translation":[
				0.00494975782930851,
				0.10639998316764832,
				0.009192429482936859
			]
		},
		{
			"name":"ring_03_l",
			"rotation":[
				-0.21850812435150146,
				-7.246454458709195e-08,
				-0.21850813925266266,
				0.9510564804077148
			],
			"scale":[
				0.9999999403953552,
				1,
				1
			],
			"translation":[
				1.30385160446167e-08,
				0.029000014066696167,
				-1.862645149230957e-08
			]
		},
		{
			"children":[
				9
			],
			"name":"ring_02_l",
			"rotation":[
				-0.5756664276123047,
				-1.8119534672678128e-07,
				-0.5756667256355286,
				0.5807031393051147
			],
			"translation":[
				-2.3283064365386963e-08,
				0.04600001126527786,
				-3.5390257835388184e-08
			]
		},
		{
			"children":[
				10
			],
			"name":"ring_01_l",
			"rotation":[
				-0.41562673449516296,
				6.446596216846956e-07,
				-0.41562703251838684,
				0.8090170621871948
			],
			"scale":[
				0.9999999403953552,
				0.9999998807907104,
				0.9999999403953552
			],
			"translation":[
				-0.009899517521262169,
				0.10119998455047607,
				-0.005656815599650145
			]
		},
		{
			"name":"pinky_03_l",
			"rotation":[
				-0.21850867569446564,
				5.855917493136076e-07,
				-0.21850711107254028,
				0.9510565400123596
			],
			"scale":[
				1,
				1.0000001192092896,
				0.9999999403953552
			],
			"translation":[
				4.284083843231201e-08,
				0.023999998345971107,
				3.725290298461914e-08
			]
		},
		{
			"children":[
				12
			],
			"name":"pinky_02_l",
			"rotation":[
				-0.575668454170227,
				1.1389387282179086e-06,
				-0.575664758682251,
				0.5807029008865356
			],
			"translation":[
				5.4016709327697754e-08,
				0.03599999099969864,
				1.1175870895385742e-08
			]
		},
		{
			"children":[
				13
			],
			"name":"pinky_01_l",
			"rotation":[
				-0.41562849283218384,
				-1.8879316030506743e-06,
				-0.4156251549720764,
				0.8090171217918396
			],
			"scale":[
				1,
				0.9999998807907104,
				0.9999999403953552
			],
			"translation":[
				-0.024041732773184776,
				0.09320005774497986,
				-0.01979903131723404
			]
		},
		{
			"name":"thumb_03_l",
			"rotation":[
				-0.08214154839515686,
				-0.047838423401117325,
				0.0490289106965065,
				0.994263768196106
			],
			"scale":[
				1,
				0.9999998807907104,
				0.9999999403953552
			],
			"translation":[
				-4.470348358154297e-08,
				0.03299999237060547,
				-5.4016709327697754e-08
			]
		},
		{
			"children":[
				15
			],
			"name":"thumb_02_l",
			"rotation":[
				-0.1724458485841751,
				-0.09941214323043823,
				0.09663888812065125,
				0.9752131104469299
			],
			"scale":[
				1,
				0.9999998807907104,
				1
			],
			"translation":[
				-9.313225746154785e-09,
				0.04399998486042023,
				5.634501576423645e-08
			]
		},
		{
			"children":[
				16
			],
			"name":"thumb_01_l",
			"rotation":[
				0.46510398387908936,
				0.2889614999294281,
				0.05645017698407173,
				0.8348610401153564
			],
			"scale":[
				0.9999999403953552,
				0.9999999403953552,
				1
			],
			"translation":[
				0.015556292608380318,
				0.026000022888183594,
				0.026870032772421837
			]
		},
		{
			"children":[
				2,
				5,
				8,
				11,
				14,
				17
			],
			"name":"hand_l",
			"rotation":[
				0.021057045087218285,
				0.38258376717567444,
				0.008722467347979546,
				0.9236396551132202
			],
			"scale":[
				1,
				1,
				0.9999999403953552
			],
			"translation":[
				-2.9802322387695312e-08,
				0.263317346572876,
				3.7233554017745973e-09
			]
		},
		{
			"children":[
				18
			],
			"name":"lowerarm_l",
			"rotation":[
				-0.04960012435913086,
				-5.019966664576714e-08,
				-4.2685247336748944e-08,
				0.9987691640853882
			],
			"scale":[
				0.9999999403953552,
				1.0000001192092896,
				0.9999999403953552
			],
			"translation":[
				8.909404414225719e-08,
				0.335651695728302,
				-1.862645149230957e-09
			]
		},
		{
			"children":[
				19
			],
			"name":"upperarm_l",
			"rotation":[
				-0.2473410665988922,
				-0.6327881813049316,
				0.26642516255378723,
				0.683680534362793
			],
			"translation":[
				-1.3969838619232178e-09,
				0.1482430398464203,
				1.0122312232851982e-07
			]
		},
		{
			"children":[
				20
			],
			"name":"clavicle_l",
			"rotation":[
				-0.5298573970794678,
				-0.4893750250339508,
				-0.4893750250339508,
				0.4901788830757141
			],
			"scale":[
				1,
				1.0000001192092896,
				1
			],
			"translation":[
				0.052000001072883606,
				0.007999897003173828,
				0.012000000104308128
			]
		},
		{
			"name":"hand_end_r",
			"rotation":[
				0.8535535931587219,
				-0.3535531461238861,
				-0.35355326533317566,
				0.14644640684127808
			],
			"scale":[
				0.9999997615814209,
				0.9999997615814209,
				0.9999997615814209
			],
			"translation":[
				6.05268510867063e-08,
				0.0749533474445343,
				9.222088648286331e-10
			]
		},
		{
			"name":"index_03_r",
			"rotation":[
				-0.21850846707820892,
				-4.876667389908107e-07,
				0.21850712597370148,
				0.9510565996170044
			],
			"scale":[
				1,
				0.9999998807907104,
				1
			],
			"translation":[
				-5.774199962615967e-08,
				0.027999961748719215,
				2.7939677238464355e-08
			]
		},
		{
			"children":[
				23
			],
			"name":"index_02_r",
			"rotation":[
				-0.5756665468215942,
				1.216597638631356e-06,
				0.5756665468215942,
				0.58070307970047
			],
			"translation":[
				3.073364496231079e-08,
				0.04600002244114876,
				5.21540641784668e-08
			]
		},
		{
			"children":[
				24
			],
			"name":"index_01_r",
			"rotation":[
				-0.41562676429748535,
				-6.262408760449034e-07,
				0.4156270921230316,
				0.80901700258255
			],
			"scale":[
				1,
				0.9999998807907104,
				0.9999998807907104
			],
			"translation":[
				-0.019798973575234413,
				0.09799998998641968,
				0.02404164709150791
			]
		},
		{
			"name":"middle_03_r",
			"rotation":[
				-0.21850761771202087,
				5.875503461538756e-07,
				0.21850858628749847,
				0.9510564208030701
			],
			"scale":[
				1.0000001192092896,
				1,
				0.9999999403953552
			],
			"translation":[
				-6.146728992462158e-08,
				0.03100000135600567,
				-2.9802322387695312e-08
			]
		},
		{
			"children":[
				26
			],
			"name":"middle_02_r",
			"rotation":[
				-0.5756666660308838,
				0,
				0.575666606426239,
				0.5807029604911804
			],
			"scale":[
				1,
				1,
				1.0000001192092896
			],
			"translation":[
				1.5832483768463135e-08,
				0.05000000819563866,
				-4.377216100692749e-08
			]
		},
		{
			"children":[
				27
			],
			"name":"middle_01_r",
			"rotation":[
				-0.4156268835067749,
				-4.236334802953934e-07,
				0.4156269431114197,
				0.8090170621871948
			],
			"scale":[
				0.9999999403953552,
				0.9999998211860657,
				0.9999999403953552
			],
			"translation":[
				-0.00494975782930851,
				0.10639998316764832,
				0.009192429482936859
			]
		},
		{
			"name":"ring_03_r",
			"rotation":[
				-0.21850812435150146,
				7.246454458709195e-08,
				0.21850813925266266,
				0.9510564804077148
			],
			"scale":[
				0.9999999403953552,
				1,
				1
			],
			"translation":[
				-1.30385160446167e-08,
				0.029000014066696167,
				-1.862645149230957e-08
			]
		},
		{
			"children":[
				29
			],
			"name":"ring_02_r",
			"rotation":[
				-0.5756664276123047,
				1.8119534672678128e-07,
				0.5756667256355286,
				0.5807031393051147
			],
			"translation":[
				2.3283064365386963e-08,
				0.04600001126527786,
				-3.5390257835388184e-08
			]
		},
		{
			"children":[
				30
			],
			"name":"ring_01_r",
			"rotation":[
				-0.41562673449516296,
				-6.446596216846956e-07,
				0.41562703251838684,
				0.8090170621871948
			],
			"scale":[
				0.9999999403953552,
				0.9999998807907104,
				0.9999999403953552
			],
			"translation":[
				0.009899517521262169,
				0.10119998455047607,
				-0.005656815599650145
			]
		},
		{
			"name":"pinky_03_r",
			"rotation":[
				-0.21850867569446564,
				-5.855917493136076e-07,
				0.21850711107254028,
				0.9510565400123596
			],
			"scale":[
				1,
				1.0000001192092896,
				0.9999999403953552
			],
			"translation":[
				-4.284083843231201e-08,
				0.023999998345971107,
				3.725290298461914e-08
			]
		},
		{
			"children":[
				32
			],
			"name":"pinky_02_r",
			"rotation":[
				-0.575668454170227,
				-1.1389387282179086e-06,
				0.575664758682251,
				0.5807029008865356
			],
			"translation":[
				-5.4016709327697754e-08,
				0.03599999099969864,
				1.1175870895385742e-08
			]
		},
		{
			"children":[
				33
			],
			"name":"pinky_01_r",
			"rotation":[
				-0.41562849283218384,
				1.8879316030506743e-06,
				0.4156251549720764,
				0.8090171217918396
			],
			"scale":[
				1,
				0.9999998807907104,
				0.9999999403953552
			],
			"translation":[
				0.024041732773184776,
				0.09320005774497986,
				-0.01979903131723404
			]
		},
		{
			"name":"thumb_03_r",
			"rotation":[
				-0.08214154839515686,
				0.047838423401117325,
				-0.0490289106965065,
				0.994263768196106
			],
			"scale":[
				1,
				0.9999998807907104,
				0.9999999403953552
			],
			"translation":[
				4.470348358154297e-08,
				0.03299999237060547,
				-5.4016709327697754e-08
			]
		},
		{
			"children":[
				35
			],
			"name":"thumb_02_r",
			"rotation":[
				-0.1724458485841751,
				0.09941214323043823,
				-0.09663888812065125,
				0.9752131104469299
			],
			"scale":[
				1,
				0.9999998807907104,
				1
			],
			"translation":[
				9.313225746154785e-09,
				0.04399998486042023,
				5.634501576423645e-08
			]
		},
		{
			"children":[
				36
			],
			"name":"thumb_01_r",
			"rotation":[
				0.46510398387908936,
				-0.2889614999294281,
				-0.05645017698407173,
				0.8348610401153564
			],
			"scale":[
				0.9999999403953552,
				0.9999999403953552,
				1
			],
			"translation":[
				-0.015556292608380318,
				0.026000022888183594,
				0.026870032772421837
			]
		},
		{
			"children":[
				22,
				25,
				28,
				31,
				34,
				37
			],
			"name":"hand_r",
			"rotation":[
				0.021057045087218285,
				-0.38258376717567444,
				-0.008722467347979546,
				0.9236396551132202
			],
			"scale":[
				1,
				1,
				0.9999999403953552
			],
			"translation":[
				2.9802322387695312e-08,
				0.263317346572876,
				3.7233554017745973e-09
			]
		},
		{
			"children":[
				38
			],
			"name":"lowerarm_r",
			"rotation":[
				-0.04960012435913086,
				5.019966664576714e-08,
				4.2685247336748944e-08,
				0.9987691640853882
			],
			"scale":[
				0.9999999403953552,
				1.0000001192092896,
				0.9999999403953552
			],
			"translation":[
				-8.909404414225719e-08,
				0.335651695728302,
				-1.862645149230957e-09
			]
		},
		{
			"children":[
				39
			],
			"name":"upperarm_r",
			"rotation":[
				-0.2473410665988922,
				0.6327881813049316,
				-0.26642516255378723,
				0.683680534362793
			],
			"translation":[
				1.3969838619232178e-09,
				0.1482430398464203,
				1.0122312232851982e-07
			]
		},
		{
			"children":[
				40
			],
			"name":"clavicle_r",
			"rotation":[
				-0.5298573970794678,
				0.4893750250339508,
				0.4893750250339508,
				0.4901788830757141
			],
			"scale":[
				1,
				1.0000001192092896,
				1
			],
			"translation":[
				-0.052000001072883606,
				0.007999897003173828,
				0.012000000104308128
			]
		},
		{
			"children":[
				1,
				21,
				41
			],
			"name":"spine_03",
			"translation":[
				0,
				0.17599999904632568,
				0
			]
		},
		{
			"children":[
				42
			],
			"name":"spine_02",
			"translation":[
				0,
				0.156000018119812,
				0
			]
		},
		{
			"children":[
				43
			],
			"name":"spine_01",
			"scale":[
				1,
				0.9999999403953552,
				1
			],
			"translation":[
				0,
				0.156000018119812,
				0
			]
		},
		{
			"name":"ball_l",
			"rotation":[
				-0.8003542423248291,
				1.488864170839932e-10,
				4.657502161720117e-10,
				0.5995274186134338
			],
			"translation":[
				-1.0781546488924931e-10,
				0.16255611181259155,
				8.947518281843259e-09
			]
		},
		{
			"children":[
				45
			],
			"name":"foot_l",
			"rotation":[
				0.00547405332326889,
				-0.7921457290649414,
				-0.61029452085495,
				0.00398603081703186
			],
			"scale":[
				0.9999999403953552,
				0.9999998211860657,
				1
			],
			"translation":[
				5.646142664517129e-09,
				0.4432033598423004,
				-2.99450020335712e-10
			]
		},
		{
			"children":[
				46
			],
			"name":"calf_l",
			"rotation":[
				-0.027199488133192062,
				-3.382069451163261e-07,
				-0.0022159037180244923,
				0.9996275901794434
			],
			"scale":[
				0.9999998807907104,
				0.9999999403953552,
				0.9999998807907104
			],
			"translation":[
				-7.231720222655724e-10,
				0.4391821622848511,
				-1.928128767758608e-09
			]
		},
		{
			"children":[
				47
			],
			"name":"thigh_l",
			"rotation":[
				6.221878720680252e-05,
				0.013662892393767834,
				0.9998962879180908,
				0.004555241204798222
			],
			"scale":[
				1,
				0.9999997019767761,
				1.000000238418579
			],
			"translation":[
				0.09200000017881393,
				5.960464477539063e-08,
				0
			]
		},
		{
			"name":"ball_r",
			"rotation":[
				-0.8003542423248291,
				-1.488864170839932e-10,
				-4.657502161720117e-10,
				0.5995274186134338
			],
			"translation":[
				1.0781546488924931e-10,
				0.16255611181259155,
				8.947518281843259e-09
			]
		},
		{
			"children":[
				49
			],
			"name":"foot_r",
			"rotation":[
				0.00547405332326889,
				0.7921457290649414,
				0.61029452085495,
				0.00398603081703186
			],
			"scale":[
				0.9999999403953552,
				0.9999998211860657,
				1
			],
			"translation":[
				-5.646142664517129e-09,
				0.4432033598423004,
				-2.99450020335712e-10
			]
		},
		{
			"children":[
				50
			],
			"name":"calf_r",
			"rotation":[
				-0.027199488133192062,
				3.382069451163261e-07,
				0.0022159037180244923,
				0.9996275901794434
			],
			"scale":[
				0.9999998807907104,
				0.9999999403953552,
				0.9999998807907104
			],
			"translation":[
				7.231720222655724e-10,
				0.4391821622848511,
				-1.928128767758608e-09
			]
		},
		{
			"children":[
				51
			],
			"name":"thigh_r",
			"rotation":[
				6.221878720680252e-05,
				-0.013662892393767834,
				-0.9998962879180908,
				0.004555241204798222
			],
			"scale":[
				1,
				0.9999997019767761,
				1.000000238418579
			],
			"translation":[
				-0.09200000017881393,
				5.960464477539063e-08,
				0
			]
		},
		{
			"children":[
				44,
				48,
				52
			],
			"name":"pelvis",
			"translation":[
				0,
				0.9520000219345093,
				0
			]
		},
		{
			"name":"ik_foot_l",
			"rotation":[
				0.8003541827201843,
				0,
				0,
				0.5995274782180786
			],
			"translation":[
				0.0820000022649765,
				0.07000000029802322,
				0
			]
		},
		{
			"name":"ik_foot_r",
			"rotation":[
				0.8003541827201843,
				0,
				0,
				0.5995274782180786
			],
			"translation":[
				-0.0820000022649765,
				0.07000000029802322,
				0
			]
		},
		{
			"children":[
				54,
				55
			],
			"name":"ik_foot_root"
		},
		{
			"name":"ik_hand_l",
			"rotation":[
				-2.9802286860558524e-08,
				0.5000002384185791,
				-0.707106351852417,
				0.5000005960464478
			],
			"scale":[
				1,
				1,
				1.0000001192092896
			],
			"translation":[
				0.6230006814002991,
				-0.8810546398162842,
				-0.6230000853538513
			]
		},
		{
			"name":"ik_hand_r",
			"rotation":[
				-1.8027709103307643e-08,
				4.842877388000488e-08,
				1.0577132947275913e-08,
				1
			],
			"scale":[
				1,
				1.0000001192092896,
				1
			],
			"translation":[
				3.166496753692627e-08,
				2.9802322387695312e-08,
				-2.7939675462107516e-08
			]
		},
		{
			"children":[
				57,
				58
			],
			"name":"ik_hand_gun",
			"rotation":[
				-0.8535535335540771,
				0.35355323553085327,
				0.35355326533317566,
				0.14644645154476166
			],
			"scale":[
				1,
				1,
				0.9999999403953552
			],
			"translation":[
				-0.6230000257492065,
				1.0190000534057617,
				0
			]
		},
		{
			"children":[
				59
			],
			"name":"ik_hand_root"
		},
		{
			"children":[
				53,
				56,
				60
			],
			"name":"root"
		},
		{
			"mesh":0,
			"name":"Saud",
			"skin":0
		},
		{
			"children":[
				62,
				61
			],
			"name":"Saud_Rig"
		}
	],
	"materials":[
		{
			"doubleSided":true,
			"name":"Saud_Skin",
			"normalTexture":{
				"index":0
			},
			"pbrMetallicRoughness":{
				"baseColorTexture":{
					"index":1
				},
				"metallicFactor":0,
				"metallicRoughnessTexture":{
					"index":2
				}
			}
		},
		{
			"doubleSided":true,
			"name":"Saud_Hair",
			"normalTexture":{
				"index":3
			},
			"pbrMetallicRoughness":{
				"baseColorTexture":{
					"index":4
				},
				"metallicFactor":0,
				"metallicRoughnessTexture":{
					"index":5
				}
			}
		},
		{
			"doubleSided":true,
			"extensions":{
				"KHR_materials_clearcoat":{
					"clearcoatFactor":0.20000000298023224,
					"clearcoatRoughnessFactor":0.05999999865889549
				}
			},
			"name":"Saud_Shoe",
			"normalTexture":{
				"index":6
			},
			"pbrMetallicRoughness":{
				"baseColorTexture":{
					"index":7
				},
				"metallicFactor":0,
				"metallicRoughnessTexture":{
					"index":8
				}
			}
		},
		{
			"doubleSided":true,
			"extensions":{
				"KHR_materials_clearcoat":{
					"clearcoatFactor":1,
					"clearcoatRoughnessFactor":0.05999999865889549
				}
			},
			"name":"Saud_Eye",
			"pbrMetallicRoughness":{
				"baseColorTexture":{
					"index":9
				},
				"metallicFactor":0,
				"metallicRoughnessTexture":{
					"index":10
				}
			}
		},
		{
			"doubleSided":true,
			"extensions":{
				"KHR_materials_sheen":{
					"sheenColorFactor":[
						1.0,
						1.0,
						1.0
					],
					"sheenRoughnessFactor":0.5
				}
			},
			"name":"Saud_Tee",
			"normalTexture":{
				"index":11
			},
			"pbrMetallicRoughness":{
				"baseColorTexture":{
					"index":12
				},
				"metallicFactor":0,
				"metallicRoughnessTexture":{
					"index":13
				}
			}
		},
		{
			"doubleSided":true,
			"extensions":{
				"KHR_materials_sheen":{
					"sheenColorFactor":[
						1.0,
						1.0,
						1.0
					],
					"sheenRoughnessFactor":0.5
				}
			},
			"name":"Saud_Pants",
			"normalTexture":{
				"index":14
			},
			"pbrMetallicRoughness":{
				"baseColorTexture":{
					"index":15
				},
				"metallicFactor":0,
				"metallicRoughnessTexture":{
					"index":16
				}
			}
		}
	],
	"meshes":[
		{
			"name":"Saud",
			"primitives":[
				{
					"attributes":{
						"POSITION":0,
						"NORMAL":1,
						"TEXCOORD_0":2,
						"COLOR_0":3,
						"COLOR_1":4,
						"JOINTS_0":5,
						"WEIGHTS_0":6
					},
					"indices":7,
					"material":0
				},
				{
					"attributes":{
						"POSITION":8,
						"NORMAL":9,
						"TEXCOORD_0":10,
						"COLOR_0":11,
						"COLOR_1":12,
						"JOINTS_0":13,
						"WEIGHTS_0":14
					},
					"indices":15,
					"material":1
				},
				{
					"attributes":{
						"POSITION":16,
						"NORMAL":17,
						"TEXCOORD_0":18,
						"COLOR_0":19,
						"COLOR_1":20,
						"JOINTS_0":21,
						"WEIGHTS_0":22
					},
					"indices":23,
					"material":2
				},
				{
					"attributes":{
						"POSITION":24,
						"NORMAL":25,
						"TEXCOORD_0":26,
						"COLOR_0":27,
						"COLOR_1":28,
						"JOINTS_0":29,
						"WEIGHTS_0":30
					},
					"indices":31,
					"material":3
				},
				{
					"attributes":{
						"POSITION":32,
						"NORMAL":33,
						"TEXCOORD_0":34,
						"COLOR_0":35,
						"COLOR_1":36,
						"JOINTS_0":37,
						"WEIGHTS_0":38
					},
					"indices":39,
					"material":4
				},
				{
					"attributes":{
						"POSITION":40,
						"NORMAL":41,
						"TEXCOORD_0":42,
						"COLOR_0":43,
						"COLOR_1":44,
						"JOINTS_0":45,
						"WEIGHTS_0":46
					},
					"indices":47,
					"material":5
				}
			]
		}
	],
	"textures":[
		{
			"sampler":0,
			"source":0
		},
		{
			"sampler":0,
			"source":1
		},
		{
			"sampler":0,
			"source":2
		},
		{
			"sampler":0,
			"source":3
		},
		{
			"sampler":0,
			"source":4
		},
		{
			"sampler":0,
			"source":5
		},
		{
			"sampler":0,
			"source":6
		},
		{
			"sampler":0,
			"source":7
		},
		{
			"sampler":0,
			"source":8
		},
		{
			"sampler":0,
			"source":9
		},
		{
			"sampler":0,
			"source":10
		},
		{
			"sampler":0,
			"source":11
		},
		{
			"sampler":0,
			"source":12
		},
		{
			"sampler":0,
			"source":13
		},
		{
			"sampler":0,
			"source":14
		},
		{
			"sampler":0,
			"source":15
		},
		{
			"sampler":0,
			"source":16
		}
	],
	"images":[
		{
			"mimeType":"image/png",
			"name":"Saud_Skin_normal",
			"uri":"../Textures/Saud/T_Saud_Skin_Normal.png"
		},
		{
			"mimeType":"image/png",
			"name":"Saud_Skin_albedo",
			"uri":"../Textures/Saud/T_Saud_Skin_BaseColor.png"
		},
		{
			"mimeType":"image/png",
			"name":"Saud_Skin_roughness",
			"uri":"../Textures/Saud/T_Saud_Skin_Roughness.png"
		},
		{
			"mimeType":"image/png",
			"name":"Saud_Hair_normal",
			"uri":"../Textures/Saud/T_Saud_Hair_Normal.png"
		},
		{
			"mimeType":"image/png",
			"name":"Saud_Hair_albedo",
			"uri":"../Textures/Saud/T_Saud_Hair_BaseColor.png"
		},
		{
			"mimeType":"image/png",
			"name":"Saud_Hair_roughness",
			"uri":"../Textures/Saud/T_Saud_Hair_Roughness.png"
		},
		{
			"mimeType":"image/png",
			"name":"Saud_Shoe_normal",
			"uri":"../Textures/Saud/T_Saud_Shoe_Normal.png"
		},
		{
			"mimeType":"image/png",
			"name":"Saud_Shoe_albedo",
			"uri":"../Textures/Saud/T_Saud_Shoe_BaseColor.png"
		},
		{
			"mimeType":"image/png",
			"name":"Saud_Shoe_roughness",
			"uri":"../Textures/Saud/T_Saud_Shoe_Roughness.png"
		},
		{
			"mimeType":"image/png",
			"name":"Saud_Eye_albedo",
			"uri":"../Textures/Saud/T_Saud_Eye_BaseColor.png"
		},
		{
			"mimeType":"image/png",
			"name":"Saud_Eye_roughness",
			"uri":"../Textures/Saud/T_Saud_Eye_Roughness.png"
		},
		{
			"mimeType":"image/png",
			"name":"Saud_Tee_normal",
			"uri":"../Textures/Saud/T_Saud_Tee_Normal.png"
		},
		{
			"mimeType":"image/png",
			"name":"Saud_Tee_albedo",
			"uri":"../Textures/Saud/T_Saud_Tee_BaseColor.png"
		},
		{
			"mimeType":"image/png",
			"name":"Saud_Tee_roughness",
			"uri":"../Textures/Saud/T_Saud_Tee_Roughness.png"
		},
		{
			"mimeType":"image/png",
			"name":"Saud_Pants_normal",
			"uri":"../Textures/Saud/T_Saud_Pants_Normal.png"
		},
		{
			"mimeType":"image/png",
			"name":"Saud_Pants_albedo",
			"uri":"../Textures/Saud/T_Saud_Pants_BaseColor.png"
		},
		{
			"mimeType":"image/png",
			"name":"Saud_Pants_roughness",
			"uri":"../Textures/Saud/T_Saud_Pants_Roughness.png"
		}
	],
	"skins":[
		{
			"inverseBindMatrices":48,
			"joints":[
				61,
				53,
				44,
				43,
				42,
				1,
				0,
				21,
				20,
				19,
				18,
				2,
				5,
				4,
				3,
				8,
				7,
				6,
				11,
				10,
				9,
				14,
				13,
				12,
				17,
				16,
				15,
				41,
				40,
				39,
				38,
				22,
				25,
				24,
				23,
				28,
				27,
				26,
				31,
				30,
				29,
				34,
				33,
				32,
				37,
				36,
				35,
				48,
				47,
				46,
				45,
				52,
				51,
				50,
				49,
				56,
				54,
				55,
				60,
				59,
				57,
				58
			],
			"name":"Saud_Rig"
		}
	],
	"accessors":[
		{
			"bufferView":0,
			"componentType":5126,
			"count":17943,
			"max":[
				0.7538359761238098,
				1.7701345682144165,
				0.1259113848209381
			],
			"min":[
				-0.7538247108459473,
				0.06843611598014832,
				-0.11600358784198761
			],
			"type":"VEC3"
		},
		{
			"bufferView":1,
			"componentType":5126,
			"count":17943,
			"type":"VEC3"
		},
		{
			"bufferView":2,
			"componentType":5126,
			"count":17943,
			"type":"VEC2"
		},
		{
			"bufferView":3,
			"componentType":5121,
			"count":17943,
			"normalized":true,
			"type":"VEC4"
		},
		{
			"bufferView":4,
			"componentType":5123,
			"count":17943,
			"normalized":true,
			"type":"VEC4"
		},
		{
			"bufferView":5,
			"componentType":5121,
			"count":17943,
			"type":"VEC4"
		},
		{
			"bufferView":6,
			"componentType":5126,
			"count":17943,
			"type":"VEC4"
		},
		{
			"bufferView":7,
			"componentType":5123,
			"count":102039,
			"type":"SCALAR"
		},
		{
			"bufferView":8,
			"componentType":5126,
			"count":1142,
			"max":[
				0.0755605399608612,
				1.7998627424240112,
				0.09754806756973267
			],
			"min":[
				-0.07562284171581268,
				1.7157256603240967,
				-0.09681207686662674
			],
			"type":"VEC3"
		},
		{
			"bufferView":9,
			"componentType":5126,
			"count":1142,
			"type":"VEC3"
		},
		{
			"bufferView":10,
			"componentType":5126,
			"count":1142,
			"type":"VEC2"
		},
		{
			"bufferView":11,
			"componentType":5121,
			"count":1142,
			"normalized":true,
			"type":"VEC4"
		},
		{
			"bufferView":12,
			"componentType":5123,
			"count":1142,
			"normalized":true,
			"type":"VEC4"
		},
		{
			"bufferView":13,
			"componentType":5121,
			"count":1142,
			"type":"VEC4"
		},
		{
			"bufferView":14,
			"componentType":5126,
			"count":1142,
			"type":"VEC4"
		},
		{
			"bufferView":15,
			"componentType":5123,
			"count":6438,
			"type":"SCALAR"
		},
		{
			"bufferView":16,
			"componentType":5126,
			"count":383,
			"max":[
				0.13099999725818634,
				0.15979903936386108,
				0.2448899894952774
			],
			"min":[
				-0.13099999725818634,
				0,
				-0.07799999415874481
			],
			"type":"VEC3"
		},
		{
			"bufferView":17,
			"componentType":5126,
			"count":383,
			"type":"VEC3"
		},
		{
			"bufferView":18,
			"componentType":5126,
			"count":383,
			"type":"VEC2"
		},
		{
			"bufferView":19,
			"componentType":5121,
			"count":383,
			"normalized":true,
			"type":"VEC4"
		},
		{
			"bufferView":20,
			"componentType":5123,
			"count":383,
			"normalized":true,
			"type":"VEC4"
		},
		{
			"bufferView":21,
			"componentType":5121,
			"count":383,
			"type":"VEC4"
		},
		{
			"bufferView":22,
			"componentType":5126,
			"count":383,
			"type":"VEC4"
		},
		{
			"bufferView":23,
			"componentType":5123,
			"count":1986,
			"type":"SCALAR"
		},
		{
			"bufferView":24,
			"componentType":5126,
			"count":5126,
			"max":[
				0.0429999977350235,
				1.6890000104904175,
				0.09340423345565796
			],
			"min":[
				-0.0429999977350235,
				1.665000081062317,
				0.0694042444229126
			],
			"type":"VEC3"
		},
		{
			"bufferView":25,
			"componentType":5126,
			"count":5126,
			"type":"VEC3"
		},
		{
			"bufferView":26,
			"componentType":5126,
			"count":5126,
			"type":"VEC2"
		},
		{
			"bufferView":27,
			"componentType":5121,
			"count":5126,
			"normalized":true,
			"type":"VEC4"
		},
		{
			"bufferView":28,
			"componentType":5123,
			"count":5126,
			"normalized":true,
			"type":"VEC4"
		},
		{
			"bufferView":29,
			"componentType":5121,
			"count":5126,
			"type":"VEC4"
		},
		{
			"bufferView":30,
			"componentType":5126,
			"count":5126,
			"type":"VEC4"
		},
		{
			"bufferView":31,
			"componentType":5123,
			"count":29952,
			"type":"SCALAR"
		},
		{
			"bufferView":32,
			"componentType":5126,
			"count":4793,
			"max":[
				0.3498329222202301,
				1.5405418872833252,
				0.12613239884376526
			],
			"min":[
				-0.3496624231338501,
				1.0618443489074707,
				-0.1320580393075943
			],
			"type":"VEC3"
		},
		{
			"bufferView":33,
			"componentType":5126,
			"count":4793,
			"type":"VEC3"
		},
		{
			"bufferView":34,
			"componentType":5126,
			"count":4793,
			"type":"VEC2"
		},
		{
			"bufferView":35,
			"componentType":5121,
			"count":4793,
			"normalized":true,
			"type":"VEC4"
		},
		{
			"bufferView":36,
			"componentType":5123,
			"count":4793,
			"normalized":true,
			"type":"VEC4"
		},
		{
			"bufferView":37,
			"componentType":5121,
			"count":4793,
			"type":"VEC4"
		},
		{
			"bufferView":38,
			"componentType":5126,
			"count":4793,
			"type":"VEC4"
		},
		{
			"bufferView":39,
			"componentType":5123,
			"count":24474,
			"type":"SCALAR"
		},
		{
			"bufferView":40,
			"componentType":5126,
			"count":4373,
			"max":[
				0.19425742328166962,
				1.078995943069458,
				0.12105164676904678
			],
			"min":[
				-0.1940361112356186,
				0.11490426957607269,
				-0.13754257559776306
			],
			"type":"VEC3"
		},
		{
			"bufferView":41,
			"componentType":5126,
			"count":4373,
			"type":"VEC3"
		},
		{
			"bufferView":42,
			"componentType":5126,
			"count":4373,
			"type":"VEC2"
		},
		{
			"bufferView":43,
			"componentType":5121,
			"count":4373,
			"normalized":true,
			"type":"VEC4"
		},
		{
			"bufferView":44,
			"componentType":5123,
			"count":4373,
			"normalized":true,
			"type":"VEC4"
		},
		{
			"bufferView":45,
			"componentType":5121,
			"count":4373,
			"type":"VEC4"
		},
		{
			"bufferView":46,
			"componentType":5126,
			"count":4373,
			"type":"VEC4"
		},
		{
			"bufferView":47,
			"componentType":5123,
			"count":22518,
			"type":"SCALAR"
		},
		{
			"bufferView":48,
			"componentType":5126,
			"count":62,
			"type":"MAT4"
		}
	],
	"bufferViews":[
		{
			"buffer":0,
			"byteLength":215316,
			"byteOffset":0,
			"target":34962
		},
		{
			"buffer":0,
			"byteLength":215316,
			"byteOffset":215316,
			"target":34962
		},
		{
			"buffer":0,
			"byteLength":143544,
			"byteOffset":430632,
			"target":34962
		},
		{
			"buffer":0,
			"byteLength":71772,
			"byteOffset":574176,
			"target":34962
		},
		{
			"buffer":0,
			"byteLength":143544,
			"byteOffset":645948,
			"target":34962
		},
		{
			"buffer":0,
			"byteLength":71772,
			"byteOffset":789492,
			"target":34962
		},
		{
			"buffer":0,
			"byteLength":287088,
			"byteOffset":861264,
			"target":34962
		},
		{
			"buffer":0,
			"byteLength":204078,
			"byteOffset":1148352,
			"target":34963
		},
		{
			"buffer":0,
			"byteLength":13704,
			"byteOffset":1352432,
			"target":34962
		},
		{
			"buffer":0,
			"byteLength":13704,
			"byteOffset":1366136,
			"target":34962
		},
		{
			"buffer":0,
			"byteLength":9136,
			"byteOffset":1379840,
			"target":34962
		},
		{
			"buffer":0,
			"byteLength":4568,
			"byteOffset":1388976,
			"target":34962
		},
		{
			"buffer":0,
			"byteLength":9136,
			"byteOffset":1393544,
			"target":34962
		},
		{
			"buffer":0,
			"byteLength":4568,
			"byteOffset":1402680,
			"target":34962
		},
		{
			"buffer":0,
			"byteLength":18272,
			"byteOffset":1407248,
			"target":34962
		},
		{
			"buffer":0,
			"byteLength":12876,
			"byteOffset":1425520,
			"target":34963
		},
		{
			"buffer":0,
			"byteLength":4596,
			"byteOffset":1438396,
			"target":34962
		},
		{
			"buffer":0,
			"byteLength":4596,
			"byteOffset":1442992,
			"target":34962
		},
		{
			"buffer":0,
			"byteLength":3064,
			"byteOffset":1447588,
			"target":34962
		},
		{
			"buffer":0,
			"byteLength":1532,
			"byteOffset":1450652,
			"target":34962
		},
		{
			"buffer":0,
			"byteLength":3064,
			"byteOffset":1452184,
			"target":34962
		},
		{
			"buffer":0,
			"byteLength":1532,
			"byteOffset":1455248,
			"target":34962
		},
		{
			"buffer":0,
			"byteLength":6128,
			"byteOffset":1456780,
			"target":34962
		},
		{
			"buffer":0,
			"byteLength":3972,
			"byteOffset":1462908,
			"target":34963
		},
		{
			"buffer":0,
			"byteLength":61512,
			"byteOffset":1466880,
			"target":34962
		},
		{
			"buffer":0,
			"byteLength":61512,
			"byteOffset":1528392,
			"target":34962
		},
		{
			"buffer":0,
			"byteLength":41008,
			"byteOffset":1589904,
			"target":34962
		},
		{
			"buffer":0,
			"byteLength":20504,
			"byteOffset":1630912,
			"target":34962
		},
		{
			"buffer":0,
			"byteLength":41008,
			"byteOffset":1651416,
			"target":34962
		},
		{
			"buffer":0,
			"byteLength":20504,
			"byteOffset":1692424,
			"target":34962
		},
		{
			"buffer":0,
			"byteLength":82016,
			"byteOffset":1712928,
			"target":34962
		},
		{
			"buffer":0,
			"byteLength":59904,
			"byteOffset":1794944,
			"target":34963
		},
		{
			"buffer":0,
			"byteLength":57516,
			"byteOffset":1854848,
			"target":34962
		},
		{
			"buffer":0,
			"byteLength":57516,
			"byteOffset":1912364,
			"target":34962
		},
		{
			"buffer":0,
			"byteLength":38344,
			"byteOffset":1969880,
			"target":34962
		},
		{
			"buffer":0,
			"byteLength":19172,
			"byteOffset":2008224,
			"target":34962
		},
		{
			"buffer":0,
			"byteLength":38344,
			"byteOffset":2027396,
			"target":34962
		},
		{
			"buffer":0,
			"byteLength":19172,
			"byteOffset":2065740,
			"target":34962
		},
		{
			"buffer":0,
			"byteLength":76688,
			"byteOffset":2084912,
			"target":34962
		},
		{
			"buffer":0,
			"byteLength":48948,
			"byteOffset":2161600,
			"target":34963
		},
		{
			"buffer":0,
			"byteLength":52476,
			"byteOffset":2210548,
			"target":34962
		},
		{
			"buffer":0,
			"byteLength":52476,
			"byteOffset":2263024,
			"target":34962
		},
		{
			"buffer":0,
			"byteLength":34984,
			"byteOffset":2315500,
			"target":34962
		},
		{
			"buffer":0,
			"byteLength":17492,
			"byteOffset":2350484,
			"target":34962
		},
		{
			"buffer":0,
			"byteLength":34984,
			"byteOffset":2367976,
			"target":34962
		},
		{
			"buffer":0,
			"byteLength":17492,
			"byteOffset":2402960,
			"target":34962
		},
		{
			"buffer":0,
			"byteLength":69968,
			"byteOffset":2420452,
			"target":34962
		},
		{
			"buffer":0,
			"byteLength":45036,
			"byteOffset":2490420,
			"target":34963
		},
		{
			"buffer":0,
			"byteLength":3968,
			"byteOffset":2535456
		}
	],
	"samplers":[
		{
			"magFilter":9729,
			"minFilter":9987
		}
	],
	"buffers":[
		{
			"byteLength":2539424,
			"uri":"Saud.bin"
		}
	]
}
