{
	"asset":{
		"generator":"Khronos glTF Blender I/O v5.0.21",
		"version":"2.0"
	},
	"extensionsUsed":[
		"KHR_materials_clearcoat",
		"KHR_materials_sheen"
	],
	"scene":0,
	"scenes":[
		{
			"name":"Scene",
			"nodes":[
				63
			]
		}
	],
	"nodes":[
		{
			"name":"head",
			"rotation":[
				-0.07805701345205307,
				0,
				0,
				0.9969488978385925
			],
			"scale":[
				1,
				1.0000001192092896,
				1
			],
			"translation":[
				0,
				0.14537470042705536,
				6.51925802230835e-09
			]
		},
		{
			"children":[
				0
			],
			"name":"neck_01",
			"rotation":[
				0.0459069162607193,
				0,
				0,
				0.9989457726478577
			],
			"translation":[
				0,
				0.07619047164916992,
				0
			]
		},
		{
			"name":"hand_end_l",
			"rotation":[
				0.853553831577301,
				0.3535529673099518,
				0.35355305671691895,
				0.14644615352153778
			],
			"scale":[
				0.9999998807907104,
				0.9999999403953552,
				0.9999999403953552
			],
			"translation":[
				5.9134137586625e-08,
				0.07138413190841675,
				-2.933181519892969e-08
			]
		},
		{
			"name":"index_03_l",
			"rotation":[
				-0.21850964426994324,
				1.748941144796845e-06,
				-0.21850575506687164,
				0.951056718826294
			],
			"scale":[
				0.9999999403953552,
				1,
				1
			],
			"translation":[
				-1.1175870895385742e-08,
				0.026666713878512383,
				3.725290298461914e-09
			]
		},
		{
			"children":[
				3
			],
			"name":"index_02_l",
			"rotation":[
				-0.5756667256355286,
				-2.4331945951416856e-06,
				-0.575666606426239,
				0.5807028412818909
			],
			"translation":[
				2.8870999813079834e-08,
				0.04380952566862106,
				9.313225746154785e-10
			]
		},
		{
			"children":[
				4
			],
			"name":"index_01_l",
			"rotation":[
				-0.4156264662742615,
				1.1511776847328292e-06,
				-0.41562703251838684,
				0.8090171813964844
			],
			"scale":[
				1,
				0.9999998807907104,
				1
			],
			"translation":[
				0.018856314942240715,
				0.09333327412605286,
				0.022896774113178253
			]
		},
		{
			"name":"middle_03_l",
			"rotation":[
				-0.2185075581073761,
				-7.638154215783288e-07,
				-0.21850866079330444,
				0.9510564208030701
			],
			"scale":[
				1,
				1,
				0.9999999403953552
			],
			"translation":[
				2.60770320892334e-08,
				0.02952376753091812,
				3.166496753692627e-08
			]
		},
		{
			"children":[
				6
			],
			"name":"middle_02_l",
			"rotation":[
				-0.5756665468215942,
				-2.5885029231176304e-07,
				-0.575667142868042,
				0.5807024836540222
			],
			"scale":[
				1.0000001192092896,
				1,
				1
			],
			"translation":[
				-6.984919309616089e-08,
				0.04761906713247299,
				-8.195638656616211e-08
			]
		},
		{
			"children":[
				7
			],
			"name":"middle_01_l",
			"rotation":[
				-0.41562628746032715,
				1.2801093589587254e-06,
				-0.4156268537044525,
				0.8090173602104187
			],
			"translation":[
				0.004714127164334059,
				0.10133334994316101,
				0.008754650130867958
			]
		},
		{
			"name":"ring_03_l",
			"rotation":[
				-0.21850666403770447,
				-1.312195649916248e-06,
				-0.21850913763046265,
				0.9510565996170044
			],
			"translation":[
				1.30385160446167e-08,
				0.027618980035185814,
				-1.4901161193847656e-08
			]
		},
		{
			"children":[
				9
			],
			"name":"ring_02_l",
			"rotation":[
				-0.5756645798683167,
				-1.1648239706119057e-06,
				-0.5756683349609375,
				0.5807032585144043
			],
			"translation":[
				-4.470348358154297e-08,
				0.04380951449275017,
				1.043081283569336e-07
			]
		},
		{
			"children":[
				10
			],
			"name":"ring_01_l",
			"rotation":[
				-0.41562530398368835,
				3.241717649871134e-06,
				-0.4156287610530853,
				0.8090168833732605
			],
			"translation":[
				-0.009428028017282486,
				0.09638100862503052,
				-0.005387446843087673
			]
		},
		{
			"name":"pinky_03_l",
			"rotation":[
				-0.21850836277008057,
				5.542556209547911e-07,
				-0.21850676834583282,
				0.9510567784309387
			],
			"scale":[
				1,
				0.9999998807907104,
				0.9999999403953552
			],
			"translation":[
				-9.313225746154785e-09,
				0.02285713329911232,
				5.774199962615967e-08
			]
		},
		{
			"children":[
				12
			],
			"name":"pinky_02_l",
			"rotation":[
				-0.5756669640541077,
				-1.1130566690553678e-06,
				-0.5756663680076599,
				0.5807029008865356
			],
			"scale":[
				0.9999999403953552,
				1,
				1
			],
			"translation":[
				-8.475035429000854e-08,
				0.03428572043776512,
				2.2351741790771484e-08
			]
		},
		{
			"children":[
				13
			],
			"name":"pinky_01_l",
			"rotation":[
				-0.4156268537044525,
				6.446595648412767e-07,
				-0.41562676429748535,
				0.8090171217918396
			],
			"scale":[
				1,
				0.9999999403953552,
				1
			],
			"translation":[
				-0.02289682812988758,
				0.08876201510429382,
				-0.018856219947338104
			]
		},
		{
			"name":"thumb_03_l",
			"rotation":[
				-0.08214230090379715,
				-0.04783878102898598,
				0.049028899520635605,
				0.9942637085914612
			],
			"scale":[
				1,
				1,
				0.9999998807907104
			],
			"translation":[
				2.60770320892334e-08,
				0.0314285010099411,
				6.332993507385254e-08
			]
		},
		{
			"children":[
				15
			],
			"name":"thumb_02_l",
			"rotation":[
				-0.17244499921798706,
				-0.099411740899086,
				0.09663919359445572,
				0.9752132892608643
			],
			"translation":[
				-3.725290298461914e-09,
				0.041904762387275696,
				4.190951585769653e-09
			]
		},
		{
			"children":[
				16
			],
			"name":"thumb_01_l",
			"rotation":[
				0.4651038944721222,
				0.2889616787433624,
				0.05644975230097771,
				0.8348610401153564
			],
			"scale":[
				0.9999999403953552,
				1,
				1
			],
			"translation":[
				0.014815639704465866,
				0.024761883541941643,
				0.025590451434254646
			]
		},
		{
			"children":[
				2,
				5,
				8,
				11,
				14,
				17
			],
			"name":"hand_l",
			"rotation":[
				0.021056918427348137,
				0.38258346915245056,
				0.008722743950784206,
				0.9236397743225098
			],
			"scale":[
				0.9999998211860657,
				0.9999998211860657,
				0.9999998807907104
			],
			"translation":[
				1.4901161193847656e-07,
				0.25077831745147705,
				1.8616773678203913e-09
			]
		},
		{
			"children":[
				18
			],
			"name":"lowerarm_l",
			"rotation":[
				-0.049600109457969666,
				-6.287795883963554e-08,
				4.665291797323334e-08,
				0.9987691640853882
			],
			"scale":[
				1,
				1,
				0.9999999403953552
			],
			"translation":[
				2.8993401457455548e-08,
				0.31966814398765564,
				-9.313225746154785e-10
			]
		},
		{
			"children":[
				19
			],
			"name":"upperarm_l",
			"rotation":[
				-0.24664384126663208,
				-0.6309573650360107,
				0.26342806220054626,
				0.6867789030075073
			],
			"scale":[
				0.9999998807907104,
				0.9999998807907104,
				0.9999999403953552
			],
			"translation":[
				-1.1175870895385742e-08,
				0.12420649826526642,
				-1.0096118785440922e-07
			]
		},
		{
			"children":[
				20
			],
			"name":"clavicle_l",
			"rotation":[
				-0.53386390209198,
				-0.487844854593277,
				-0.4878447949886322,
				0.48888060450553894
			],
			"scale":[
				1.0000001192092896,
				1.0000001192092896,
				1
			],
			"translation":[
				0.039472587406635284,
				0.007619023323059082,
				0.011428571306169033
			]
		},
		{
			"name":"hand_end_r",
			"rotation":[
				0.853553831577301,
				-0.3535529673099518,
				-0.35355305671691895,
				0.14644615352153778
			],
			"scale":[
				0.9999998807907104,
				0.9999999403953552,
				0.9999999403953552
			],
			"translation":[
				-5.9134137586625e-08,
				0.07138413190841675,
				-2.933181519892969e-08
			]
		},
		{
			"name":"index_03_r",
			"rotation":[
				-0.21850964426994324,
				-1.748941144796845e-06,
				0.21850575506687164,
				0.951056718826294
			],
			"scale":[
				0.9999999403953552,
				1,
				1
			],
			"translation":[
				1.1175870895385742e-08,
				0.026666713878512383,
				3.725290298461914e-09
			]
		},
		{
			"children":[
				23
			],
			"name":"index_02_r",
			"rotation":[
				-0.5756667256355286,
				2.4331945951416856e-06,
				0.575666606426239,
				0.5807028412818909
			],
			"translation":[
				-2.8870999813079834e-08,
				0.04380952566862106,
				9.313225746154785e-10
			]
		},
		{
			"children":[
				24
			],
			"name":"index_01_r",
			"rotation":[
				-0.4156264662742615,
				-1.1511776847328292e-06,
				0.41562703251838684,
				0.8090171813964844
			],
			"scale":[
				1,
				0.9999998807907104,
				1
			],
			"translation":[
				-0.018856314942240715,
				0.09333327412605286,
				0.022896774113178253
			]
		},
		{
			"name":"middle_03_r",
			"rotation":[
				-0.2185075581073761,
				7.638154215783288e-07,
				0.21850866079330444,
				0.9510564208030701
			],
			"scale":[
				1,
				1,
				0.9999999403953552
			],
			"translation":[
				-2.60770320892334e-08,
				0.02952376753091812,
				3.166496753692627e-08
			]
		},
		{
			"children":[
				26
			],
			"name":"middle_02_r",
			"rotation":[
				-0.5756665468215942,
				2.5885029231176304e-07,
				0.575667142868042,
				0.5807024836540222
			],
			"scale":[
				1.0000001192092896,
				1,
				1
			],
			"translation":[
				6.984919309616089e-08,
				0.04761906713247299,
				-8.195638656616211e-08
			]
		},
		{
			"children":[
				27
			],
			"name":"middle_01_r",
			"rotation":[
				-0.41562628746032715,
				-1.2801093589587254e-06,
				0.4156268537044525,
				0.8090173602104187
			],
			"translation":[
				-0.004714127164334059,
				0.10133334994316101,
				0.008754650130867958
			]
		},
		{
			"name":"ring_03_r",
			"rotation":[
				-0.21850666403770447,
				1.312195649916248e-06,
				0.21850913763046265,
				0.9510565996170044
			],
			"translation":[
				-1.30385160446167e-08,
				0.027618980035185814,
				-1.4901161193847656e-08
			]
		},
		{
			"children":[
				29
			],
			"name":"ring_02_r",
			"rotation":[
				-0.5756645798683167,
				1.1648239706119057e-06,
				0.5756683349609375,
				0.5807032585144043
			],
			"translation":[
				4.470348358154297e-08,
				0.04380951449275017,
				1.043081283569336e-07
			]
		},
		{
			"children":[
				30
			],
			"name":"ring_01_r",
			"rotation":[
				-0.41562530398368835,
				-3.241717649871134e-06,
				0.4156287610530853,
				0.8090168833732605
			],
			"translation":[
				0.009428028017282486,
				0.09638100862503052,
				-0.005387446843087673
			]
		},
		{
			"name":"pinky_03_r",
			"rotation":[
				-0.21850836277008057,
				-5.542556209547911e-07,
				0.21850676834583282,
				0.9510567784309387
			],
			"scale":[
				1,
				0.9999998807907104,
				0.9999999403953552
			],
			"translation":[
				9.313225746154785e-09,
				0.02285713329911232,
				5.774199962615967e-08
			]
		},
		{
			"children":[
				32
			],
			"name":"pinky_02_r",
			"rotation":[
				-0.5756669640541077,
				1.1130566690553678e-06,
				0.5756663680076599,
				0.5807029008865356
			],
			"scale":[
				0.9999999403953552,
				1,
				1
			],
			"translation":[
				8.475035429000854e-08,
				0.03428572043776512,
				2.2351741790771484e-08
			]
		},
		{
			"children":[
				33
			],
			"name":"pinky_01_r",
			"rotation":[
				-0.4156268537044525,
				-6.446595648412767e-07,
				0.41562676429748535,
				0.8090171217918396
			],
			"scale":[
				1,
				0.9999999403953552,
				1
			],
			"translation":[
				0.02289682812988758,
				0.08876201510429382,
				-0.018856219947338104
			]
		},
		{
			"name":"thumb_03_r",
			"rotation":[
				-0.08214230090379715,
				0.04783878102898598,
				-0.049028899520635605,
				0.9942637085914612
			],
			"scale":[
				1,
				1,
				0.9999998807907104
			],
			"translation":[
				-2.60770320892334e-08,
				0.0314285010099411,
				6.332993507385254e-08
			]
		},
		{
			"children":[
				35
			],
			"name":"thumb_02_r",
			"rotation":[
				-0.17244499921798706,
				0.099411740899086,
				-0.09663919359445572,
				0.9752132892608643
			],
			"translation":[
				3.725290298461914e-09,
				0.041904762387275696,
				4.190951585769653e-09
			]
		},
		{
			"children":[
				36
			],
			"name":"thumb_01_r",
			"rotation":[
				0.4651038944721222,
				-0.2889616787433624,
				-0.05644975230097771,
				0.8348610401153564
			],
			"scale":[
				0.9999999403953552,
				1,
				1
			],
			"translation":[
				-0.014815639704465866,
				0.024761883541941643,
				0.025590451434254646
			]
		},
		{
			"children":[
				22,
				25,
				28,
				31,
				34,
				37
			],
			"name":"hand_r",
			"rotation":[
				0.021056918427348137,
				-0.38258346915245056,
				-0.008722743950784206,
				0.9236397743225098
			],
			"scale":[
				0.9999998211860657,
				0.9999998211860657,
				0.9999998807907104
			],
			"translation":[
				-1.4901161193847656e-07,
				0.25077831745147705,
				1.8616773678203913e-09
			]
		},
		{
			"children":[
				38
			],
			"name":"lowerarm_r",
			"rotation":[
				-0.049600109457969666,
				6.287795883963554e-08,
				-4.665291797323334e-08,
				0.9987691640853882
			],
			"scale":[
				1,
				1,
				0.9999999403953552
			],
			"translation":[
				-2.8993401457455548e-08,
				0.31966814398765564,
				-9.313225746154785e-10
			]
		},
		{
			"children":[
				39
			],
			"name":"upperarm_r",
			"rotation":[
				-0.24664384126663208,
				0.6309573650360107,
				-0.26342806220054626,
				0.6867789030075073
			],
			"scale":[
				0.9999998807907104,
				0.9999998807907104,
				0.9999999403953552
			],
			"translation":[
				1.1175870895385742e-08,
				0.12420649826526642,
				-1.0096118785440922e-07
			]
		},
		{
			"children":[
				40
			],
			"name":"clavicle_r",
			"rotation":[
				-0.53386390209198,
				0.487844854593277,
				0.4878447949886322,
				0.48888060450553894
			],
			"scale":[
				1.0000001192092896,
				1.0000001192092896,
				1
			],
			"translation":[
				-0.039472587406635284,
				0.007619023323059082,
				0.011428571306169033
			]
		},
		{
			"children":[
				1,
				21,
				41
			],
			"name":"spine_03",
			"translation":[
				0,
				0.167618989944458,
				0
			]
		},
		{
			"children":[
				42
			],
			"name":"spine_02",
			"scale":[
				1,
				0.9999999403953552,
				1
			],
			"translation":[
				0,
				0.14857149124145508,
				0
			]
		},
		{
			"children":[
				43
			],
			"name":"spine_01",
			"translation":[
				0,
				0.1485714316368103,
				0
			]
		},
		{
			"name":"ball_l",
			"rotation":[
				-0.8003541827201843,
				9.330947570163062e-09,
				1.1874057292970974e-08,
				0.5995274782180786
			],
			"scale":[
				1,
				0.9999999403953552,
				1
			],
			"translation":[
				-1.8367778409356106e-09,
				0.15481531620025635,
				1.19456577962751e-09
			]
		},
		{
			"children":[
				45
			],
			"name":"foot_l",
			"rotation":[
				0.00547404820099473,
				-0.7921457290649414,
				-0.61029452085495,
				0.003986031282693148
			],
			"scale":[
				0.9999999403953552,
				0.9999998807907104,
				0.9999999403953552
			],
			"translation":[
				4.016329491207671e-09,
				0.42209815979003906,
				8.856169131377101e-10
			]
		},
		{
			"children":[
				46
			],
			"name":"calf_l",
			"rotation":[
				-0.027199499309062958,
				-2.8518550720946223e-07,
				-0.0022159176878631115,
				0.9996275901794434
			],
			"scale":[
				0.9999999403953552,
				0.9999998807907104,
				0.9999999403953552
			],
			"translation":[
				-2.6256647966960145e-09,
				0.41826876997947693,
				-1.280568540096283e-09
			]
		},
		{
			"children":[
				47
			],
			"name":"thigh_l",
			"rotation":[
				6.227839912753552e-05,
				0.013662888668477535,
				0.9998962879180908,
				0.004555234685540199
			],
			"scale":[
				1,
				1.000000238418579,
				1.000000238418579
			],
			"translation":[
				0.0751713216304779,
				0,
				0
			]
		},
		{
			"name":"ball_r",
			"rotation":[
				-0.8003541827201843,
				-9.330947570163062e-09,
				-1.1874057292970974e-08,
				0.5995274782180786
			],
			"scale":[
				1,
				0.9999999403953552,
				1
			],
			"translation":[
				1.8367778409356106e-09,
				0.15481531620025635,
				1.19456577962751e-09
			]
		},
		{
			"children":[
				49
			],
			"name":"foot_r",
			"rotation":[
				0.00547404820099473,
				0.7921457290649414,
				0.61029452085495,
				0.003986031282693148
			],
			"scale":[
				0.9999999403953552,
				0.9999998807907104,
				0.9999999403953552
			],
			"translation":[
				-4.016329491207671e-09,
				0.42209815979003906,
				8.856169131377101e-10
			]
		},
		{
			"children":[
				50
			],
			"name":"calf_r",
			"rotation":[
				-0.027199499309062958,
				2.8518550720946223e-07,
				0.0022159176878631115,
				0.9996275901794434
			],
			"scale":[
				0.9999999403953552,
				0.9999998807907104,
				0.9999999403953552
			],
			"translation":[
				2.6256647966960145e-09,
				0.41826876997947693,
				-1.280568540096283e-09
			]
		},
		{
			"children":[
				51
			],
			"name":"thigh_r",
			"rotation":[
				6.227839912753552e-05,
				-0.013662888668477535,
				-0.9998962879180908,
				0.004555234685540199
			],
			"scale":[
				1,
				1.000000238418579,
				1.000000238418579
			],
			"translation":[
				-0.0751713216304779,
				0,
				0
			]
		},
		{
			"children":[
				44,
				48,
				52
			],
			"name":"pelvis",
			"translation":[
				0,
				0.9066666960716248,
				0
			]
		},
		{
			"name":"ik_foot_l",
			"rotation":[
				0.8003542423248291,
				0,
				0,
				0.5995274186134338
			],
			"translation":[
				0.06564751267433167,
				0.06666667014360428,
				0
			]
		},
		{
			"name":"ik_foot_r",
			"rotation":[
				0.8003542423248291,
				0,
				0,
				0.5995274186134338
			],
			"translation":[
				-0.06564751267433167,
				0.06666667014360428,
				0
			]
		},
		{
			"children":[
				54,
				55
			],
			"name":"ik_foot_root"
		},
		{
			"name":"ik_hand_l",
			"rotation":[
				0,
				0.4999997615814209,
				-0.7071061730384827,
				0.500001072883606
			],
			"scale":[
				0.9999999403953552,
				1,
				0.9999998807907104
			],
			"translation":[
				0.5662745833396912,
				-0.8008302450180054,
				-0.5662731528282166
			]
		},
		{
			"name":"ik_hand_r",
			"rotation":[
				1.0735577760101478e-08,
				-3.7252920748187535e-09,
				1.1616121398105861e-08,
				1
			],
			"scale":[
				1,
				0.9999999403953552,
				0.9999999403953552
			],
			"translation":[
				9.31321020303244e-10,
				-5.960464477539063e-08,
				-2.8870999813079834e-08
			]
		},
		{
			"children":[
				57,
				58
			],
			"name":"ik_hand_gun",
			"rotation":[
				-0.853553831577301,
				0.3535529673099518,
				0.3535529673099518,
				0.14644618332386017
			],
			"scale":[
				0.9999998807907104,
				0.9999998211860657,
				1
			],
			"translation":[
				-0.5662730932235718,
				0.9704762697219849,
				0
			]
		},
		{
			"children":[
				59
			],
			"name":"ik_hand_root"
		},
		{
			"children":[
				53,
				56,
				60
			],
			"name":"root"
		},
		{
			"mesh":0,
			"name":"Thug",
			"skin":0
		},
		{
			"children":[
				62,
				61
			],
			"name":"Saud_Rig"
		}
	],
	"materials":[
		{
			"doubleSided":true,
			"name":"Thug_Skin",
			"normalTexture":{
				"index":0
			},
			"pbrMetallicRoughness":{
				"baseColorTexture":{
					"index":1
				},
				"metallicFactor":0,
				"metallicRoughnessTexture":{
					"index":2
				}
			}
		},
		{
			"doubleSided":true,
			"name":"Thug_Hair",
			"normalTexture":{
				"index":3
			},
			"pbrMetallicRoughness":{
				"baseColorTexture":{
					"index":4
				},
				"metallicFactor":0,
				"metallicRoughnessTexture":{
					"index":5
				}
			}
		},
		{
			"doubleSided":true,
			"extensions":{
				"KHR_materials_clearcoat":{
					"clearcoatFactor":0.20000000298023224,
					"clearcoatRoughnessFactor":0.05999999865889549
				}
			},
			"name":"Thug_Shoe",
			"normalTexture":{
				"index":6
			},
			"pbrMetallicRoughness":{
				"baseColorTexture":{
					"index":7
				},
				"metallicFactor":0,
				"metallicRoughnessTexture":{
					"index":8
				}
			}
		},
		{
			"doubleSided":true,
			"extensions":{
				"KHR_materials_clearcoat":{
					"clearcoatFactor":1,
					"clearcoatRoughnessFactor":0.05999999865889549
				}
			},
			"name":"Thug_Eye",
			"pbrMetallicRoughness":{
				"baseColorTexture":{
					"index":9
				},
				"metallicFactor":0,
				"metallicRoughnessTexture":{
					"index":10
				}
			}
		},
		{
			"doubleSided":true,
			"extensions":{
				"KHR_materials_sheen":{
					"sheenColorFactor":[
						1.0,
						1.0,
						1.0
					],
					"sheenRoughnessFactor":0.5
				}
			},
			"name":"Thug_Tee",
			"normalTexture":{
				"index":11
			},
			"pbrMetallicRoughness":{
				"baseColorTexture":{
					"index":12
				},
				"metallicFactor":0,
				"metallicRoughnessTexture":{
					"index":13
				}
			}
		},
		{
			"doubleSided":true,
			"extensions":{
				"KHR_materials_sheen":{
					"sheenColorFactor":[
						1.0,
						1.0,
						1.0
					],
					"sheenRoughnessFactor":0.5
				}
			},
			"name":"Thug_Pants",
			"normalTexture":{
				"index":14
			},
			"pbrMetallicRoughness":{
				"baseColorTexture":{
					"index":15
				},
				"metallicFactor":0,
				"metallicRoughnessTexture":{
					"index":16
				}
			}
		}
	],
	"meshes":[
		{
			"name":"Thug",
			"primitives":[
				{
					"attributes":{
						"POSITION":0,
						"NORMAL":1,
						"TEXCOORD_0":2,
						"COLOR_0":3,
						"COLOR_1":4,
						"JOINTS_0":5,
						"WEIGHTS_0":6
					},
					"indices":7,
					"material":0
				},
				{
					"attributes":{
						"POSITION":8,
						"NORMAL":9,
						"TEXCOORD_0":10,
						"COLOR_0":11,
						"COLOR_1":12,
						"JOINTS_0":13,
						"WEIGHTS_0":14
					},
					"indices":15,
					"material":1
				},
				{
					"attributes":{
						"POSITION":16,
						"NORMAL":17,
						"TEXCOORD_0":18,
						"COLOR_0":19,
						"COLOR_1":20,
						"JOINTS_0":21,
						"WEIGHTS_0":22
					},
					"indices":23,
					"material":2
				},
				{
					"attributes":{
						"POSITION":24,
						"NORMAL":25,
						"TEXCOORD_0":26,
						"COLOR_0":27,
						"COLOR_1":28,
						"JOINTS_0":29,
						"WEIGHTS_0":30
					},
					"indices":31,
					"material":3
				},
				{
					"attributes":{
						"POSITION":32,
						"NORMAL":33,
						"TEXCOORD_0":34,
						"COLOR_0":35,
						"COLOR_1":36,
						"JOINTS_0":37,
						"WEIGHTS_0":38
					},
					"indices":39,
					"material":4
				},
				{
					"attributes":{
						"POSITION":40,
						"NORMAL":41,
						"TEXCOORD_0":42,
						"COLOR_0":43,
						"COLOR_1":44,
						"JOINTS_0":45,
						"WEIGHTS_0":46
					},
					"indices":47,
					"material":5
				}
			]
		}
	],
	"textures":[
		{
			"sampler":0,
			"source":0
		},
		{
			"sampler":0,
			"source":1
		},
		{
			"sampler":0,
			"source":2
		},
		{
			"sampler":0,
			"source":3
		},
		{
			"sampler":0,
			"source":4
		},
		{
			"sampler":0,
			"source":5
		},
		{
			"sampler":0,
			"source":6
		},
		{
			"sampler":0,
			"source":7
		},
		{
			"sampler":0,
			"source":8
		},
		{
			"sampler":0,
			"source":9
		},
		{
			"sampler":0,
			"source":10
		},
		{
			"sampler":0,
			"source":11
		},
		{
			"sampler":0,
			"source":12
		},
		{
			"sampler":0,
			"source":13
		},
		{
			"sampler":0,
			"source":14
		},
		{
			"sampler":0,
			"source":15
		},
		{
			"sampler":0,
			"source":16
		}
	],
	"images":[
		{
			"mimeType":"image/png",
			"name":"Thug_Skin_normal",
			"uri":"../Textures/Thug/T_Thug_Skin_Normal.png"
		},
		{
			"mimeType":"image/png",
			"name":"Thug_Skin_albedo",
			"uri":"../Textures/Thug/T_Thug_Skin_BaseColor.png"
		},
		{
			"mimeType":"image/png",
			"name":"Thug_Skin_roughness",
			"uri":"../Textures/Thug/T_Thug_Skin_Roughness.png"
		},
		{
			"mimeType":"image/png",
			"name":"Thug_Hair_normal",
			"uri":"../Textures/Thug/T_Thug_Hair_Normal.png"
		},
		{
			"mimeType":"image/png",
			"name":"Thug_Hair_albedo",
			"uri":"../Textures/Thug/T_Thug_Hair_BaseColor.png"
		},
		{
			"mimeType":"image/png",
			"name":"Thug_Hair_roughness",
			"uri":"../Textures/Thug/T_Thug_Hair_Roughness.png"
		},
		{
			"mimeType":"image/png",
			"name":"Thug_Shoe_normal",
			"uri":"../Textures/Thug/T_Thug_Shoe_Normal.png"
		},
		{
			"mimeType":"image/png",
			"name":"Thug_Shoe_albedo",
			"uri":"../Textures/Thug/T_Thug_Shoe_BaseColor.png"
		},
		{
			"mimeType":"image/png",
			"name":"Thug_Shoe_roughness",
			"uri":"../Textures/Thug/T_Thug_Shoe_Roughness.png"
		},
		{
			"mimeType":"image/png",
			"name":"Thug_Eye_albedo",
			"uri":"../Textures/Thug/T_Thug_Eye_BaseColor.png"
		},
		{
			"mimeType":"image/png",
			"name":"Thug_Eye_roughness",
			"uri":"../Textures/Thug/T_Thug_Eye_Roughness.png"
		},
		{
			"mimeType":"image/png",
			"name":"Thug_Tee_normal",
			"uri":"../Textures/Thug/T_Thug_Tee_Normal.png"
		},
		{
			"mimeType":"image/png",
			"name":"Thug_Tee_albedo",
			"uri":"../Textures/Thug/T_Thug_Tee_BaseColor.png"
		},
		{
			"mimeType":"image/png",
			"name":"Thug_Tee_roughness",
			"uri":"../Textures/Thug/T_Thug_Tee_Roughness.png"
		},
		{
			"mimeType":"image/png",
			"name":"Thug_Pants_normal",
			"uri":"../Textures/Thug/T_Thug_Pants_Normal.png"
		},
		{
			"mimeType":"image/png",
			"name":"Thug_Pants_albedo",
			"uri":"../Textures/Thug/T_Thug_Pants_BaseColor.png"
		},
		{
			"mimeType":"image/png",
			"name":"Thug_Pants_roughness",
			"uri":"../Textures/Thug/T_Thug_Pants_Roughness.png"
		}
	],
	"skins":[
		{
			"inverseBindMatrices":48,
			"joints":[
				61,
				53,
				44,
				43,
				42,
				1,
				0,
				21,
				20,
				19,
				18,
				2,
				5,
				4,
				3,
				8,
				7,
				6,
				11,
				10,
				9,
				14,
				13,
				12,
				17,
				16,
				15,
				41,
				40,
				39,
				38,
				22,
				25,
				24,
				23,
				28,
				27,
				26,
				31,
				30,
				29,
				34,
				33,
				32,
				37,
				36,
				35,
				48,
				47,
				46,
				45,
				52,
				51,
				50,
				49,
				56,
				54,
				55,
				60,
				59,
				57,
				58
			],
			"name":"Saud_Rig"
		}
	],
	"accessors":[
		{
			"bufferView":0,
			"componentType":5126,
			"count":17902,
			"max":[
				0.6908788084983826,
				1.678478717803955,
				0.12585309147834778
			],
			"min":[
				-0.6908680200576782,
				0.06926346570253372,
				-0.1159946620464325
			],
			"type":"VEC3"
		},
		{
			"bufferView":1,
			"componentType":5126,
			"count":17902,
			"type":"VEC3"
		},
		{
			"bufferView":2,
			"componentType":5126,
			"count":17902,
			"type":"VEC2"
		},
		{
			"bufferView":3,
			"componentType":5121,
			"count":17902,
			"normalized":true,
			"type":"VEC4"
		},
		{
			"bufferView":4,
			"componentType":5123,
			"count":17902,
			"normalized":true,
			"type":"VEC4"
		},
		{
			"bufferView":5,
			"componentType":5121,
			"count":17902,
			"type":"VEC4"
		},
		{
			"bufferView":6,
			"componentType":5126,
			"count":17902,
			"type":"VEC4"
		},
		{
			"bufferView":7,
			"componentType":5123,
			"count":100731,
			"type":"SCALAR"
		},
		{
			"bufferView":8,
			"componentType":5126,
			"count":1382,
			"max":[
				0.08262775838375092,
				1.7142322063446045,
				0.09970295429229736
			],
			"min":[
				-0.08263220638036728,
				1.627664566040039,
				-0.11978204548358917
			],
			"type":"VEC3"
		},
		{
			"bufferView":9,
			"componentType":5126,
			"count":1382,
			"type":"VEC3"
		},
		{
			"bufferView":10,
			"componentType":5126,
			"count":1382,
			"type":"VEC2"
		},
		{
			"bufferView":11,
			"componentType":5121,
			"count":1382,
			"normalized":true,
			"type":"VEC4"
		},
		{
			"bufferView":12,
			"componentType":5123,
			"count":1382,
			"normalized":true,
			"type":"VEC4"
		},
		{
			"bufferView":13,
			"componentType":5121,
			"count":1382,
			"type":"VEC4"
		},
		{
			"bufferView":14,
			"componentType":5126,
			"count":1382,
			"type":"VEC4"
		},
		{
			"bufferView":15,
			"componentType":5123,
			"count":7806,
			"type":"SCALAR"
		},
		{
			"bufferView":16,
			"componentType":5126,
			"count":858,
			"max":[
				0.11231417953968048,
				0.14643844962120056,
				0.20952381193637848
			],
			"min":[
				-0.11231417953968048,
				0,
				-0.07619047909975052
			],
			"type":"VEC3"
		},
		{
			"bufferView":17,
			"componentType":5126,
			"count":858,
			"type":"VEC3"
		},
		{
			"bufferView":18,
			"componentType":5126,
			"count":858,
			"type":"VEC2"
		},
		{
			"bufferView":19,
			"componentType":5121,
			"count":858,
			"normalized":true,
			"type":"VEC4"
		},
		{
			"bufferView":20,
			"componentType":5123,
			"count":858,
			"normalized":true,
			"type":"VEC4"
		},
		{
			"bufferView":21,
			"componentType":5121,
			"count":858,
			"type":"VEC4"
		},
		{
			"bufferView":22,
			"componentType":5126,
			"count":858,
			"type":"VEC4"
		},
		{
			"bufferView":23,
			"componentType":5123,
			"count":4578,
			"type":"SCALAR"
		},
		{
			"bufferView":24,
			"componentType":5126,
			"count":5130,
			"max":[
				0.040952377021312714,
				1.6085714101791382,
				0.09030211716890335
			],
			"min":[
				-0.040952377021312714,
				1.585714340209961,
				0.06744498014450073
			],
			"type":"VEC3"
		},
		{
			"bufferView":25,
			"componentType":5126,
			"count":5130,
			"type":"VEC3"
		},
		{
			"bufferView":26,
			"componentType":5126,
			"count":5130,
			"type":"VEC2"
		},
		{
			"bufferView":27,
			"componentType":5121,
			"count":5130,
			"normalized":true,
			"type":"VEC4"
		},
		{
			"bufferView":28,
			"componentType":5123,
			"count":5130,
			"normalized":true,
			"type":"VEC4"
		},
		{
			"bufferView":29,
			"componentType":5121,
			"count":5130,
			"type":"VEC4"
		},
		{
			"bufferView":30,
			"componentType":5126,
			"count":5130,
			"type":"VEC4"
		},
		{
			"bufferView":31,
			"componentType":5123,
			"count":29952,
			"type":"SCALAR"
		},
		{
			"bufferView":32,
			"componentType":5126,
			"count":4808,
			"max":[
				0.2875540554523468,
				1.4732954502105713,
				0.11069978028535843
			],
			"min":[
				-0.28723201155662537,
				1.0087980031967163,
				-0.12184345722198486
			],
			"type":"VEC3"
		},
		{
			"bufferView":33,
			"componentType":5126,
			"count":4808,
			"type":"VEC3"
		},
		{
			"bufferView":34,
			"componentType":5126,
			"count":4808,
			"type":"VEC2"
		},
		{
			"bufferView":35,
			"componentType":5121,
			"count":4808,
			"normalized":true,
			"type":"VEC4"
		},
		{
			"bufferView":36,
			"componentType":5123,
			"count":4808,
			"normalized":true,
			"type":"VEC4"
		},
		{
			"bufferView":37,
			"componentType":5121,
			"count":4808,
			"type":"VEC4"
		},
		{
			"bufferView":38,
			"componentType":5126,
			"count":4808,
			"type":"VEC4"
		},
		{
			"bufferView":39,
			"componentType":5123,
			"count":24909,
			"type":"SCALAR"
		},
		{
			"bufferView":40,
			"componentType":5126,
			"count":4429,
			"max":[
				0.16490860283374786,
				1.0274311304092407,
				0.10378709435462952
			],
			"min":[
				-0.1650591790676117,
				0.10955487936735153,
				-0.14842958748340607
			],
			"type":"VEC3"
		},
		{
			"bufferView":41,
			"componentType":5126,
			"count":4429,
			"type":"VEC3"
		},
		{
			"bufferView":42,
			"componentType":5126,
			"count":4429,
			"type":"VEC2"
		},
		{
			"bufferView":43,
			"componentType":5121,
			"count":4429,
			"normalized":true,
			"type":"VEC4"
		},
		{
			"bufferView":44,
			"componentType":5123,
			"count":4429,
			"normalized":true,
			"type":"VEC4"
		},
		{
			"bufferView":45,
			"componentType":5121,
			"count":4429,
			"type":"VEC4"
		},
		{
			"bufferView":46,
			"componentType":5126,
			"count":4429,
			"type":"VEC4"
		},
		{
			"bufferView":47,
			"componentType":5123,
			"count":22671,
			"type":"SCALAR"
		},
		{
			"bufferView":48,
			"componentType":5126,
			"count":62,
			"type":"MAT4"
		}
	],
	"bufferViews":[
		{
			"buffer":0,
			"byteLength":214824,
			"byteOffset":0,
			"target":34962
		},
		{
			"buffer":0,
			"byteLength":214824,
			"byteOffset":214824,
			"target":34962
		},
		{
			"buffer":0,
			"byteLength":143216,
			"byteOffset":429648,
			"target":34962
		},
		{
			"buffer":0,
			"byteLength":71608,
			"byteOffset":572864,
			"target":34962
		},
		{
			"buffer":0,
			"byteLength":143216,
			"byteOffset":644472,
			"target":34962
		},
		{
			"buffer":0,
			"byteLength":71608,
			"byteOffset":787688,
			"target":34962
		},
		{
			"buffer":0,
			"byteLength":286432,
			"byteOffset":859296,
			"target":34962
		},
		{
			"buffer":0,
			"byteLength":201462,
			"byteOffset":1145728,
			"target":34963
		},
		{
			"buffer":0,
			"byteLength":16584,
			"byteOffset":1347192,
			"target":34962
		},
		{
			"buffer":0,
			"byteLength":16584,
			"byteOffset":1363776,
			"target":34962
		},
		{
			"buffer":0,
			"byteLength":11056,
			"byteOffset":1380360,
			"target":34962
		},
		{
			"buffer":0,
			"byteLength":5528,
			"byteOffset":1391416,
			"target":34962
		},
		{
			"buffer":0,
			"byteLength":11056,
			"byteOffset":1396944,
			"target":34962
		},
		{
			"buffer":0,
			"byteLength":5528,
			"byteOffset":1408000,
			"target":34962
		},
		{
			"buffer":0,
			"byteLength":22112,
			"byteOffset":1413528,
			"target":34962
		},
		{
			"buffer":0,
			"byteLength":15612,
			"byteOffset":1435640,
			"target":34963
		},
		{
			"buffer":0,
			"byteLength":10296,
			"byteOffset":1451252,
			"target":34962
		},
		{
			"buffer":0,
			"byteLength":10296,
			"byteOffset":1461548,
			"target":34962
		},
		{
			"buffer":0,
			"byteLength":6864,
			"byteOffset":1471844,
			"target":34962
		},
		{
			"buffer":0,
			"byteLength":3432,
			"byteOffset":1478708,
			"target":34962
		},
		{
			"buffer":0,
			"byteLength":6864,
			"byteOffset":1482140,
			"target":34962
		},
		{
			"buffer":0,
			"byteLength":3432,
			"byteOffset":1489004,
			"target":34962
		},
		{
			"buffer":0,
			"byteLength":13728,
			"byteOffset":1492436,
			"target":34962
		},
		{
			"buffer":0,
			"byteLength":9156,
			"byteOffset":1506164,
			"target":34963
		},
		{
			"buffer":0,
			"byteLength":61560,
			"byteOffset":1515320,
			"target":34962
		},
		{
			"buffer":0,
			"byteLength":61560,
			"byteOffset":1576880,
			"target":34962
		},
		{
			"buffer":0,
			"byteLength":41040,
			"byteOffset":1638440,
			"target":34962
		},
		{
			"buffer":0,
			"byteLength":20520,
			"byteOffset":1679480,
			"target":34962
		},
		{
			"buffer":0,
			"byteLength":41040,
			"byteOffset":1700000,
			"target":34962
		},
		{
			"buffer":0,
			"byteLength":20520,
			"byteOffset":1741040,
			"target":34962
		},
		{
			"buffer":0,
			"byteLength":82080,
			"byteOffset":1761560,
			"target":34962
		},
		{
			"buffer":0,
			"byteLength":59904,
			"byteOffset":1843640,
			"target":34963
		},
		{
			"buffer":0,
			"byteLength":57696,
			"byteOffset":1903544,
			"target":34962
		},
		{
			"buffer":0,
			"byteLength":57696,
			"byteOffset":1961240,
			"target":34962
		},
		{
			"buffer":0,
			"byteLength":38464,
			"byteOffset":2018936,
			"target":34962
		},
		{
			"buffer":0,
			"byteLength":19232,
			"byteOffset":2057400,
			"target":34962
		},
		{
			"buffer":0,
			"byteLength":38464,
			"byteOffset":2076632,
			"target":34962
		},
		{
			"buffer":0,
			"byteLength":19232,
			"byteOffset":2115096,
			"target":34962
		},
		{
			"buffer":0,
			"byteLength":76928,
			"byteOffset":2134328,
			"target":34962
		},
		{
			"buffer":0,
			"byteLength":49818,
			"byteOffset":2211256,
			"target":34963
		},
		{
			"buffer":0,
			"byteLength":53148,
			"byteOffset":2261076,
			"target":34962
		},
		{
			"buffer":0,
			"byteLength":53148,
			"byteOffset":2314224,
			"target":34962
		},
		{
			"buffer":0,
			"byteLength":35432,
			"byteOffset":2367372,
			"target":34962
		},
		{
			"buffer":0,
			"byteLength":17716,
			"byteOffset":2402804,
			"target":34962
		},
		{
			"buffer":0,
			"byteLength":35432,
			"byteOffset":2420520,
			"target":34962
		},
		{
			"buffer":0,
			"byteLength":17716,
			"byteOffset":2455952,
			"target":34962
		},
		{
			"buffer":0,
			"byteLength":70864,
			"byteOffset":2473668,
			"target":34962
		},
		{
			"buffer":0,
			"byteLength":45342,
			"byteOffset":2544532,
			"target":34963
		},
		{
			"buffer":0,
			"byteLength":3968,
			"byteOffset":2589876
		}
	],
	"samplers":[
		{
			"magFilter":9729,
			"minFilter":9987
		}
	],
	"buffers":[
		{
			"byteLength":2593844,
			"uri":"Thug.bin"
		}
	]
}
