{
	"asset":{
		"generator":"Khronos glTF Blender I/O v5.0.21",
		"version":"2.0"
	},
	"extensionsUsed":[
		"KHR_materials_clearcoat",
		"KHR_materials_sheen"
	],
	"scene":0,
	"scenes":[
		{
			"name":"Scene",
			"nodes":[
				63
			]
		}
	],
	"nodes":[
		{
			"name":"head",
			"rotation":[
				-0.07557425647974014,
				0,
				0,
				0.9971401691436768
			],
			"translation":[
				0,
				0.20785854756832123,
				-7.450580596923828e-09
			]
		},
		{
			"children":[
				0
			],
			"name":"neck_01",
			"rotation":[
				0.0434192456305027,
				0,
				0,
				0.9990569949150085
			],
			"scale":[
				1,
				1.0000001192092896,
				1
			],
			"translation":[
				0,
				0.11809515953063965,
				0
			]
		},
		{
			"name":"hand_end_l",
			"rotation":[
				0.8535534143447876,
				0.3535533547401428,
				0.3535533547401428,
				0.14644655585289001
			],
			"scale":[
				1,
				1.0000001192092896,
				0.9999999403953552
			],
			"translation":[
				5.559815274835955e-09,
				0.11064538359642029,
				-6.516445694160211e-08
			]
		},
		{
			"name":"index_03_l",
			"rotation":[
				-0.2185065895318985,
				-9.616236411602586e-07,
				-0.21850799024105072,
				0.9510568380355835
			],
			"scale":[
				1,
				1.0000001192092896,
				1
			],
			"translation":[
				-7.078051567077637e-08,
				0.04133320599794388,
				-1.601874828338623e-07
			]
		},
		{
			"children":[
				3
			],
			"name":"index_02_l",
			"rotation":[
				-0.5756670236587524,
				3.3650545105956553e-07,
				-0.5756663084030151,
				0.5807029008865356
			],
			"scale":[
				1.0000001192092896,
				1,
				1.0000001192092896
			],
			"translation":[
				2.7008354663848877e-08,
				0.06790471822023392,
				7.35744833946228e-08
			]
		},
		{
			"children":[
				4
			],
			"name":"index_01_l",
			"rotation":[
				-0.4156271815299988,
				-5.24937149748439e-07,
				-0.415626585483551,
				0.8090170621871948
			],
			"scale":[
				1.0000001192092896,
				0.9999999403953552,
				0.9999999403953552
			],
			"translation":[
				0.0292271189391613,
				0.14466652274131775,
				0.035489995032548904
			]
		},
		{
			"name":"middle_03_l",
			"rotation":[
				-0.2185077965259552,
				-9.479146569901786e-07,
				-0.21850913763046265,
				0.9510563611984253
			],
			"scale":[
				0.9999999403953552,
				0.9999999403953552,
				1
			],
			"translation":[
				7.078051567077637e-08,
				0.04576195403933525,
				1.0803341865539551e-07
			]
		},
		{
			"children":[
				6
			],
			"name":"middle_02_l",
			"rotation":[
				-0.5756664276123047,
				-1.2942527405357396e-07,
				-0.575666606426239,
				0.5807032585144043
			],
			"scale":[
				0.9999999403953552,
				1,
				1
			],
			"translation":[
				-1.043081283569336e-07,
				0.07380946725606918,
				-1.0989606380462646e-07
			]
		},
		{
			"children":[
				7
			],
			"name":"middle_01_l",
			"rotation":[
				-0.41562697291374207,
				1.841885080011707e-07,
				-0.4156271815299988,
				0.8090168833732605
			],
			"translation":[
				0.007306856568902731,
				0.15706655383110046,
				0.013569729402661324
			]
		},
		{
			"name":"ring_03_l",
			"rotation":[
				-0.2185070961713791,
				-5.718822535527579e-07,
				-0.2185087949037552,
				0.9510565400123596
			],
			"scale":[
				0.9999999403953552,
				0.9999999403953552,
				1
			],
			"translation":[
				5.587935447692871e-08,
				0.042809538543224335,
				8.568167686462402e-08
			]
		},
		{
			"children":[
				9
			],
			"name":"ring_02_l",
			"rotation":[
				-0.5756668448448181,
				1.7084128103306284e-06,
				-0.5756664872169495,
				0.5807030200958252
			],
			"translation":[
				-1.601874828338623e-07,
				0.06790472567081451,
				7.636845111846924e-08
			]
		},
		{
			"children":[
				10
			],
			"name":"ring_01_l",
			"rotation":[
				-0.4156271815299988,
				-5.24937149748439e-07,
				-0.415626585483551,
				0.8090170621871948
			],
			"scale":[
				1.0000001192092896,
				0.9999999403953552,
				0.9999999403953552
			],
			"translation":[
				-0.014613467268645763,
				0.14939042925834656,
				-0.008350593037903309
			]
		},
		{
			"name":"pinky_03_l",
			"rotation":[
				-0.218507781624794,
				1.175100550199204e-08,
				-0.2185077965259552,
				0.9510565996170044
			],
			"scale":[
				1,
				1.0000001192092896,
				1.0000001192092896
			],
			"translation":[
				-9.313225746154785e-08,
				0.03542868420481682,
				3.725290298461914e-08
			]
		},
		{
			"children":[
				12
			],
			"name":"pinky_02_l",
			"rotation":[
				-0.5756665468215942,
				-2.847353641755035e-07,
				-0.5756670832633972,
				0.5807026028633118
			],
			"scale":[
				0.9999999403953552,
				1,
				1
			],
			"translation":[
				-2.0675361156463623e-07,
				0.05314284935593605,
				8.754432201385498e-08
			]
		},
		{
			"children":[
				13
			],
			"name":"pinky_01_l",
			"rotation":[
				-0.4156263768672943,
				4.3284273942845175e-07,
				-0.4156268239021301,
				0.8090173602104187
			],
			"scale":[
				1,
				1,
				0.9999999403953552
			],
			"translation":[
				-0.035490114241838455,
				0.13758090138435364,
				-0.02922723814845085
			]
		},
		{
			"name":"thumb_03_l",
			"rotation":[
				-0.08214172720909119,
				-0.04783865436911583,
				0.04902956262230873,
				0.9942637085914612
			],
			"scale":[
				0.9999999403953552,
				1,
				0.9999999403953552
			],
			"translation":[
				-4.470348358154297e-08,
				0.048714298754930496,
				9.685754776000977e-08
			]
		},
		{
			"children":[
				15
			],
			"name":"thumb_02_l",
			"rotation":[
				-0.17244607210159302,
				-0.09941217303276062,
				0.09663862735033035,
				0.9752131104469299
			],
			"scale":[
				1,
				1.0000001192092896,
				1
			],
			"translation":[
				7.450580596923828e-09,
				0.06495240330696106,
				1.0943040251731873e-08
			]
		},
		{
			"children":[
				16
			],
			"name":"thumb_01_l",
			"rotation":[
				0.46510395407676697,
				0.28896138072013855,
				0.05645057186484337,
				0.8348610997200012
			],
			"scale":[
				1,
				0.9999998807907104,
				1
			],
			"translation":[
				0.022964203730225563,
				0.03838100656867027,
				0.039665259420871735
			]
		},
		{
			"children":[
				2,
				5,
				8,
				11,
				14,
				17
			],
			"name":"hand_l",
			"rotation":[
				0.021057164296507835,
				0.3825840651988983,
				0.008722169324755669,
				0.9236395359039307
			],
			"translation":[
				1.1920928955078125e-07,
				0.3887065052986145,
				-3.7175489353558078e-09
			]
		},
		{
			"children":[
				18
			],
			"name":"lowerarm_l",
			"rotation":[
				-0.04960012435913086,
				-1.848760575740016e-07,
				2.2468190863378368e-08,
				0.9987691640853882
			],
			"translation":[
				1.142269852039135e-07,
				0.4954855144023895,
				1.862645149230957e-09
			]
		},
		{
			"children":[
				19
			],
			"name":"upperarm_l",
			"rotation":[
				-0.24843460321426392,
				-0.6355481743812561,
				0.2709634304046631,
				0.6789238452911377
			],
			"scale":[
				1.0000001192092896,
				1.0000001192092896,
				1
			],
			"translation":[
				9.313225746154785e-10,
				0.27628177404403687,
				-7.924973033368587e-08
			]
		},
		{
			"children":[
				20
			],
			"name":"clavicle_l",
			"rotation":[
				-0.5237293839454651,
				-0.4916670322418213,
				-0.49166709184646606,
				0.49217337369918823
			],
			"scale":[
				1,
				1.000000238418579,
				1.0000001192092896
			],
			"translation":[
				0.11075331270694733,
				0.011809349060058594,
				0.017714286223053932
			]
		},
		{
			"name":"hand_end_r",
			"rotation":[
				0.8535534143447876,
				-0.3535533547401428,
				-0.3535533547401428,
				0.14644655585289001
			],
			"scale":[
				1,
				1.0000001192092896,
				0.9999999403953552
			],
			"translation":[
				-5.559815274835955e-09,
				0.11064538359642029,
				-6.516445694160211e-08
			]
		},
		{
			"name":"index_03_r",
			"rotation":[
				-0.2185065895318985,
				9.616236411602586e-07,
				0.21850799024105072,
				0.9510568380355835
			],
			"scale":[
				1,
				1.0000001192092896,
				1
			],
			"translation":[
				7.078051567077637e-08,
				0.04133320599794388,
				-1.601874828338623e-07
			]
		},
		{
			"children":[
				23
			],
			"name":"index_02_r",
			"rotation":[
				-0.5756670236587524,
				-3.3650545105956553e-07,
				0.5756663084030151,
				0.5807029008865356
			],
			"scale":[
				1.0000001192092896,
				1,
				1.0000001192092896
			],
			"translation":[
				-2.7008354663848877e-08,
				0.06790471822023392,
				7.35744833946228e-08
			]
		},
		{
			"children":[
				24
			],
			"name":"index_01_r",
			"rotation":[
				-0.4156271815299988,
				5.24937149748439e-07,
				0.415626585483551,
				0.8090170621871948
			],
			"scale":[
				1.0000001192092896,
				0.9999999403953552,
				0.9999999403953552
			],
			"translation":[
				-0.0292271189391613,
				0.14466652274131775,
				0.035489995032548904
			]
		},
		{
			"name":"middle_03_r",
			"rotation":[
				-0.2185077965259552,
				9.479146569901786e-07,
				0.21850913763046265,
				0.9510563611984253
			],
			"scale":[
				0.9999999403953552,
				0.9999999403953552,
				1
			],
			"translation":[
				-7.078051567077637e-08,
				0.04576195403933525,
				1.0803341865539551e-07
			]
		},
		{
			"children":[
				26
			],
			"name":"middle_02_r",
			"rotation":[
				-0.5756664276123047,
				1.2942527405357396e-07,
				0.575666606426239,
				0.5807032585144043
			],
			"scale":[
				0.9999999403953552,
				1,
				1
			],
			"translation":[
				1.043081283569336e-07,
				0.07380946725606918,
				-1.0989606380462646e-07
			]
		},
		{
			"children":[
				27
			],
			"name":"middle_01_r",
			"rotation":[
				-0.41562697291374207,
				-1.841885080011707e-07,
				0.4156271815299988,
				0.8090168833732605
			],
			"translation":[
				-0.007306856568902731,
				0.15706655383110046,
				0.013569729402661324
			]
		},
		{
			"name":"ring_03_r",
			"rotation":[
				-0.2185070961713791,
				5.718822535527579e-07,
				0.2185087949037552,
				0.9510565400123596
			],
			"scale":[
				0.9999999403953552,
				0.9999999403953552,
				1
			],
			"translation":[
				-5.587935447692871e-08,
				0.042809538543224335,
				8.568167686462402e-08
			]
		},
		{
			"children":[
				29
			],
			"name":"ring_02_r",
			"rotation":[
				-0.5756668448448181,
				-1.7084128103306284e-06,
				0.5756664872169495,
				0.5807030200958252
			],
			"translation":[
				1.601874828338623e-07,
				0.06790472567081451,
				7.636845111846924e-08
			]
		},
		{
			"children":[
				30
			],
			"name":"ring_01_r",
			"rotation":[
				-0.4156271815299988,
				5.24937149748439e-07,
				0.415626585483551,
				0.8090170621871948
			],
			"scale":[
				1.0000001192092896,
				0.9999999403953552,
				0.9999999403953552
			],
			"translation":[
				0.014613467268645763,
				0.14939042925834656,
				-0.008350593037903309
			]
		},
		{
			"name":"pinky_03_r",
			"rotation":[
				-0.218507781624794,
				-1.175100550199204e-08,
				0.2185077965259552,
				0.9510565996170044
			],
			"scale":[
				1,
				1.0000001192092896,
				1.0000001192092896
			],
			"translation":[
				9.313225746154785e-08,
				0.03542868420481682,
				3.725290298461914e-08
			]
		},
		{
			"children":[
				32
			],
			"name":"pinky_02_r",
			"rotation":[
				-0.5756665468215942,
				2.847353641755035e-07,
				0.5756670832633972,
				0.5807026028633118
			],
			"scale":[
				0.9999999403953552,
				1,
				1
			],
			"translation":[
				2.0675361156463623e-07,
				0.05314284935593605,
				8.754432201385498e-08
			]
		},
		{
			"children":[
				33
			],
			"name":"pinky_01_r",
			"rotation":[
				-0.4156263768672943,
				-4.3284273942845175e-07,
				0.4156268239021301,
				0.8090173602104187
			],
			"scale":[
				1,
				1,
				0.9999999403953552
			],
			"translation":[
				0.035490114241838455,
				0.13758090138435364,
				-0.02922723814845085
			]
		},
		{
			"name":"thumb_03_r",
			"rotation":[
				-0.08214172720909119,
				0.04783865436911583,
				-0.04902956262230873,
				0.9942637085914612
			],
			"scale":[
				0.9999999403953552,
				1,
				0.9999999403953552
			],
			"translation":[
				4.470348358154297e-08,
				0.048714298754930496,
				9.685754776000977e-08
			]
		},
		{
			"children":[
				35
			],
			"name":"thumb_02_r",
			"rotation":[
				-0.17244607210159302,
				0.09941217303276062,
				-0.09663862735033035,
				0.9752131104469299
			],
			"scale":[
				1,
				1.0000001192092896,
				1
			],
			"translation":[
				-7.450580596923828e-09,
				0.06495240330696106,
				1.0943040251731873e-08
			]
		},
		{
			"children":[
				36
			],
			"name":"thumb_01_r",
			"rotation":[
				0.46510395407676697,
				-0.28896138072013855,
				-0.05645057186484337,
				0.8348610997200012
			],
			"scale":[
				1,
				0.9999998807907104,
				1
			],
			"translation":[
				-0.022964203730225563,
				0.03838100656867027,
				0.039665259420871735
			]
		},
		{
			"children":[
				22,
				25,
				28,
				31,
				34,
				37
			],
			"name":"hand_r",
			"rotation":[
				0.021057164296507835,
				-0.3825840651988983,
				-0.008722169324755669,
				0.9236395359039307
			],
			"translation":[
				-1.1920928955078125e-07,
				0.3887065052986145,
				-3.7175489353558078e-09
			]
		},
		{
			"children":[
				38
			],
			"name":"lowerarm_r",
			"rotation":[
				-0.04960012435913086,
				1.848760575740016e-07,
				-2.2468190863378368e-08,
				0.9987691640853882
			],
			"translation":[
				-1.142269852039135e-07,
				0.4954855144023895,
				1.862645149230957e-09
			]
		},
		{
			"children":[
				39
			],
			"name":"upperarm_r",
			"rotation":[
				-0.24843460321426392,
				0.6355481743812561,
				-0.2709634304046631,
				0.6789238452911377
			],
			"scale":[
				1.0000001192092896,
				1.0000001192092896,
				1
			],
			"translation":[
				-9.313225746154785e-10,
				0.27628177404403687,
				-7.924973033368587e-08
			]
		},
		{
			"children":[
				40
			],
			"name":"clavicle_r",
			"rotation":[
				-0.5237293839454651,
				0.4916670322418213,
				0.49166709184646606,
				0.49217337369918823
			],
			"scale":[
				1,
				1.000000238418579,
				1.0000001192092896
			],
			"translation":[
				-0.11075331270694733,
				0.011809349060058594,
				0.017714286223053932
			]
		},
		{
			"children":[
				1,
				21,
				41
			],
			"name":"spine_03",
			"translation":[
				0,
				0.25980961322784424,
				0
			]
		},
		{
			"children":[
				42
			],
			"name":"spine_02",
			"translation":[
				0,
				0.23028576374053955,
				0
			]
		},
		{
			"children":[
				43
			],
			"name":"spine_01",
			"translation":[
				0,
				0.2302858829498291,
				0
			]
		},
		{
			"name":"ball_l",
			"rotation":[
				-0.8003542423248291,
				5.695891314161372e-09,
				6.92425672355057e-09,
				0.5995274782180786
			],
			"scale":[
				1,
				0.9999999403953552,
				0.9999999403953552
			],
			"translation":[
				-1.6045227368977066e-09,
				0.23996375501155853,
				4.416202070700592e-09
			]
		},
		{
			"children":[
				45
			],
			"name":"foot_l",
			"rotation":[
				0.005474050063639879,
				-0.7921457290649414,
				-0.61029452085495,
				0.003986031282693148
			],
			"scale":[
				0.9999999403953552,
				0.9999998211860657,
				1
			],
			"translation":[
				-6.984918421437669e-09,
				0.654252290725708,
				-1.3881198412946105e-09
			]
		},
		{
			"children":[
				46
			],
			"name":"calf_l",
			"rotation":[
				-0.027199486270546913,
				-3.2759101031842874e-07,
				-0.002215908607468009,
				0.9996275901794434
			],
			"scale":[
				0.9999998807907104,
				0.9999998807907104,
				0.9999998807907104
			],
			"translation":[
				1.061511500921597e-08,
				0.6483166813850403,
				-4.8348738346248865e-09
			]
		},
		{
			"children":[
				47
			],
			"name":"thigh_l",
			"rotation":[
				6.223368836799636e-05,
				0.013662888668477535,
				0.9998962879180908,
				0.004555240273475647
			],
			"scale":[
				1,
				0.9999999403953552,
				1.000000238418579
			],
			"translation":[
				0.17790547013282776,
				0,
				0
			]
		},
		{
			"name":"ball_r",
			"rotation":[
				-0.8003542423248291,
				-5.695891314161372e-09,
				-6.92425672355057e-09,
				0.5995274782180786
			],
			"scale":[
				1,
				0.9999999403953552,
				0.9999999403953552
			],
			"translation":[
				1.6045227368977066e-09,
				0.23996375501155853,
				4.416202070700592e-09
			]
		},
		{
			"children":[
				49
			],
			"name":"foot_r",
			"rotation":[
				0.005474050063639879,
				0.7921457290649414,
				0.61029452085495,
				0.003986031282693148
			],
			"scale":[
				0.9999999403953552,
				0.9999998211860657,
				1
			],
			"translation":[
				6.984918421437669e-09,
				0.654252290725708,
				-1.3881198412946105e-09
			]
		},
		{
			"children":[
				50
			],
			"name":"calf_r",
			"rotation":[
				-0.027199486270546913,
				3.2759101031842874e-07,
				0.002215908607468009,
				0.9996275901794434
			],
			"scale":[
				0.9999998807907104,
				0.9999998807907104,
				0.9999998807907104
			],
			"translation":[
				-1.061511500921597e-08,
				0.6483166813850403,
				-4.8348738346248865e-09
			]
		},
		{
			"children":[
				51
			],
			"name":"thigh_r",
			"rotation":[
				6.223368836799636e-05,
				-0.013662888668477535,
				-0.9998962879180908,
				0.004555240273475647
			],
			"scale":[
				1,
				0.9999999403953552,
				1.000000238418579
			],
			"translation":[
				-0.17790547013282776,
				0,
				0
			]
		},
		{
			"children":[
				44,
				48,
				52
			],
			"name":"pelvis",
			"scale":[
				1,
				0.9999999403953552,
				1
			],
			"translation":[
				0,
				1.405333399772644,
				0
			]
		},
		{
			"name":"ik_foot_l",
			"rotation":[
				0.8003541827201843,
				0,
				0,
				0.5995274782180786
			],
			"translation":[
				0.1631435602903366,
				0.10333333164453506,
				0
			]
		},
		{
			"name":"ik_foot_r",
			"rotation":[
				0.8003541827201843,
				0,
				0,
				0.5995274782180786
			],
			"translation":[
				-0.1631435602903366,
				0.10333333164453506,
				0
			]
		},
		{
			"children":[
				54,
				55
			],
			"name":"ik_foot_root"
		},
		{
			"name":"ik_hand_l",
			"rotation":[
				8.940691031966708e-08,
				0.5000002980232239,
				-0.7071064114570618,
				0.5000001788139343
			],
			"scale":[
				1,
				0.9999998211860657,
				1
			],
			"translation":[
				1.0111790895462036,
				-1.4300236701965332,
				-1.0111796855926514
			]
		},
		{
			"name":"ik_hand_r",
			"rotation":[
				-4.73890127139498e-09,
				1.1175872671742582e-08,
				-2.711701307944736e-09,
				1
			],
			"scale":[
				0.9999999403953552,
				1,
				0.9999999403953552
			],
			"translation":[
				-5.960464477539063e-08,
				0,
				5.960464477539063e-08
			]
		},
		{
			"children":[
				57,
				58
			],
			"name":"ik_hand_gun",
			"rotation":[
				-0.8535533547401428,
				0.35355350375175476,
				0.3535534143447876,
				0.1464466154575348
			],
			"scale":[
				1.0000003576278687,
				1.0000003576278687,
				1
			],
			"translation":[
				-1.0111795663833618,
				1.5042381286621094,
				0
			]
		},
		{
			"children":[
				59
			],
			"name":"ik_hand_root"
		},
		{
			"children":[
				53,
				56,
				60
			],
			"name":"root"
		},
		{
			"mesh":0,
			"name":"Zayos",
			"skin":0
		},
		{
			"children":[
				62,
				61
			],
			"name":"Saud_Rig"
		}
	],
	"materials":[
		{
			"doubleSided":true,
			"name":"Zayos_Skin",
			"normalTexture":{
				"index":0
			},
			"pbrMetallicRoughness":{
				"baseColorTexture":{
					"index":1
				},
				"metallicFactor":0,
				"metallicRoughnessTexture":{
					"index":2
				}
			}
		},
		{
			"doubleSided":true,
			"extensions":{
				"KHR_materials_clearcoat":{
					"clearcoatFactor":0.20000000298023224,
					"clearcoatRoughnessFactor":0.05999999865889549
				}
			},
			"name":"Zayos_Shoe",
			"normalTexture":{
				"index":3
			},
			"pbrMetallicRoughness":{
				"baseColorTexture":{
					"index":4
				},
				"metallicFactor":0,
				"metallicRoughnessTexture":{
					"index":5
				}
			}
		},
		{
			"doubleSided":true,
			"extensions":{
				"KHR_materials_clearcoat":{
					"clearcoatFactor":0.25,
					"clearcoatRoughnessFactor":0.05999999865889549
				}
			},
			"name":"Zayos_Glove",
			"normalTexture":{
				"index":6
			},
			"pbrMetallicRoughness":{
				"baseColorTexture":{
					"index":7
				},
				"metallicFactor":0,
				"metallicRoughnessTexture":{
					"index":8
				}
			}
		},
		{
			"doubleSided":true,
			"extensions":{
				"KHR_materials_clearcoat":{
					"clearcoatFactor":1,
					"clearcoatRoughnessFactor":0.05999999865889549
				}
			},
			"name":"Zayos_Eye",
			"pbrMetallicRoughness":{
				"baseColorTexture":{
					"index":9
				},
				"metallicFactor":0,
				"metallicRoughnessTexture":{
					"index":10
				}
			}
		},
		{
			"doubleSided":true,
			"extensions":{
				"KHR_materials_sheen":{
					"sheenColorFactor":[
						1.0,
						1.0,
						1.0
					],
					"sheenRoughnessFactor":0.5
				}
			},
			"name":"Zayos_Pants",
			"normalTexture":{
				"index":11
			},
			"pbrMetallicRoughness":{
				"baseColorTexture":{
					"index":12
				},
				"metallicFactor":0,
				"metallicRoughnessTexture":{
					"index":13
				}
			}
		}
	],
	"meshes":[
		{
			"name":"Zayos",
			"primitives":[
				{
					"attributes":{
						"POSITION":0,
						"NORMAL":1,
						"TEXCOORD_0":2,
						"COLOR_0":3,
						"COLOR_1":4,
						"JOINTS_0":5,
						"WEIGHTS_0":6
					},
					"indices":7,
					"material":0
				},
				{
					"attributes":{
						"POSITION":8,
						"NORMAL":9,
						"TEXCOORD_0":10,
						"COLOR_0":11,
						"COLOR_1":12,
						"JOINTS_0":13,
						"WEIGHTS_0":14
					},
					"indices":15,
					"material":1
				},
				{
					"attributes":{
						"POSITION":16,
						"NORMAL":17,
						"TEXCOORD_0":18,
						"COLOR_0":19,
						"COLOR_1":20,
						"JOINTS_0":21,
						"WEIGHTS_0":22
					},
					"indices":23,
					"material":2
				},
				{
					"attributes":{
						"POSITION":24,
						"NORMAL":25,
						"TEXCOORD_0":26,
						"COLOR_0":27,
						"COLOR_1":28,
						"JOINTS_0":29,
						"WEIGHTS_0":30
					},
					"indices":31,
					"material":3
				},
				{
					"attributes":{
						"POSITION":32,
						"NORMAL":33,
						"TEXCOORD_0":34,
						"COLOR_0":35,
						"COLOR_1":36,
						"JOINTS_0":37,
						"WEIGHTS_0":38
					},
					"indices":39,
					"material":4
				}
			]
		}
	],
	"textures":[
		{
			"sampler":0,
			"source":0
		},
		{
			"sampler":0,
			"source":1
		},
		{
			"sampler":0,
			"source":2
		},
		{
			"sampler":0,
			"source":3
		},
		{
			"sampler":0,
			"source":4
		},
		{
			"sampler":0,
			"source":5
		},
		{
			"sampler":0,
			"source":6
		},
		{
			"sampler":0,
			"source":7
		},
		{
			"sampler":0,
			"source":8
		},
		{
			"sampler":0,
			"source":9
		},
		{
			"sampler":0,
			"source":10
		},
		{
			"sampler":0,
			"source":11
		},
		{
			"sampler":0,
			"source":12
		},
		{
			"sampler":0,
			"source":13
		}
	],
	"images":[
		{
			"mimeType":"image/png",
			"name":"Zayos_Skin_normal",
			"uri":"../Textures/Zayos/T_Zayos_Skin_Normal.png"
		},
		{
			"mimeType":"image/png",
			"name":"Zayos_Skin_albedo",
			"uri":"../Textures/Zayos/T_Zayos_Skin_BaseColor.png"
		},
		{
			"mimeType":"image/png",
			"name":"Zayos_Skin_roughness",
			"uri":"../Textures/Zayos/T_Zayos_Skin_Roughness.png"
		},
		{
			"mimeType":"image/png",
			"name":"Zayos_Shoe_normal",
			"uri":"../Textures/Zayos/T_Zayos_Shoe_Normal.png"
		},
		{
			"mimeType":"image/png",
			"name":"Zayos_Shoe_albedo",
			"uri":"../Textures/Zayos/T_Zayos_Shoe_BaseColor.png"
		},
		{
			"mimeType":"image/png",
			"name":"Zayos_Shoe_roughness",
			"uri":"../Textures/Zayos/T_Zayos_Shoe_Roughness.png"
		},
		{
			"mimeType":"image/png",
			"name":"Zayos_Glove_normal",
			"uri":"../Textures/Zayos/T_Zayos_Glove_Normal.png"
		},
		{
			"mimeType":"image/png",
			"name":"Zayos_Glove_albedo",
			"uri":"../Textures/Zayos/T_Zayos_Glove_BaseColor.png"
		},
		{
			"mimeType":"image/png",
			"name":"Zayos_Glove_roughness",
			"uri":"../Textures/Zayos/T_Zayos_Glove_Roughness.png"
		},
		{
			"mimeType":"image/png",
			"name":"Zayos_Eye_albedo",
			"uri":"../Textures/Zayos/T_Zayos_Eye_BaseColor.png"
		},
		{
			"mimeType":"image/png",
			"name":"Zayos_Eye_roughness",
			"uri":"../Textures/Zayos/T_Zayos_Eye_Roughness.png"
		},
		{
			"mimeType":"image/png",
			"name":"Zayos_Pants_normal",
			"uri":"../Textures/Zayos/T_Zayos_Pants_Normal.png"
		},
		{
			"mimeType":"image/png",
			"name":"Zayos_Pants_albedo",
			"uri":"../Textures/Zayos/T_Zayos_Pants_BaseColor.png"
		},
		{
			"mimeType":"image/png",
			"name":"Zayos_Pants_roughness",
			"uri":"../Textures/Zayos/T_Zayos_Pants_Roughness.png"
		}
	],
	"skins":[
		{
			"inverseBindMatrices":40,
			"joints":[
				61,
				53,
				44,
				43,
				42,
				1,
				0,
				21,
				20,
				19,
				18,
				2,
				5,
				4,
				3,
				8,
				7,
				6,
				11,
				10,
				9,
				14,
				13,
				12,
				17,
				16,
				15,
				41,
				40,
				39,
				38,
				22,
				25,
				24,
				23,
				28,
				27,
				26,
				31,
				30,
				29,
				34,
				33,
				32,
				37,
				36,
				35,
				48,
				47,
				46,
				45,
				52,
				51,
				50,
				49,
				56,
				54,
				55,
				60,
				59,
				57,
				58
			],
			"name":"Saud_Rig"
		}
	],
	"accessors":[
		{
			"bufferView":0,
			"componentType":5126,
			"count":14006,
			"max":[
				0.9376402497291565,
				2.6105968952178955,
				0.17720924317836761
			],
			"min":[
				-0.9398984313011169,
				0.10970219224691391,
				-0.18519200384616852
			],
			"type":"VEC3"
		},
		{
			"bufferView":1,
			"componentType":5126,
			"count":14006,
			"type":"VEC3"
		},
		{
			"bufferView":2,
			"componentType":5126,
			"count":14006,
			"type":"VEC2"
		},
		{
			"bufferView":3,
			"componentType":5121,
			"count":14006,
			"normalized":true,
			"type":"VEC4"
		},
		{
			"bufferView":4,
			"componentType":5123,
			"count":14006,
			"normalized":true,
			"type":"VEC4"
		},
		{
			"bufferView":5,
			"componentType":5121,
			"count":14006,
			"type":"VEC4"
		},
		{
			"bufferView":6,
			"componentType":5126,
			"count":14006,
			"type":"VEC4"
		},
		{
			"bufferView":7,
			"componentType":5123,
			"count":79071,
			"type":"SCALAR"
		},
		{
			"bufferView":8,
			"componentType":5126,
			"count":1701,
			"max":[
				0.2375940978527069,
				0.22242529690265656,
				0.3616376519203186
			],
			"min":[
				-0.2377428114414215,
				0,
				-0.11514285206794739
			],
			"type":"VEC3"
		},
		{
			"bufferView":9,
			"componentType":5126,
			"count":1701,
			"type":"VEC3"
		},
		{
			"bufferView":10,
			"componentType":5126,
			"count":1701,
			"type":"VEC2"
		},
		{
			"bufferView":11,
			"componentType":5121,
			"count":1701,
			"normalized":true,
			"type":"VEC4"
		},
		{
			"bufferView":12,
			"componentType":5123,
			"count":1701,
			"normalized":true,
			"type":"VEC4"
		},
		{
			"bufferView":13,
			"componentType":5121,
			"count":1701,
			"type":"VEC4"
		},
		{
			"bufferView":14,
			"componentType":5126,
			"count":1701,
			"type":"VEC4"
		},
		{
			"bufferView":15,
			"componentType":5123,
			"count":9390,
			"type":"SCALAR"
		},
		{
			"bufferView":16,
			"componentType":5126,
			"count":3510,
			"max":[
				1.226172685623169,
				1.6936208009719849,
				0.08991141617298126
			],
			"min":[
				-1.2259387969970703,
				1.342587947845459,
				-0.1273784041404724
			],
			"type":"VEC3"
		},
		{
			"bufferView":17,
			"componentType":5126,
			"count":3510,
			"type":"VEC3"
		},
		{
			"bufferView":18,
			"componentType":5126,
			"count":3510,
			"type":"VEC2"
		},
		{
			"bufferView":19,
			"componentType":5121,
			"count":3510,
			"normalized":true,
			"type":"VEC4"
		},
		{
			"bufferView":20,
			"componentType":5123,
			"count":3510,
			"normalized":true,
			"type":"VEC4"
		},
		{
			"bufferView":21,
			"componentType":5121,
			"count":3510,
			"type":"VEC4"
		},
		{
			"bufferView":22,
			"componentType":5126,
			"count":3510,
			"type":"VEC4"
		},
		{
			"bufferView":23,
			"componentType":5123,
			"count":18831,
			"type":"SCALAR"
		},
		{
			"bufferView":24,
			"componentType":5126,
			"count":5130,
			"max":[
				0.05538740009069443,
				2.4727816581726074,
				0.1221320852637291
			],
			"min":[
				-0.05538740009069443,
				2.4418678283691406,
				0.09121820330619812
			],
			"type":"VEC3"
		},
		{
			"bufferView":25,
			"componentType":5126,
			"count":5130,
			"type":"VEC3"
		},
		{
			"bufferView":26,
			"componentType":5126,
			"count":5130,
			"type":"VEC2"
		},
		{
			"bufferView":27,
			"componentType":5121,
			"count":5130,
			"normalized":true,
			"type":"VEC4"
		},
		{
			"bufferView":28,
			"componentType":5123,
			"count":5130,
			"normalized":true,
			"type":"VEC4"
		},
		{
			"bufferView":29,
			"componentType":5121,
			"count":5130,
			"type":"VEC4"
		},
		{
			"bufferView":30,
			"componentType":5126,
			"count":5130,
			"type":"VEC4"
		},
		{
			"bufferView":31,
			"componentType":5123,
			"count":29952,
			"type":"SCALAR"
		},
		{
			"bufferView":32,
			"componentType":5126,
			"count":4371,
			"max":[
				0.34861308336257935,
				1.5928034782409668,
				0.21073515713214874
			],
			"min":[
				-0.34728890657424927,
				0.16935928165912628,
				-0.20315870642662048
			],
			"type":"VEC3"
		},
		{
			"bufferView":33,
			"componentType":5126,
			"count":4371,
			"type":"VEC3"
		},
		{
			"bufferView":34,
			"componentType":5126,
			"count":4371,
			"type":"VEC2"
		},
		{
			"bufferView":35,
			"componentType":5121,
			"count":4371,
			"normalized":true,
			"type":"VEC4"
		},
		{
			"bufferView":36,
			"componentType":5123,
			"count":4371,
			"normalized":true,
			"type":"VEC4"
		},
		{
			"bufferView":37,
			"componentType":5121,
			"count":4371,
			"type":"VEC4"
		},
		{
			"bufferView":38,
			"componentType":5126,
			"count":4371,
			"type":"VEC4"
		},
		{
			"bufferView":39,
			"componentType":5123,
			"count":22518,
			"type":"SCALAR"
		},
		{
			"bufferView":40,
			"componentType":5126,
			"count":62,
			"type":"MAT4"
		}
	],
	"bufferViews":[
		{
			"buffer":0,
			"byteLength":168072,
			"byteOffset":0,
			"target":34962
		},
		{
			"buffer":0,
			"byteLength":168072,
			"byteOffset":168072,
			"target":34962
		},
		{
			"buffer":0,
			"byteLength":112048,
			"byteOffset":336144,
			"target":34962
		},
		{
			"buffer":0,
			"byteLength":56024,
			"byteOffset":448192,
			"target":34962
		},
		{
			"buffer":0,
			"byteLength":112048,
			"byteOffset":504216,
			"target":34962
		},
		{
			"buffer":0,
			"byteLength":56024,
			"byteOffset":616264,
			"target":34962
		},
		{
			"buffer":0,
			"byteLength":224096,
			"byteOffset":672288,
			"target":34962
		},
		{
			"buffer":0,
			"byteLength":158142,
			"byteOffset":896384,
			"target":34963
		},
		{
			"buffer":0,
			"byteLength":20412,
			"byteOffset":1054528,
			"target":34962
		},
		{
			"buffer":0,
			"byteLength":20412,
			"byteOffset":1074940,
			"target":34962
		},
		{
			"buffer":0,
			"byteLength":13608,
			"byteOffset":1095352,
			"target":34962
		},
		{
			"buffer":0,
			"byteLength":6804,
			"byteOffset":1108960,
			"target":34962
		},
		{
			"buffer":0,
			"byteLength":13608,
			"byteOffset":1115764,
			"target":34962
		},
		{
			"buffer":0,
			"byteLength":6804,
			"byteOffset":1129372,
			"target":34962
		},
		{
			"buffer":0,
			"byteLength":27216,
			"byteOffset":1136176,
			"target":34962
		},
		{
			"buffer":0,
			"byteLength":18780,
			"byteOffset":1163392,
			"target":34963
		},
		{
			"buffer":0,
			"byteLength":42120,
			"byteOffset":1182172,
			"target":34962
		},
		{
			"buffer":0,
			"byteLength":42120,
			"byteOffset":1224292,
			"target":34962
		},
		{
			"buffer":0,
			"byteLength":28080,
			"byteOffset":1266412,
			"target":34962
		},
		{
			"buffer":0,
			"byteLength":14040,
			"byteOffset":1294492,
			"target":34962
		},
		{
			"buffer":0,
			"byteLength":28080,
			"byteOffset":1308532,
			"target":34962
		},
		{
			"buffer":0,
			"byteLength":14040,
			"byteOffset":1336612,
			"target":34962
		},
		{
			"buffer":0,
			"byteLength":56160,
			"byteOffset":1350652,
			"target":34962
		},
		{
			"buffer":0,
			"byteLength":37662,
			"byteOffset":1406812,
			"target":34963
		},
		{
			"buffer":0,
			"byteLength":61560,
			"byteOffset":1444476,
			"target":34962
		},
		{
			"buffer":0,
			"byteLength":61560,
			"byteOffset":1506036,
			"target":34962
		},
		{
			"buffer":0,
			"byteLength":41040,
			"byteOffset":1567596,
			"target":34962
		},
		{
			"buffer":0,
			"byteLength":20520,
			"byteOffset":1608636,
			"target":34962
		},
		{
			"buffer":0,
			"byteLength":41040,
			"byteOffset":1629156,
			"target":34962
		},
		{
			"buffer":0,
			"byteLength":20520,
			"byteOffset":1670196,
			"target":34962
		},
		{
			"buffer":0,
			"byteLength":82080,
			"byteOffset":1690716,
			"target":34962
		},
		{
			"buffer":0,
			"byteLength":59904,
			"byteOffset":1772796,
			"target":34963
		},
		{
			"buffer":0,
			"byteLength":52452,
			"byteOffset":1832700,
			"target":34962
		},
		{
			"buffer":0,
			"byteLength":52452,
			"byteOffset":1885152,
			"target":34962
		},
		{
			"buffer":0,
			"byteLength":34968,
			"byteOffset":1937604,
			"target":34962
		},
		{
			"buffer":0,
			"byteLength":17484,
			"byteOffset":1972572,
			"target":34962
		},
		{
			"buffer":0,
			"byteLength":34968,
			"byteOffset":1990056,
			"target":34962
		},
		{
			"buffer":0,
			"byteLength":17484,
			"byteOffset":2025024,
			"target":34962
		},
		{
			"buffer":0,
			"byteLength":69936,
			"byteOffset":2042508,
			"target":34962
		},
		{
			"buffer":0,
			"byteLength":45036,
			"byteOffset":2112444,
			"target":34963
		},
		{
			"buffer":0,
			"byteLength":3968,
			"byteOffset":2157480
		}
	],
	"samplers":[
		{
			"magFilter":9729,
			"minFilter":9987
		}
	],
	"buffers":[
		{
			"byteLength":2161448,
			"uri":"Zayos.bin"
		}
	]
}
